ply
format ascii 1.0
element vertex 924
property float x
property float y
property float z
element face 1880
property list uchar int vertex_index
end_header
-0.0073949983 -0.34165943 -0.12849121 
-0.02597419 -0.30747998 -0.16065589 
0.0047584265 -0.3315357 -0.16287751 
-0.0653687 -0.28201622 -0.15562373 
-0.055711582 -0.31153947 -0.12334466 
-0.091429204 -0.27615955 -0.12241955 
0.0004952222 -0.34683132 -0.026049633 
-0.0378798 -0.3263126 -0.063778155 
0.0060282573 -0.3525159 -0.0785439 
-0.07515734 -0.28659254 -0.00017315586 
-0.07698478 -0.2944066 -0.07698974 
-0.07150607 -0.28225797 0.08805704 
-0.033540215 -0.3141051 0.1196486 
-0.06664227 -0.2822662 0.15974349 
-0.0652984 -0.27942732 0.22807452 
-0.035516992 -0.30271864 0.27743515 
-0.06651948 -0.27618793 0.2726571 
-0.024950016 -0.31508577 0.19561532 
-0.14982736 -0.19557488 -0.12568872 
-0.14284542 -0.16272804 -0.16007441 
-0.12635346 -0.20893128 -0.15539262 
-0.14083713 -0.20843971 -0.02947826 
-0.17087346 -0.16128777 -0.072321184 
-0.1410146 -0.2148985 -0.083932504 
-0.21614707 -0.06206661 -0.11396427 
-0.20729207 -0.020545108 -0.1563035 
-0.19596237 -0.07326714 -0.1528672 
-0.19204912 -0.11349578 -0.1225721 
-0.15619883 -0.040888667 -0.17303067 
-0.1683447 -0.11057702 -0.15928997 
-0.212684 -0.070189685 -0.031229293 
-0.23055625 -0.026342243 -0.059359908 
-0.21695548 -0.06770478 -0.07155848 
-0.20195165 -0.10048388 -0.07226889 
-0.20607013 -0.07267554 0.028686062 
-0.19105256 -0.11458503 -0.011816276 
-0.08751334 -0.17876515 -0.17466202 
-0.028908186 -0.23715201 -0.17661977 
-0.093134694 -0.24198377 -0.15845455 
-0.08730051 -0.037927873 -0.17584474 
-0.038498633 -0.10739528 -0.1755674 
-0.11652525 -0.106614865 -0.17509024 
-0.12277492 -0.23742628 -0.123307146 
-0.11102049 -0.25367534 -0.06384796 
-0.1368674 -0.20587046 0.031341236 
-0.115692794 -0.23962492 0.00042543124 
-0.16967005 -0.15321204 -0.13278297 
-0.033774097 -0.17254703 -0.18101746 
-0.23500538 0.0005238171 -0.1197861 
-0.18494742 -0.10444026 0.12582621 
-0.20020705 -0.076095566 0.084072545 
-0.18155134 -0.121235445 0.06448534 
-0.22042778 -0.027747378 0.069599494 
-0.20095482 -0.0651408 0.13757528 
-0.22044623 -0.014903694 0.14547443 
-0.17482375 -0.10233435 0.2737809 
-0.19832501 -0.060335852 0.2069884 
-0.17513075 -0.113506846 0.19756919 
-0.21804437 -0.010507835 0.21595737 
-0.19639602 -0.054981664 0.27540773 
-0.21514973 -0.0076044532 0.28510755 
-0.10994746 -0.2388221 0.06375788 
-0.13097313 -0.2033953 0.11537806 
-0.13354701 -0.20551676 0.071454905 
-0.094552174 -0.24032742 0.26925695 
-0.12354156 -0.20572811 0.19327655 
-0.09207833 -0.25029933 0.19784157 
-0.037764773 -0.040205453 0.13890082 
-0.015054578 -0.06499335 0.08479223 
-0.039218675 -0.026116513 0.0651738 
-0.050452247 -0.03470399 0.26897925 
-0.018184625 -0.072701626 0.19610128 
-0.04943099 -0.030221231 0.20260118 
-0.06929439 0.0023563216 0.23170856 
-0.07490913 0.008185966 0.2849559 
-0.15250982 -0.17520535 0.0726048 
-0.15852009 -0.1544238 0.1418269 
-0.14871518 -0.16257197 0.2148557 
-0.12821145 -0.1909897 0.25983518 
-0.15014544 -0.1511687 0.27369013 
-0.10054512 -0.24393849 0.13680188 
-0.0073179724 -0.08010924 0.12584586 
-0.036166757 -0.31685817 0.054031588 
-0.22355226 -0.034344465 0.0019310766 
-0.0069632344 -0.06654908 0.031338178 
-0.025938377 -0.03467141 0.0025613885 
-0.16356975 -0.16503139 0.009119204 
-0.16994521 -0.09577143 0.39397717 
-0.1937574 -0.051677227 0.34216905 
-0.17660995 -0.090723224 0.32964087 
-0.21217854 -0.004568741 0.35391986 
-0.1913231 -0.047482736 0.41191 
-0.21037465 0.0010871039 0.4201367 
-0.16574407 -0.09283192 0.48054045 
-0.18395898 -0.044244677 0.5423794 
-0.19486043 -0.030553892 0.47647142 
-0.20435236 0.0019016856 0.5231246 
-0.2107011 0.010536246 0.4726832 
-0.085744895 -0.23782009 0.40916735 
-0.11771151 -0.19817974 0.3338091 
-0.08638182 -0.24495912 0.34105146 
-0.061296925 -0.27251494 0.3716073 
-0.09754823 -0.20526062 0.5561738 
-0.122507215 -0.17277066 0.4937469 
-0.09171082 -0.22162023 0.48541763 
-0.06524858 -0.24936771 0.5540386 
-0.046779267 -0.053615943 0.41149545 
-0.01565255 -0.08846497 0.352998 
-0.046676803 -0.04796665 0.34214905 
-0.06818122 -0.017308539 0.3940264 
-0.07183801 -0.003745163 0.33841693 
-0.04544878 -0.06625022 0.542724 
-0.021373281 -0.09431726 0.5069181 
-0.04821563 -0.05685065 0.4826187 
-0.07393914 -0.018719796 0.5402056 
-0.07324499 -0.012279902 0.45613354 
-0.15053375 -0.13919851 0.35208446 
-0.11944405 -0.1857636 0.41798973 
-0.1449445 -0.13956822 0.43604565 
-0.14107955 -0.13573003 0.5278213 
-0.14314839 -0.13766104 0.48384786 
-0.058227573 -0.26449972 0.48235506 
-0.01411039 -0.09616555 0.43251777 
-0.13571225 -0.13649897 0.588362 
-0.12146427 -0.16695243 0.5577589 
-0.15124129 -0.076924056 0.6710777 
-0.17320552 -0.048703697 0.61798745 
-0.14706518 -0.10391413 0.6271179 
-0.081303306 -0.20569436 0.6740796 
-0.10913813 -0.17388687 0.6265577 
-0.07599303 -0.22627641 0.62198097 
-0.049632818 -0.24092057 0.69050425 
-0.035383545 -0.21890533 0.7492945 
-0.033147164 -0.18173873 0.77466804 
-0.035088703 -0.1673839 0.7553477 
-0.06909843 -0.1370708 0.7691854 
-0.08403588 -0.15416431 0.73569703 
-0.06582214 -0.19741121 0.72198296 
-0.049485307 -0.067012735 0.60988235 
-0.028682347 -0.10519222 0.6707952 
-0.018919129 -0.10800199 0.6191795 
-0.062179256 -0.06245218 0.6842824 
-0.08393475 -0.013749339 0.62528265 
-0.09806606 -0.012262408 0.70286727 
-0.09117508 -0.085079804 0.7757438 
-0.11426523 -0.038777903 0.7593775 
-0.10501768 -0.10360419 0.7481742 
-0.07501953 -0.06756754 0.74336326 
-0.06046173 -0.1167768 0.7697319 
-0.042594414 -0.11048188 0.7291656 
-0.088083446 -0.06872116 0.7743553 
-0.11273992 -0.03648136 0.77998817 
-0.12221339 -0.12555751 0.6851986 
-0.14018258 5.5569148e-05 0.7715176 
-0.15306649 -0.013086447 0.73759985 
-0.1374174 -0.06722313 0.72039795 
-0.13056044 -0.13585298 0.631645 
0.007783127 -0.13712172 0.64929813 
-0.16667548 -0.030099222 0.6854104 
-0.09502663 -0.17400849 0.6925323 
-0.0021957248 -0.14650768 0.70886445 
-0.027453968 -0.30096698 0.39288223 
-0.037752137 -0.29713207 0.3396666 
-0.06503053 -0.27399197 0.31343699 
-0.017898712 -0.29583055 0.5523113 
-0.022805437 -0.29960302 0.4603483 
-0.053720526 -0.275365 0.42502087 
-0.02045869 -0.27842462 0.6793282 
-0.04269617 -0.2661139 0.6233266 
-0.010196019 -0.2953679 0.63523924 
-0.0090775145 -0.26862156 0.73713803 
-0.0044979737 -0.23547445 0.7741944 
-0.15850371 -0.094956726 0.56420034 
-0.022642303 -0.09813061 0.5680281 
-0.24946024 0.0633061 -0.12552767 
-0.23651014 0.0959056 -0.15564631 
-0.22206593 0.042720363 -0.15777752 
-0.19556054 0.10325278 -0.17207718 
-0.17302705 0.035746735 -0.17450833 
-0.2505342 0.04438903 -0.06865461 
-0.26067227 0.11569217 -0.01746593 
-0.26160914 0.10916351 -0.08970645 
-0.23306274 0.15962306 -0.154573 
-0.25404614 0.2111484 -0.121081755 
-0.22257817 0.23428997 -0.15813103 
-0.16973174 0.182291 -0.17578617 
-0.26450476 0.18734956 -0.022166159 
-0.2598998 0.23432973 -0.06959218 
-0.26476204 0.1705902 -0.07281128 
-0.05900792 0.10685748 -0.14299749 
-0.06122855 0.027206648 -0.16065899 
-0.079366356 0.1017507 -0.17240793 
-0.11280066 0.032342717 -0.17681593 
-0.0666877 0.07326721 -0.10044768 
-0.051455803 0.04142245 -0.1272494 
-0.0810528 0.09875466 -0.06104501 
-0.0809357 0.0757184 -0.0034544799 
-0.06989506 0.056783587 -0.051705934 
-0.056286357 0.017396063 0.0016968793 
-0.094444804 0.17297024 -0.179135 
-0.03206273 0.24072728 -0.17938942 
-0.04349139 0.1626252 -0.16812567 
-0.051448595 0.18748751 -0.09772074 
-0.06512411 0.15629452 -0.115223594 
-0.027429026 0.16771331 -0.13662782 
-0.070746034 0.18723917 -0.055350553 
-0.08619295 0.1601142 -0.0025184925 
-0.08188248 0.15012652 -0.068318784 
-0.039979726 0.20165728 -0.05091274 
-0.06349319 0.19818719 0.010426005 
-0.13367577 0.104615465 -0.17882803 
-0.122451335 0.2452372 -0.18004939 
-0.25452963 0.11593619 -0.1334048 
-0.07436648 0.117913574 -0.10476138 
-0.08868075 0.11962328 -0.017696127 
-0.2597332 0.1560511 -0.11832329 
-0.04988128 0.023148362 -0.07915054 
-0.07196139 0.17855582 -0.091894954 
-0.010716515 0.18885612 -0.09170682 
-0.24058133 0.038932487 0.095432855 
-0.2520067 0.10585728 0.13681453 
-0.25561446 0.10563685 0.06349054 
-0.23427625 0.044717193 0.23809141 
-0.24412781 0.10707575 0.27656054 
-0.24822 0.106566906 0.20702633 
-0.25799888 0.17351517 0.10603687 
-0.2549168 0.23960665 0.059158966 
-0.26166248 0.17654619 0.036269303 
-0.25060093 0.17326336 0.24547926 
-0.24814677 0.23865187 0.19787733 
-0.25436407 0.17321444 0.17593637 
-0.09233874 0.10723986 0.1149811 
-0.0802799 0.060708858 0.06348488 
-0.090533 0.11429174 0.0416403 
-0.07964556 0.044286817 0.13701504 
-0.06489341 0.017748937 0.07788998 
-0.09460585 0.09485946 0.19762334 
-0.08746983 0.046547025 0.25455725 
-0.08142063 0.036390834 0.20038882 
-0.06954856 0.20043449 0.13576388 
-0.08650763 0.16755514 0.07677658 
-0.062865056 0.20483583 0.0766544 
-0.03234975 0.21345028 0.109161615 
-0.07427519 0.20090449 0.2768029 
-0.09597103 0.15865612 0.23425919 
-0.07256588 0.19973445 0.20598719 
-0.032498825 0.21601515 0.24669659 
-0.10023026 0.1030051 0.27674603 
-0.23779231 0.042927213 0.16819783 
-0.25153002 0.23894346 0.12841427 
-0.064764604 0.0010279579 0.17295949 
-0.0922733 0.15969789 0.15973301 
-0.032849006 0.2143635 0.17652741 
-0.21172883 0.29530567 -0.1593301 
-0.21019568 0.33109993 -0.12468386 
-0.19426829 0.32967344 -0.16035521 
-0.15059835 0.34815505 -0.15287521 
-0.1642593 0.30301648 -0.17317116 
-0.24003291 0.2975301 -0.00046546615 
-0.20960316 0.34022766 -0.059492752 
-0.2429027 0.2937541 -0.06671669 
-0.20738113 0.34082425 0.008439354 
-0.16094097 0.3664117 -0.037927352 
-0.0480744 0.37268075 -0.1336692 
-0.08758888 0.35971475 -0.15597229 
-0.100286216 0.37330458 -0.12227525 
-0.09026644 0.31364185 -0.17416531 
-0.033537406 0.35259137 -0.15969509 
-0.018312162 0.31428778 -0.1757949 
-0.038029835 0.37629753 -0.021986308 
-0.101640165 0.3769388 -0.065365314 
-0.10112439 0.3754152 0.0016499743 
-0.1606856 0.36401597 -0.10192537 
-0.15992394 0.36474288 0.03067492 
-0.24194133 0.27523112 -0.12224027 
-0.03987602 0.3772183 -0.08686463 
-0.2340895 0.2964659 0.13768987 
-0.20537822 0.33943617 0.07762435 
-0.2369726 0.29723737 0.068337224 
-0.2037125 0.33780158 0.1468258 
-0.15949892 0.36236763 0.100227535 
-0.22828129 0.29513294 0.2764844 
-0.20201159 0.33621076 0.21567774 
-0.23124853 0.29570088 0.20707083 
-0.1997231 0.3349728 0.28436327 
-0.16010645 0.35787946 0.23398915 
-0.029334053 0.3676241 0.12884188 
-0.10003893 0.37239015 0.07268168 
-0.10330061 0.3695541 0.1442889 
-0.10499591 0.365452 0.26173076 
-0.049537443 0.3660537 0.21467252 
-0.11585878 0.3673302 0.20161489 
-0.16077185 0.360043 0.16787021 
-0.15726042 0.35594976 0.30129486 
-0.1818245 0.25395685 -0.1747252 
-0.25819474 0.24062347 -0.007907623 
-0.24470405 0.23846623 0.26734948 
-0.24274918 0.029411664 0.010459346 
-0.032306768 0.21175157 0.046324305 
-0.036703266 0.37293428 0.04766509 
-0.2264941 0.048002493 0.37618524 
-0.23522222 0.108187005 0.4153274 
-0.23977059 0.10761706 0.34597895 
-0.21831495 0.04805118 0.5048301 
-0.22305378 0.098648384 0.5610641 
-0.23029509 0.107097745 0.48526594 
-0.24249129 0.17386281 0.3848573 
-0.24105498 0.23868647 0.33708876 
-0.24667315 0.17338736 0.31498608 
-0.23266876 0.173257 0.5308884 
-0.23038319 0.249356 0.4897793 
-0.23784134 0.1750364 0.45650858 
-0.12395507 0.19007322 0.5212259 
-0.13603835 0.16855557 0.5513675 
-0.13242757 0.16725 0.5160916 
-0.10410806 0.10431731 0.34997076 
-0.090765014 0.03721697 0.39915687 
-0.09062976 0.046922002 0.32049277 
-0.11835281 0.10044773 0.50441015 
-0.10648993 0.04739545 0.5652237 
-0.09772616 0.042689055 0.4831794 
-0.08136779 0.20477813 0.41977692 
-0.10371991 0.1634486 0.37653607 
-0.075341254 0.20267281 0.3487837 
-0.022975821 0.22056216 0.4016379 
-0.041921064 0.22443603 0.48961568 
-0.09578832 0.21797708 0.55304146 
-0.10047641 0.20135555 0.480631 
-0.13154066 0.14000276 0.5288414 
-0.12933168 0.19470349 0.5688438 
-0.12268259 0.15758774 0.48333356 
-0.11102922 0.11132314 0.42983717 
-0.22282861 0.050097466 0.44228053 
-0.23658344 0.24102812 0.40873113 
-0.10996066 0.17160824 0.43377584 
-0.13675621 0.13389167 0.5816704 
-0.12578079 0.10284974 0.55609787 
-0.19861625 0.06634161 0.6655763 
-0.21579683 0.11009541 0.6353102 
-0.20907432 0.051492125 0.6082433 
-0.19071831 0.0095659 0.6438962 
-0.17314342 0.10057441 0.7055757 
-0.17851791 0.027876325 0.70104563 
-0.16521174 0.04488842 0.74950373 
-0.15849835 0.063580826 0.76388144 
-0.17298898 0.0997619 0.7409334 
-0.21484315 0.1692528 0.67587197 
-0.22090499 0.23157986 0.64245725 
-0.22608677 0.1709188 0.60496473 
-0.12790759 0.20369817 0.620737 
-0.15318131 0.16681486 0.6696942 
-0.14139241 0.16825254 0.60682905 
-0.17844515 0.1733092 0.7230211 
-0.19594967 0.2240083 0.728405 
-0.20364995 0.18730727 0.71715903 
-0.13768922 0.078537 0.6760963 
-0.11218791 0.037616085 0.6459373 
-0.1279409 0.0886012 0.61087203 
-0.14317597 0.04581341 0.7690337 
-0.12546915 0.021939363 0.74676347 
-0.14740711 0.06834264 0.7361649 
-0.028221125 0.24241656 0.64668393 
-0.0806847 0.24263191 0.6841495 
-0.087630235 0.23096527 0.62778574 
-0.03544819 0.26844117 0.7601392 
-0.092782095 0.2847165 0.776147 
-0.10102686 0.25613758 0.7384764 
-0.14617664 0.12474178 0.6428363 
-0.15060687 0.035809584 0.7755151 
-0.13181081 0.00836989 0.7757653 
-0.13272423 0.21882871 0.69097257 
-0.139396 0.27746838 0.7642448 
-0.16480237 0.24618453 0.7393111 
-0.19516954 0.13933824 0.71610093 
-0.20320842 0.11471769 0.68443453 
-0.21112797 0.22971006 0.69795966 
-0.12279518 0.04006876 0.70307827 
-0.030439131 0.2526505 0.7108146 
-0.21782511 0.3037807 0.4193516 
-0.19641408 0.3354578 0.35136768 
-0.2246346 0.2959645 0.34634683 
-0.19041589 0.33981112 0.40324426 
-0.15575048 0.35456192 0.36719674 
-0.195488 0.33108482 0.51056725 
-0.16168445 0.34484977 0.5440188 
-0.16804397 0.34732908 0.48300564 
-0.21351257 0.29866874 0.5478405 
-0.21515763 0.3068583 0.48384362 
-0.19567281 0.33408836 0.45406365 
-0.10344097 0.36036143 0.40148234 
-0.04345417 0.36066043 0.3693207 
-0.10226962 0.36301738 0.3314996 
-0.102450036 0.35429475 0.5589639 
-0.045826774 0.35567254 0.51323634 
-0.11226989 0.3563684 0.48004985 
-0.15810457 0.35203415 0.42984843 
-0.045247123 0.3580948 0.44078207 
-0.18059295 0.31404328 0.678679 
-0.1491822 0.34311247 0.61636674 
-0.18955591 0.32434088 0.5973462 
-0.21139453 0.28537473 0.62129617 
-0.20854022 0.27267575 0.67573464 
-0.1315561 0.30739617 0.7727349 
-0.13787702 0.330792 0.7340938 
-0.16661112 0.29470226 0.74399275 
-0.09432419 0.34842882 0.69243246 
-0.04487811 0.35119462 0.6477267 
-0.09753053 0.35230228 0.62785256 
-0.058459327 0.33215445 0.7789388 
-0.011697707 0.32423908 0.7719411 
-0.03842414 0.34046164 0.75368357 
-0.08636677 0.34241256 0.7513038 
-0.09113323 0.3341838 0.78009343 
-0.08451841 0.31464803 0.7870828 
-0.034888856 0.3131724 0.78813964 
-0.1376552 0.34242737 0.6740957 
-0.11447145 0.33020258 0.77337205 
-0.19422185 0.26910144 0.7184661 
-0.04247438 0.34679633 0.70937717 
-0.035900883 0.29085886 0.7851943 
-0.21226725 0.03798429 0.5557045 
-0.19809994 0.0005599192 0.5823763 
-0.22704636 0.23744418 0.57303226 
-0.033741295 0.2339853 0.57484627 
-0.19405895 0.32927728 0.5519154 
-0.04553202 0.3538351 0.58250487 
0.102070786 -0.35308897 -0.1506927 
0.054385297 -0.36211485 -0.11231412 
0.04549116 -0.3421799 -0.15817651 
0.10908931 -0.31219763 -0.17260239 
0.04542651 -0.36201823 -0.046966128 
0.08917094 -0.36049843 0.0147444615 
0.034317445 -0.35647982 0.006508668 
0.16514929 -0.31395015 -0.15944082 
0.14924777 -0.34534776 -0.13589795 
0.13665219 -0.33892798 -0.16216515 
0.20025574 -0.2824164 -0.15307361 
0.19225341 -0.31313533 -0.11577924 
0.18949518 -0.3182255 -0.022649677 
0.15844336 -0.34444392 -0.07699041 
0.19287425 -0.31894714 -0.06966699 
0.21743917 -0.2828634 -0.055768218 
0.113454565 -0.36217365 -0.11377825 
0.101872 -0.36326748 -0.06100823 
0.14832112 -0.3464818 -0.0051080585 
0.039767258 -0.35319853 0.07018676 
0.0073628076 -0.3381967 0.13385773 
-0.004211305 -0.3358251 0.08171291 
0.09643121 -0.35803986 0.09461059 
0.052523233 -0.35367858 0.1418962 
0.05576439 -0.351785 0.20907196 
0.011673287 -0.33377162 0.24991791 
0.01894651 -0.3410174 0.18846631 
0.101650044 -0.3527385 0.23605542 
0.05484495 -0.34835798 0.2795204 
0.18221721 -0.31264472 0.1314224 
0.14415002 -0.34499538 0.06824353 
0.18531126 -0.31618446 0.04800397 
0.21164921 -0.27790225 0.09070547 
0.18240726 -0.30299428 0.26555526 
0.15014282 -0.33548552 0.20064214 
0.18740222 -0.30279538 0.20168719 
0.13832083 -0.34671962 0.13039881 
0.100392856 -0.3555668 0.16480905 
0.14350994 -0.33697906 0.28150555 
0.100430906 -0.35135287 0.30788845 
0.20779733 -0.2759879 0.17528099 
0.046130706 -0.22539021 -0.18261103 
0.102460906 -0.17337063 -0.18025339 
0.10483052 -0.24521245 -0.18123263 
0.052863613 -0.12089275 0.0046603316 
0.07629999 -0.11663692 -0.041717008 
0.058870967 -0.12071222 -0.06111519 
0.014434207 -0.07409756 -0.12190287 
0.030955352 -0.10175837 -0.1550133 
-0.0071906103 -0.06661187 -0.15527323 
0.09250192 -0.10416874 -0.16377375 
0.106542446 -0.042173862 -0.12805897 
0.13462296 -0.045433 -0.16609874 
0.07161932 -0.09794504 -0.12325565 
0.04261329 -0.09949629 -0.11795132 
-0.00032321102 -0.06481394 -0.028026745 
0.03171113 -0.09724404 -0.065372884 
0.00061732857 -0.058046885 -0.080641046 
0.09702735 -0.08548861 -0.016606946 
0.11106579 -0.023852028 -0.05910202 
0.090073496 -0.08579449 -0.07882655 
0.22235537 -0.16697764 -0.15710866 
0.24334985 -0.20645726 -0.12027235 
0.21237451 -0.23376718 -0.15753712 
0.16772705 -0.19713408 -0.17606163 
0.16530679 -0.26450175 -0.17314947 
0.25695223 -0.1686318 0.0004351423 
0.24438106 -0.22513816 -0.06328451 
0.2595133 -0.16227931 -0.0650437 
0.25748315 -0.032114655 -0.1258394 
0.23899576 -0.097089395 -0.14947961 
0.22594327 -0.032994334 -0.16152252 
0.17293537 -0.1043859 -0.1726127 
0.2666086 -0.033696584 -0.008855863 
0.26612777 -0.096493304 -0.065569684 
0.26702446 -0.031605016 -0.07249208 
0.024927821 -0.16183478 -0.17851123 
0.056683246 -0.11245365 -0.09558235 
0.07172994 -0.11457543 -0.08526489 
0.25504708 -0.14205264 -0.11862624 
0.26477864 -0.10190696 -0.0018217298 
0.26221302 -0.08427937 -0.112299435 
0.079636656 -0.12374741 0.11763728 
0.051043645 -0.12712157 0.08929833 
0.051763885 -0.13040602 0.1612382 
0.08416742 -0.12802595 0.26012537 
0.053202644 -0.13378811 0.23171256 
0.059259567 -0.13797072 0.29036447 
0.10807281 -0.083507314 0.1469414 
0.12071243 -0.04095321 0.08701177 
0.098645546 -0.094060645 0.059761185 
0.10867557 -0.09287967 0.22865537 
0.12878421 -0.05425628 0.28159976 
0.12937823 -0.038302034 0.20920113 
0.24805215 -0.17243297 0.14115898 
0.23534371 -0.23052442 0.07610524 
0.25287876 -0.17002793 0.06980875 
0.24136613 -0.18131155 0.22022453 
0.22232246 -0.23458853 0.27139926 
0.22333027 -0.24186099 0.2076653 
0.20590037 -0.27334785 0.23260534 
0.20424286 -0.2719159 0.2738703 
0.26017007 -0.035190377 0.12824948 
0.26145312 -0.103304446 0.06665149 
0.2636935 -0.03491199 0.059299897 
0.25277084 -0.035410933 0.26768774 
0.2536033 -0.105323106 0.20766969 
0.25644025 -0.035270676 0.19768356 
0.14356762 -0.003429837 0.27973717 
0.019400276 -0.10908848 0.14082378 
0.017184779 -0.099533886 0.06707583 
0.07485305 -0.12648688 0.056364127 
0.25769326 -0.1038865 0.13636461 
0.023047615 -0.12079091 0.29468912 
0.01866669 -0.113061786 0.21422309 
0.08221548 -0.12447713 0.19034198 
0.25005358 -0.104991995 0.2807352 
0.12742871 -0.032690823 0.14406304 
0.22789621 -0.23824143 0.14690997 
0.13872686 0.0036583885 0.17140362 
0.033452865 -0.2926163 -0.1763778 
0.22459269 -0.26409405 -0.1181826 
0.23991513 -0.22986165 0.0050500096 
0.20941247 -0.27779168 0.13487212 
0.00021484568 -0.34184608 0.030899104 
0.21562526 -0.27893978 0.021004109 
0.11555444 -0.03590821 0.016815044 
0.01981669 -0.09384935 0.00097139896 
0.081451766 -0.11806485 0.010913651 
0.05552981 -0.34615046 0.35218748 
0.014125803 -0.327096 0.40872747 
0.0051952973 -0.32564408 0.33112732 
0.0999627 -0.34995613 0.37827784 
0.05809103 -0.34515998 0.42328304 
0.062359102 -0.34514964 0.49092993 
0.034399517 -0.3319816 0.5501832 
0.019544898 -0.32675016 0.48177445 
0.1007043 -0.34805518 0.5133615 
0.07052532 -0.34653765 0.5457911 
0.1706894 -0.30684876 0.4085545 
0.14012894 -0.33699232 0.3533874 
0.17459211 -0.30716425 0.33789897 
0.15737918 -0.312338 0.5390609 
0.13496077 -0.3360883 0.49066985 
0.16618103 -0.30640158 0.48003912 
0.13778645 -0.3361172 0.42323053 
0.1000409 -0.3487931 0.44729722 
0.13155481 -0.33575308 0.5555879 
0.09992076 -0.34689838 0.5759605 
0.06651176 -0.33495647 0.6804571 
0.024079531 -0.32074416 0.6213299 
0.06456973 -0.34155464 0.60347 
0.100099176 -0.34355196 0.637871 
0.0585861 -0.32373032 0.748527 
0.0529548 -0.29703653 0.77778256 
0.026247757 -0.29888457 0.75296503 
0.084288254 -0.3123448 0.7745354 
0.09302381 -0.32896906 0.7398747 
0.11034657 -0.2967813 0.7535461 
0.078999 -0.32883346 0.7689205 
0.069775715 -0.32196873 0.7764968 
0.15229452 -0.30549586 0.6087094 
0.12917142 -0.3287071 0.66027975 
0.12587005 -0.33737206 0.6091799 
0.10523136 -0.33784583 0.6904259 
0.12445283 -0.31739506 0.7135925 
0.018593933 -0.30733392 0.6966176 
0.13684632 -0.27288908 0.72490484 
0.09016973 -0.128682 0.40689477 
0.05349171 -0.13710079 0.35010493 
0.049728602 -0.13948128 0.42014128 
0.03862398 -0.1423359 0.5404031 
0.07946966 -0.13866797 0.49355087 
0.039494563 -0.140901 0.4743509 
0.11340109 -0.10136454 0.3608775 
0.13304195 -0.06509206 0.387224 
0.12792149 -0.06782593 0.3349342 
0.2381804 -0.16654834 0.37644768 
0.22052622 -0.22097683 0.41625273 
0.22280341 -0.22418335 0.34518623 
0.199062 -0.26819074 0.38518223 
0.20211825 -0.27013946 0.31732798 
0.23277333 -0.15985501 0.5151825 
0.21873663 -0.19919407 0.5610471 
0.21777442 -0.21650913 0.48956358 
0.1873104 -0.26105696 0.5521784 
0.19535339 -0.26603004 0.4584747 
0.24582055 -0.03496732 0.4076321 
0.24713042 -0.10301351 0.35281837 
0.24928996 -0.0352375 0.3378055 
0.14171255 -0.06265074 0.49658686 
0.15493181 -0.022387737 0.5345726 
0.15106271 -0.022421792 0.4708984 
0.23679288 -0.034194104 0.54704 
0.2401886 -0.101137556 0.49220493 
0.24190226 -0.03467446 0.4773451 
0.14334884 -0.021003224 0.35186845 
0.13668267 -0.067143634 0.44454658 
0.12064552 -0.09716298 0.41602904 
0.14098993 -0.072796196 0.5495924 
0.120198354 -0.10337469 0.4809148 
0.11821557 -0.1159906 0.55809677 
0.01772793 -0.121782154 0.37566304 
0.08591852 -0.12987678 0.32747403 
0.2439043 -0.102139086 0.42289984 
0.009709656 -0.1238127 0.48657376 
0.23540604 -0.099039525 0.5596247 
0.23534921 -0.16459408 0.44665533 
0.14557466 -0.030547757 0.4157769 
0.01927726 -0.1280218 0.4341678 
0.11588582 -0.18734178 0.6880584 
0.13453014 -0.20910528 0.6729002 
0.10334234 -0.17019507 0.6508554 
0.05685051 -0.16820301 0.6844907 
0.047919266 -0.15332997 0.6155662 
0.010739248 -0.20761639 0.77502066 
0.06516932 -0.22371073 0.76675534 
0.03386681 -0.18426801 0.74247557 
0.08029171 -0.27202392 0.77597183 
0.036734812 -0.25165653 0.7828618 
0.10795343 -0.18753628 0.7243753 
0.1136066 -0.24305017 0.7473208 
0.15380898 -0.22990757 0.69433403 
0.13642572 -0.2069349 0.67329013 
0.16570564 -0.24344128 0.6471245 
0.20534465 -0.16707426 0.6867564 
0.20257562 -0.21182653 0.6253742 
0.22101769 -0.15961057 0.62539655 
0.1878367 -0.21376316 0.6766244 
0.18004829 -0.19777107 0.7142439 
0.15718824 -0.1753164 0.7310525 
0.14791933 -0.2221322 0.72486264 
0.14430082 -0.08030387 0.61776996 
0.16643289 -0.03161788 0.66373324 
0.15869658 -0.026888663 0.59925914 
0.22007206 -0.03700729 0.67647916 
0.22800705 -0.099325165 0.6232703 
0.22951554 -0.033863172 0.61567163 
0.19908695 -0.10491594 0.7202669 
0.18392071 -0.045806803 0.71591955 
0.17216271 -0.11878149 0.72933257 
0.12952338 -0.21366248 0.7098173 
0.1515007 -0.097504966 0.6875624 
0.12311649 -0.12762582 0.6298766 
0.12460579 -0.1495457 0.68652487 
0.21659106 -0.10252449 0.68080646 
0.1882455 -0.1550253 0.72674155 
0.13837968 -0.20121351 0.7081297 
0.20685163 -0.040449858 0.71618974 
0.14301115 -0.14285117 0.7212295 
0.14699301 -0.28950885 0.67874956 
0.08663489 -0.14690132 0.5794207 
0.23037821 -0.14904058 0.5735346 
0.007131242 -0.12959285 0.5896021 
0.0014326195 -0.12072054 0.5388114 
0.13425197 0.037279382 -0.159709 
0.099529326 0.09299123 -0.1333603 
0.1048635 0.116096005 -0.16750962 
0.0665295 0.1400859 -0.15163407 
0.0722941 0.14877701 -0.17176956 
0.122403264 0.035237655 -0.01026636 
0.10455637 0.085276954 -0.07113903 
0.11689951 0.032277286 -0.06584889 
0.048506185 0.22941405 -0.17997882 
0.09869707 0.1744284 -0.17796615 
0.025820505 0.17881739 -0.1670155 
0.03720902 0.18511558 0.000672714 
-0.000559486 0.1992189 -0.037435636 
0.03462985 0.17523308 -0.07132691 
0.07564607 0.14385395 -0.04241672 
0.22452872 0.0892616 -0.15683134 
0.24894732 0.029101223 -0.14120457 
0.21955574 0.024726655 -0.16746756 
0.18618733 0.049579374 -0.17300093 
0.25604022 0.09710525 -0.06995619 
0.2640766 0.03472916 -0.029522292 
0.26339692 0.031530857 -0.092554905 
0.21566269 0.2023606 -0.11234191 
0.20820993 0.16262335 -0.15614611 
0.19559291 0.21507645 -0.1528736 
0.1866304 0.25013828 -0.12154883 
0.16417962 0.24999587 -0.15857556 
0.16225673 0.19425103 -0.17287105 
0.21329603 0.20647189 -0.026959863 
0.23485656 0.16546163 -0.058662985 
0.21610153 0.20772958 -0.06828083 
0.19394824 0.24101967 -0.06269641 
0.19194967 0.23565906 -0.001152839 
0.21016023 0.2012884 0.031581324 
0.229902 0.16914994 0.0026539364 
0.1629726 0.116327465 -0.17316213 
0.12874916 0.07252355 0.038377717 
0.13306078 0.04068379 0.03564269 
0.11022441 0.2504973 -0.17548902 
0.07001902 0.13776816 -0.10526407 
0.23896083 0.13924587 -0.11859776 
0.10840762 0.10357174 -0.001647294 
0.25066882 0.10741499 0.0043871393 
0.11386405 0.031075142 -0.10835972 
0.027031716 0.16768283 -0.12643324 
0.25376055 0.08213944 -0.119644836 
0.046810012 0.18666536 0.07330413 
0.010136489 0.20705087 0.13024065 
0.0062825885 0.20566136 0.0634481 
0.080599345 0.16298604 0.0889446 
0.053557582 0.18823624 0.14194512 
0.06762266 0.18903631 0.2194947 
0.01746793 0.21119708 0.2737239 
0.013847276 0.20868501 0.20072876 
0.11852984 0.17716151 0.27694377 
0.064143635 0.19809304 0.2988047 
0.13725138 0.047290094 0.081884496 
0.13812038 0.08947325 0.13575736 
0.13328885 0.083133616 0.079442024 
0.25267395 0.086319655 0.07273014 
0.2583949 0.031239253 0.10705376 
0.2615558 0.033043496 0.039460383 
0.14857538 0.05535511 0.2012802 
0.1596049 0.10766336 0.25584707 
0.15069902 0.11056051 0.20083548 
0.24053612 0.09544549 0.19878668 
0.24983606 0.032321617 0.24377784 
0.25410435 0.032352723 0.17456622 
0.18308473 0.23741446 0.063712 
0.19207968 0.20039839 0.14843717 
0.20949605 0.19157526 0.08845861 
0.2250818 0.15079607 0.1405691 
0.15710913 0.22797626 0.2633768 
0.16403988 0.16706795 0.22762677 
0.1622646 0.23843756 0.18945056 
0.20632425 0.1387249 0.28176597 
0.16735756 0.16334248 0.29676104 
0.13445741 0.0028458778 0.11219458 
0.12991862 0.0076043373 0.0520486 
0.11441481 0.12000565 0.07714309 
0.12304319 0.12688825 0.13320695 
0.11570999 0.16635925 0.20823498 
0.098636 0.15736149 0.14706615 
0.23354208 0.14764859 0.067142725 
0.24656007 0.09457007 0.13040638 
0.21413311 0.14592272 0.21105468 
0.23484275 0.093651354 0.26841444 
0.14173749 0.037787117 0.14029923 
0.1665922 0.25160468 0.12357359 
0.13298675 0.13683072 0.1758483 
0.08213243 0.34192705 -0.13079928 
0.09909079 0.31079897 -0.16252589 
0.068227015 0.33260185 -0.16368714 
0.02874697 0.34305057 -0.16041446 
0.016209703 0.36537695 -0.1171325 
0.044052936 0.2946289 -0.1765175 
0.07619385 0.3494505 -0.0649924 
0.11553788 0.32115835 -0.002443986 
0.12808189 0.31641322 -0.0800242 
0.06969662 0.35027605 0.0039466666 
0.021434654 0.36858183 -0.047605693 
0.020096608 0.36650044 0.018888306 
0.12508474 0.31609967 -0.13559687 
0.13680446 0.28812742 -0.1580885 
0.16069087 0.27781087 -0.012944942 
0.15554869 0.2884722 -0.12673466 
0.06568361 0.34534153 0.10964376 
0.101133585 0.32598543 0.07356201 
0.05976897 0.35183924 0.057207145 
0.021635419 0.36225086 0.082967326 
0.031879745 0.3561898 0.1381925 
0.06643844 0.34109503 0.16688313 
0.09611722 0.32547647 0.13793957 
0.023933072 0.35430163 0.20097624 
0.053438816 0.34168556 0.25840735 
0.06942892 0.3363403 0.2184137 
0.09507986 0.31637844 0.2667481 
0.13342975 0.29060662 0.14447948 
0.1346277 0.2804636 0.22556895 
0.10154274 0.317055 0.19391233 
0.16623764 0.2796263 -0.08169179 
0.14548561 0.28606343 0.065889716 
-0.0018234972 0.20615771 0.012680924 
0.08017557 0.15288116 0.027215932 
0.0679036 0.20267655 0.38157263 
0.026811361 0.21288191 0.3476782 
0.063503645 0.2014508 0.34240246 
0.097382635 0.18805079 0.3428707 
0.07222478 0.2055794 0.43958855 
0.11279495 0.18735096 0.4039026 
0.11581481 0.19186544 0.47842947 
0.08926968 0.21102807 0.55884814 
0.06809834 0.21154934 0.4958809 
0.024961598 0.2252416 0.53339076 
0.024137206 0.22032252 0.46387976 
0.15595303 0.043983854 0.34392455 
0.16275617 0.11249679 0.4067955 
0.1616068 0.10585438 0.32396212 
0.23033845 0.0920664 0.33777273 
0.24214318 0.03168311 0.38280278 
0.24584061 0.03192161 0.31330404 
0.16312239 0.0363442 0.5073725 
0.16903669 0.10069335 0.56043136 
0.16508853 0.10428168 0.48829967 
0.22269124 0.092738405 0.4773955 
0.23349485 0.032744024 0.52366966 
0.23833528 0.03179826 0.45253944 
0.15547645 0.21938914 0.34583217 
0.16058159 0.1739411 0.42182404 
0.15662956 0.16222972 0.35754007 
0.19912326 0.1378187 0.41688424 
0.1481505 0.2354727 0.4984324 
0.15901053 0.17576304 0.55171514 
0.16164038 0.17066878 0.4844674 
0.18848744 0.14838201 0.5510297 
0.13315386 0.18727311 0.53878915 
0.20228009 0.13667524 0.34956777 
0.226657 0.09167698 0.40689257 
0.19648822 0.14065082 0.485434 
0.21607932 0.098572016 0.5558361 
0.03409052 0.21514404 0.40866816 
0.15758112 0.030843504 0.42543703 
0.152298 0.2281687 0.4248004 
0.13080993 0.20477825 0.6753897 
0.10496615 0.2346604 0.63725793 
0.13620412 0.19031632 0.6090818 
0.04410036 0.24291538 0.68418384 
0.033846848 0.23359251 0.6069157 
0.027906157 0.25643146 0.7428318 
0.06008888 0.26458222 0.76031804 
0.018367758 0.27502847 0.7751775 
0.1845575 0.03375891 0.68737036 
0.1754386 0.089401245 0.63221025 
0.17194676 0.021451384 0.6338726 
0.2137128 0.08920045 0.6292876 
0.21822307 0.033767257 0.66665745 
0.22726321 0.032871857 0.595652 
0.20547178 0.05870623 0.7057581 
0.19916715 0.019021943 0.7210772 
0.21123508 0.0121275205 0.70984113 
0.13927306 0.20492873 0.666558 
0.16930053 0.15733302 0.61276335 
0.1437805 0.21553937 0.60536075 
0.19372916 0.12516272 0.6495247 
0.16179739 0.16044788 0.65976715 
0.10557911 0.2354404 0.6969347 
0.12418996 0.21816202 0.7092818 
0.122240975 0.21717253 0.7110369 
0.13965762 0.19944108 0.69480634 
0.20026693 0.12871844 0.603804 
0.19112904 0.094267994 0.68168133 
0.20699549 0.08698958 0.674186 
0.08637948 0.24250616 0.7285279 
0.19640107 0.05938174 0.7104143 
0.010819658 0.35230803 0.34419286 
0.056633238 0.33376035 0.38592106 
0.056560367 0.33690667 0.31647974 
0.09795056 0.3101316 0.34412774 
0.008549555 0.3476201 0.4848232 
0.054761175 0.3273883 0.528452 
0.055627376 0.3312539 0.45591664 
0.09656452 0.30535036 0.48401442 
0.097427204 0.3076402 0.41521 
0.13183881 0.27347738 0.37502396 
0.10031533 0.29519588 0.55470884 
0.12558796 0.2785673 0.50210524 
0.009838794 0.34999317 0.41429368 
0.12957239 0.2748837 0.44546062 
0.0038270326 0.33925402 0.6721511 
0.051105745 0.32005847 0.6167908 
-0.0025208218 0.3455215 0.6145797 
0.083931915 0.27983963 0.67132235 
0.044699587 0.3130675 0.7011065 
0.047836103 0.28335506 0.7707717 
0.032607734 0.30710402 0.7554862 
0.008480554 0.298621 0.78218293 
0.00087656814 0.3331003 0.7317852 
0.07349603 0.27582872 0.73420036 
0.13284601 0.26504135 0.53996885 
0.09654605 0.2820686 0.6157486 
0.12448464 0.2594555 0.58688784 
0.16747145 0.033380985 0.57676995 
0.14570749 0.23438734 0.5571941 
0.0063211313 0.3451116 0.55602956 
-0.024591714 -0.02129051 -0.12310357 
-0.04001583 -0.03937956 -0.16437274 
-0.025498234 -0.024490312 -0.05334969 
-0.015975097 -0.08210182 0.27724397 
-0.03088624 -0.32585257 -0.00047743903 
0.017478889 -0.27302802 0.7733742 
-0.028761858 0.20881964 -0.005221374 
0.011600807 0.35467833 0.27362707 
-0.04386424 0.363146 0.2976173 
-0.03011252 0.2179059 0.31917626 
-0.059408747 -0.0011891518 0.119897485 
0.17959297 -0.013461404 -0.1734246 
0.14367335 0.010134565 0.22559974 
0.15386435 0.050035805 0.27280957 
-0.23042756 0.046180192 0.30745047 
-0.09944244 0.16059296 0.30627263 
0.11014088 -0.09924358 0.2971338 
0.2403358 -0.1702429 0.30397475 
0.13297579 0.27540952 0.30077288 
3 0 1 2 
3 3 4 5 
3 6 7 8 
3 7 9 10 
3 0 7 4 
3 4 10 5 
3 11 12 13 
3 14 15 16 
3 13 17 14 
3 18 19 20 
3 21 22 23 
3 24 25 26 
3 26 27 24 
3 26 28 29 
3 30 31 32 
3 33 30 32 
3 34 30 35 
3 36 37 38 
3 39 40 41 
3 20 42 18 
3 20 36 38 
3 43 21 23 
3 44 21 45 
3 28 41 29 
3 46 29 19 
3 36 40 47 
3 22 35 33 
3 18 22 46 
3 24 31 48 
3 24 33 32 
3 22 27 46 
3 42 23 18 
3 19 41 36 
3 49 50 51 
3 52 53 54 
3 55 56 57 
3 58 59 60 
3 61 62 63 
3 64 65 66 
3 67 68 69 
3 70 71 72 
3 70 73 74 
3 75 62 76 
3 77 78 79 
3 76 51 75 
3 79 57 77 
3 57 53 49 
3 54 56 58 
3 80 65 62 
3 67 71 81 
3 76 57 49 
3 76 65 77 
3 5 38 3 
3 3 37 1 
3 9 43 10 
3 5 43 42 
3 11 80 61 
3 14 64 66 
3 13 66 80 
3 9 82 11 
3 51 34 35 
3 34 52 83 
3 61 44 45 
3 69 84 85 
3 86 51 35 
3 44 75 86 
3 9 61 45 
3 87 88 89 
3 90 91 92 
3 93 94 95 
3 95 96 97 
3 98 99 100 
3 101 98 100 
3 102 103 104 
3 104 105 102 
3 106 107 108 
3 109 108 110 
3 111 112 113 
3 114 113 115 
3 116 117 118 
3 103 119 120 
3 116 87 89 
3 119 93 120 
3 93 91 87 
3 92 95 97 
3 104 117 98 
3 98 121 104 
3 113 122 106 
3 115 106 109 
3 118 93 87 
3 118 103 120 
3 123 119 124 
3 125 126 127 
3 128 129 130 
3 130 131 128 
3 132 133 134 
3 134 135 136 
3 134 137 132 
3 138 139 140 
3 141 142 143 
3 144 145 146 
3 147 148 149 
3 150 145 151 
3 150 144 148 
3 127 152 125 
3 145 153 154 
3 145 155 146 
3 129 152 156 
3 139 157 140 
3 135 146 136 
3 148 134 149 
3 148 135 133 
3 155 158 125 
3 137 159 128 
3 131 137 128 
3 141 149 139 
3 147 143 145 
3 136 152 159 
3 149 160 139 
3 152 155 125 
3 161 101 162 
3 101 163 162 
3 164 121 165 
3 165 166 161 
3 167 168 169 
3 170 171 132 
3 170 131 167 
3 172 126 94 
3 102 129 124 
3 105 130 102 
3 138 173 111 
3 138 114 142 
3 129 123 124 
3 123 127 172 
3 164 168 105 
3 174 175 176 
3 176 177 178 
3 179 180 181 
3 182 183 184 
3 184 185 182 
3 186 187 188 
3 189 190 191 
3 192 191 190 
3 189 193 194 
3 195 196 197 
3 198 197 196 
3 199 200 201 
3 202 203 204 
3 205 206 207 
3 208 209 205 
3 178 210 192 
3 185 211 199 
3 212 182 175 
3 182 177 175 
3 201 189 191 
3 199 191 210 
3 189 203 213 
3 180 188 181 
3 207 214 195 
3 174 181 212 
3 188 183 215 
3 195 193 213 
3 216 193 197 
3 217 207 203 
3 218 202 204 
3 202 205 217 
3 181 215 212 
3 207 213 203 
3 185 210 177 
3 219 220 221 
3 222 223 224 
3 225 226 227 
3 228 229 230 
3 231 232 233 
3 234 235 232 
3 236 237 238 
3 239 240 241 
3 241 242 239 
3 243 244 245 
3 245 246 243 
3 221 225 227 
3 240 231 233 
3 224 228 230 
3 244 247 236 
3 248 224 220 
3 230 249 225 
3 236 234 231 
3 250 234 238 
3 245 251 239 
3 239 252 245 
3 220 230 225 
3 251 236 231 
3 253 254 255 
3 254 256 255 
3 255 257 253 
3 258 259 260 
3 261 262 259 
3 263 264 265 
3 266 267 268 
3 269 270 271 
3 265 256 272 
3 256 266 257 
3 271 262 273 
3 260 254 274 
3 259 272 254 
3 275 265 270 
3 270 272 262 
3 276 277 278 
3 279 280 277 
3 281 282 283 
3 284 285 282 
3 286 287 288 
3 289 290 291 
3 288 280 292 
3 289 285 293 
3 283 279 276 
3 282 292 279 
3 290 288 291 
3 291 292 285 
3 184 274 253 
3 253 294 184 
3 266 200 211 
3 295 260 187 
3 187 274 183 
3 257 211 294 
3 249 278 226 
3 296 283 229 
3 229 276 249 
3 297 221 180 
3 227 295 186 
3 233 196 214 
3 232 198 196 
3 209 240 206 
3 209 298 241 
3 180 227 186 
3 206 233 214 
3 278 261 258 
3 277 273 261 
3 299 271 287 
3 287 273 280 
3 226 258 295 
3 300 301 302 
3 303 304 305 
3 306 307 308 
3 309 310 311 
3 312 313 314 
3 315 316 317 
3 318 319 320 
3 321 322 323 
3 323 324 321 
3 325 326 327 
3 328 314 313 
3 312 326 329 
3 330 312 314 
3 302 306 308 
3 322 331 315 
3 305 309 311 
3 328 318 330 
3 332 305 301 
3 311 333 306 
3 331 320 316 
3 327 334 321 
3 321 325 327 
3 301 311 306 
3 330 331 334 
3 328 335 336 
3 337 338 339 
3 340 337 339 
3 341 337 342 
3 343 344 345 
3 346 347 348 
3 349 350 351 
3 352 353 354 
3 355 356 357 
3 358 359 360 
3 361 362 363 
3 364 365 366 
3 355 367 341 
3 344 360 345 
3 358 368 369 
3 363 370 349 
3 366 371 372 
3 338 346 348 
3 350 367 351 
3 352 373 345 
3 343 341 342 
3 341 373 374 
3 354 375 346 
3 370 352 350 
3 360 376 355 
3 377 366 362 
3 373 346 374 
3 352 341 350 
3 360 341 345 
3 370 366 372 
3 378 379 380 
3 381 382 379 
3 383 384 385 
3 386 383 387 
3 383 388 387 
3 389 390 391 
3 392 393 394 
3 389 382 395 
3 384 394 385 
3 378 388 381 
3 388 395 381 
3 394 396 389 
3 394 395 385 
3 397 398 399 
3 397 400 401 
3 402 403 404 
3 405 406 407 
3 408 409 410 
3 408 411 412 
3 408 413 414 
3 415 407 398 
3 416 411 403 
3 413 416 402 
3 397 403 415 
3 417 397 401 
3 411 418 405 
3 403 405 415 
3 333 380 307 
3 310 386 387 
3 310 378 333 
3 347 401 400 
3 371 404 372 
3 372 417 353 
3 419 413 365 
3 375 417 401 
3 365 402 371 
3 339 304 420 
3 421 339 420 
3 348 422 309 
3 329 351 313 
3 357 319 336 
3 423 363 326 
3 304 348 309 
3 351 335 313 
3 357 335 367 
3 326 349 329 
3 399 384 424 
3 399 386 400 
3 407 425 392 
3 398 392 384 
3 422 400 386 
3 426 427 428 
3 428 429 426 
3 430 431 432 
3 433 434 435 
3 436 437 433 
3 438 439 440 
3 441 438 440 
3 426 434 442 
3 429 435 426 
3 443 444 431 
3 427 443 430 
3 437 439 434 
3 437 441 440 
3 442 439 443 
3 445 446 447 
3 448 449 445 
3 450 451 452 
3 453 454 450 
3 455 456 457 
3 458 455 457 
3 459 460 461 
3 448 462 463 
3 453 464 465 
3 449 452 446 
3 463 450 449 
3 455 460 462 
3 455 466 461 
3 463 460 453 
3 467 468 469 
3 470 471 472 
3 473 474 475 
3 476 477 478 
3 479 474 480 
3 481 482 483 
3 484 485 486 
3 487 488 489 
3 490 489 491 
3 492 493 494 
3 495 496 497 
3 498 497 496 
3 499 500 501 
3 469 490 491 
3 478 498 476 
3 502 476 468 
3 479 503 504 
3 496 505 487 
3 498 487 490 
3 482 470 472 
3 471 484 486 
3 506 494 500 
3 472 504 503 
3 473 482 480 
3 486 477 479 
3 494 488 505 
3 501 507 495 
3 482 503 480 
3 504 486 479 
3 500 505 507 
3 468 498 490 
3 508 509 510 
3 511 512 513 
3 514 515 516 
3 517 518 519 
3 520 521 522 
3 523 524 525 
3 526 524 527 
3 528 529 530 
3 531 532 533 
3 534 519 518 
3 535 509 536 
3 508 516 537 
3 538 522 529 
3 539 512 540 
3 511 517 541 
3 542 523 532 
3 541 510 512 
3 514 519 543 
3 523 544 520 
3 533 538 528 
3 540 510 535 
3 541 514 508 
3 532 520 538 
3 519 545 543 
3 546 469 429 
3 489 547 436 
3 491 436 433 
3 548 441 493 
3 493 547 488 
3 429 491 433 
3 544 458 521 
3 526 459 461 
3 466 526 461 
3 544 466 549 
3 445 550 432 
3 431 445 432 
3 457 444 438 
3 551 457 438 
3 431 456 448 
3 537 470 509 
3 516 552 484 
3 522 548 492 
3 530 506 499 
3 536 470 553 
3 554 516 484 
3 529 492 506 
3 521 551 548 
3 555 556 557 
3 558 559 555 
3 560 561 562 
3 563 564 560 
3 565 566 567 
3 568 569 570 
3 558 571 572 
3 563 573 574 
3 559 562 556 
3 572 560 559 
3 570 571 565 
3 572 569 563 
3 575 576 577 
3 578 575 577 
3 579 580 581 
3 582 583 584 
3 579 585 586 
3 582 586 585 
3 587 588 589 
3 578 588 590 
3 588 591 590 
3 579 592 575 
3 591 583 590 
3 575 583 579 
3 591 593 584 
3 594 595 596 
3 597 598 599 
3 600 601 602 
3 603 604 605 
3 605 606 607 
3 608 609 610 
3 610 611 612 
3 613 614 615 
3 616 617 618 
3 619 620 621 
3 601 622 602 
3 623 601 624 
3 625 626 627 
3 628 596 595 
3 594 600 629 
3 630 603 614 
3 631 597 599 
3 598 627 626 
3 632 608 620 
3 598 596 599 
3 633 610 604 
3 604 612 606 
3 623 618 634 
3 621 630 613 
3 635 599 596 
3 594 626 624 
3 620 633 630 
3 626 623 624 
3 636 637 638 
3 639 638 640 
3 641 642 643 
3 644 642 645 
3 646 642 647 
3 648 649 650 
3 651 652 653 
3 650 654 648 
3 655 656 657 
3 658 659 660 
3 661 662 663 
3 664 665 666 
3 648 637 667 
3 649 636 638 
3 649 637 650 
3 668 669 670 
3 638 670 669 
3 671 653 662 
3 672 666 656 
3 646 667 636 
3 646 639 643 
3 657 673 648 
3 651 655 654 
3 648 655 657 
3 668 665 659 
3 674 671 661 
3 646 670 636 
3 664 651 671 
3 657 667 647 
3 673 646 636 
3 675 668 670 
3 656 675 646 
3 606 567 607 
3 611 570 612 
3 612 565 606 
3 650 676 587 
3 644 584 647 
3 644 580 582 
3 648 593 676 
3 593 647 584 
3 577 561 564 
3 574 577 564 
3 587 573 568 
3 574 589 578 
3 640 677 597 
3 653 609 678 
3 611 652 650 
3 625 660 617 
3 663 632 619 
3 679 597 680 
3 677 669 627 
3 662 678 632 
3 658 627 669 
3 611 587 568 
3 681 682 683 
3 683 684 685 
3 686 687 688 
3 689 690 691 
3 692 693 694 
3 695 692 694 
3 696 697 698 
3 699 696 698 
3 700 701 702 
3 703 704 705 
3 706 705 707 
3 708 705 704 
3 709 710 711 
3 709 712 713 
3 709 714 715 
3 681 716 699 
3 717 686 718 
3 719 708 690 
3 684 691 685 
3 685 690 683 
3 720 684 682 
3 721 696 704 
3 716 704 696 
3 722 695 687 
3 710 723 700 
3 724 687 682 
3 720 694 725 
3 726 702 697 
3 703 710 721 
3 712 703 706 
3 687 720 682 
3 721 700 726 
3 690 716 683 
3 727 728 729 
3 730 731 727 
3 732 733 734 
3 732 735 736 
3 737 738 739 
3 740 741 742 
3 743 744 745 
3 746 747 748 
3 749 750 751 
3 752 751 750 
3 753 754 755 
3 756 754 757 
3 758 737 759 
3 760 738 761 
3 754 735 762 
3 760 763 730 
3 764 765 740 
3 744 754 745 
3 766 767 746 
3 731 734 728 
3 763 732 731 
3 743 738 768 
3 765 748 741 
3 755 750 769 
3 766 750 754 
3 770 763 761 
3 752 746 765 
3 738 770 761 
3 754 770 745 
3 771 772 773 
3 771 774 775 
3 776 773 772 
3 777 778 779 
3 780 781 782 
3 783 784 772 
3 785 779 778 
3 771 779 783 
3 777 775 781 
3 779 786 783 
3 787 788 789 
3 787 790 791 
3 787 792 793 
3 794 795 796 
3 797 796 795 
3 798 788 793 
3 797 799 800 
3 794 792 791 
3 800 792 796 
3 800 798 793 
3 776 719 689 
3 786 707 784 
3 785 712 801 
3 801 706 786 
3 719 784 707 
3 802 769 749 
3 799 753 755 
3 798 755 769 
3 692 729 803 
3 804 727 692 
3 737 717 718 
3 723 742 701 
3 749 714 713 
3 764 714 751 
3 760 804 722 
3 764 723 715 
3 759 718 686 
3 717 760 722 
3 780 788 778 
3 789 782 790 
3 802 778 788 
3 785 749 713 
3 805 806 807 
3 808 805 807 
3 809 805 810 
3 811 812 813 
3 813 814 815 
3 816 817 818 
3 819 820 821 
3 822 823 824 
3 825 826 827 
3 828 829 830 
3 831 830 829 
3 832 833 834 
3 835 834 833 
3 830 810 808 
3 834 836 811 
3 817 830 818 
3 837 838 819 
3 824 833 834 
3 839 840 825 
3 811 809 810 
3 809 815 841 
3 842 824 817 
3 838 827 820 
3 843 834 829 
3 839 829 834 
3 817 834 829 
3 831 825 838 
3 829 811 810 
3 844 845 846 
3 845 847 848 
3 849 850 851 
3 852 853 854 
3 855 856 857 
3 858 859 860 
3 861 862 863 
3 864 862 865 
3 846 865 844 
3 861 845 866 
3 867 868 869 
3 853 865 862 
3 864 855 870 
3 864 871 872 
3 868 866 844 
3 847 873 849 
3 852 874 871 
3 858 856 872 
3 858 871 874 
3 861 869 865 
3 844 869 868 
3 867 866 873 
3 875 876 877 
3 876 878 877 
3 879 880 881 
3 880 882 881 
3 883 884 878 
3 885 886 882 
3 887 881 876 
3 881 883 876 
3 882 888 883 
3 889 890 891 
3 892 890 893 
3 894 895 896 
3 897 893 889 
3 898 893 895 
3 884 843 828 
3 899 832 886 
3 888 832 843 
3 892 845 900 
3 898 850 873 
3 894 851 850 
3 898 866 892 
3 901 845 863 
3 846 812 836 
3 812 848 814 
3 902 853 823 
3 840 857 826 
3 863 833 903 
3 862 835 833 
3 823 862 833 
3 870 840 835 
3 833 846 836 
3 904 890 880 
3 890 885 880 
3 901 885 900 
3 901 903 899 
3 428 0 2 
3 2 546 428 
3 430 6 8 
3 550 6 432 
3 427 8 0 
3 447 12 82 
3 17 451 15 
3 446 17 12 
3 37 502 467 
3 905 475 906 
3 40 475 474 
3 481 907 85 
3 481 84 553 
3 483 905 907 
3 40 502 47 
3 81 536 68 
3 908 540 71 
3 71 535 81 
3 550 82 909 
3 536 84 68 
3 37 546 1 
3 557 161 162 
3 562 164 165 
3 556 165 161 
3 169 592 167 
3 581 910 170 
3 592 170 167 
3 122 628 107 
3 680 112 173 
3 631 122 112 
3 639 157 160 
3 641 134 133 
3 641 171 645 
3 643 160 134 
3 679 157 640 
3 164 576 169 
3 679 173 140 
3 645 910 580 
3 691 204 201 
3 200 691 201 
3 693 911 208 
3 693 218 694 
3 725 218 204 
3 729 242 298 
3 734 246 252 
3 728 252 242 
3 775 267 263 
3 268 774 776 
3 269 781 275 
3 275 775 263 
3 286 790 299 
3 912 290 913 
3 794 286 290 
3 803 298 911 
3 299 782 269 
3 200 776 689 
3 806 324 914 
3 325 814 423 
3 324 815 325 
3 361 847 377 
3 364 851 419 
3 377 849 364 
3 887 390 396 
3 904 393 425 
3 879 396 393 
3 889 406 418 
3 896 409 414 
3 897 409 895 
3 897 418 410 
3 423 848 361 
3 891 425 406 
3 896 419 851 
3 48 176 25 
3 25 178 28 
3 190 905 906 
3 39 190 906 
3 31 297 179 
3 198 907 216 
3 48 179 174 
3 216 905 194 
3 28 192 39 
3 54 219 52 
3 915 69 235 
3 60 222 58 
3 237 73 238 
3 250 73 72 
3 58 248 54 
3 250 67 915 
3 52 297 83 
3 198 69 85 
3 477 681 478 
3 697 497 698 
3 916 698 497 
3 485 686 688 
3 701 501 702 
3 485 724 477 
3 702 495 697 
3 681 916 478 
3 515 758 759 
3 741 530 742 
3 917 918 743 
3 747 533 748 
3 545 743 768 
3 748 528 741 
3 545 758 543 
3 552 759 686 
3 742 499 701 
3 92 300 90 
3 316 110 317 
3 96 303 97 
3 421 96 94 
3 320 114 115 
3 97 332 92 
3 316 115 109 
3 158 340 126 
3 356 143 142 
3 153 343 154 
3 369 145 359 
3 154 342 158 
3 359 143 376 
3 369 153 151 
3 126 421 94 
3 319 142 114 
3 622 842 816 
3 820 615 821 
3 617 822 618 
3 826 621 827 
3 618 842 634 
3 827 613 820 
3 659 854 660 
3 856 663 857 
3 674 859 665 
3 665 852 659 
3 860 661 856 
3 660 902 617 
3 857 619 826 
3 15 163 16 
3 89 59 55 
3 60 88 90 
3 64 99 78 
3 108 908 70 
3 110 70 74 
3 116 55 79 
3 79 99 116 
3 163 64 16 
3 919 302 223 
3 308 296 228 
3 247 317 237 
3 323 920 243 
3 243 914 323 
3 223 308 228 
3 920 315 247 
3 380 284 281 
3 379 293 284 
3 391 913 289 
3 391 293 382 
3 307 281 296 
3 454 557 451 
3 465 555 454 
3 567 464 459 
3 465 566 558 
3 629 513 595 
3 921 602 518 
3 922 605 524 
3 524 607 527 
3 615 542 531 
3 539 595 513 
3 629 921 511 
3 614 922 542 
3 622 518 602 
3 607 459 527 
3 736 806 733 
3 736 808 807 
3 918 818 744 
3 767 821 747 
3 828 757 753 
3 837 757 830 
3 818 757 744 
3 756 819 767 
3 735 830 808 
3 912 877 795 
3 877 797 795 
3 878 923 797 
3 923 828 753 
3 90 919 60 
3 317 74 237 
3 534 816 918 
3 821 531 747 
3 15 557 162 
3 107 539 908 
3 733 914 246 
3 875 913 390 
3 0 4 1 
3 3 1 4 
3 6 909 7 
3 7 909 9 
3 0 8 7 
3 4 7 10 
3 11 82 12 
3 14 17 15 
3 13 12 17 
3 18 46 19 
3 21 86 22 
3 24 48 25 
3 26 29 27 
3 26 25 28 
3 30 83 31 
3 33 35 30 
3 34 83 30 
3 36 47 37 
3 39 906 40 
3 20 38 42 
3 20 19 36 
3 43 45 21 
3 44 86 21 
3 28 39 41 
3 46 27 29 
3 36 41 40 
3 22 86 35 
3 18 23 22 
3 24 32 31 
3 24 27 33 
3 22 33 27 
3 42 43 23 
3 19 29 41 
3 49 53 50 
3 52 50 53 
3 55 59 56 
3 58 56 59 
3 61 80 62 
3 64 78 65 
3 67 81 68 
3 70 908 71 
3 70 72 73 
3 75 63 62 
3 77 65 78 
3 76 49 51 
3 79 55 57 
3 57 56 53 
3 54 53 56 
3 80 66 65 
3 67 72 71 
3 76 77 57 
3 76 62 65 
3 5 42 38 
3 3 38 37 
3 9 45 43 
3 5 10 43 
3 11 13 80 
3 14 16 64 
3 13 14 66 
3 9 909 82 
3 51 50 34 
3 34 50 52 
3 61 63 44 
3 69 68 84 
3 86 75 51 
3 44 63 75 
3 9 11 61 
3 87 91 88 
3 90 88 91 
3 93 172 94 
3 95 94 96 
3 98 117 99 
3 101 166 98 
3 102 124 103 
3 104 121 105 
3 106 122 107 
3 109 106 108 
3 111 173 112 
3 114 111 113 
3 116 99 117 
3 103 124 119 
3 116 118 87 
3 119 172 93 
3 93 95 91 
3 92 91 95 
3 104 103 117 
3 98 166 121 
3 113 112 122 
3 115 113 106 
3 118 120 93 
3 118 117 103 
3 123 172 119 
3 125 158 126 
3 128 159 129 
3 130 168 131 
3 132 171 133 
3 134 133 135 
3 134 136 137 
3 138 141 139 
3 141 138 142 
3 144 151 145 
3 147 150 148 
3 150 147 145 
3 150 151 144 
3 127 156 152 
3 145 151 153 
3 145 154 155 
3 129 159 152 
3 139 160 157 
3 135 144 146 
3 148 133 134 
3 148 144 135 
3 155 154 158 
3 137 136 159 
3 131 132 137 
3 141 147 149 
3 147 141 143 
3 136 146 152 
3 149 134 160 
3 152 146 155 
3 161 166 101 
3 101 100 163 
3 164 105 121 
3 165 121 166 
3 167 131 168 
3 170 910 171 
3 170 132 131 
3 172 127 126 
3 102 130 129 
3 105 168 130 
3 138 140 173 
3 138 111 114 
3 129 156 123 
3 123 156 127 
3 164 169 168 
3 174 212 175 
3 176 175 177 
3 179 297 180 
3 182 215 183 
3 184 294 185 
3 186 295 187 
3 189 194 190 
3 192 210 191 
3 189 213 193 
3 195 214 196 
3 198 216 197 
3 199 211 200 
3 202 217 203 
3 205 209 206 
3 208 911 209 
3 178 177 210 
3 185 294 211 
3 212 215 182 
3 182 185 177 
3 201 204 189 
3 199 201 191 
3 189 204 203 
3 180 186 188 
3 207 206 214 
3 174 179 181 
3 188 187 183 
3 195 197 193 
3 216 194 193 
3 217 205 207 
3 218 208 202 
3 202 208 205 
3 181 188 215 
3 207 195 213 
3 185 199 210 
3 219 248 220 
3 222 919 223 
3 225 249 226 
3 228 296 229 
3 231 234 232 
3 234 915 235 
3 236 247 237 
3 239 251 240 
3 241 298 242 
3 243 920 244 
3 245 252 246 
3 221 220 225 
3 240 251 231 
3 224 223 228 
3 244 920 247 
3 248 222 224 
3 230 229 249 
3 236 238 234 
3 250 915 234 
3 245 244 251 
3 239 242 252 
3 220 224 230 
3 251 244 236 
3 253 274 254 
3 254 272 256 
3 255 256 257 
3 258 261 259 
3 261 273 262 
3 263 267 264 
3 266 264 267 
3 269 275 270 
3 265 264 256 
3 256 264 266 
3 271 270 262 
3 260 259 254 
3 259 262 272 
3 275 263 265 
3 270 265 272 
3 276 279 277 
3 279 292 280 
3 281 284 282 
3 284 293 285 
3 286 299 287 
3 289 913 290 
3 288 287 280 
3 289 291 285 
3 283 282 279 
3 282 285 292 
3 290 286 288 
3 291 288 292 
3 184 183 274 
3 253 257 294 
3 266 268 200 
3 295 258 260 
3 187 260 274 
3 257 266 211 
3 249 276 278 
3 296 281 283 
3 229 283 276 
3 297 219 221 
3 227 226 295 
3 233 232 196 
3 232 235 198 
3 209 241 240 
3 209 911 298 
3 180 221 227 
3 206 240 233 
3 278 277 261 
3 277 280 273 
3 299 269 271 
3 287 271 273 
3 226 278 258 
3 300 332 301 
3 303 420 304 
3 306 333 307 
3 309 422 310 
3 312 329 313 
3 315 331 316 
3 318 336 319 
3 321 334 322 
3 323 914 324 
3 325 423 326 
3 328 330 314 
3 312 327 326 
3 330 327 312 
3 302 301 306 
3 322 334 331 
3 305 304 309 
3 328 336 318 
3 332 303 305 
3 311 310 333 
3 331 318 320 
3 327 330 334 
3 321 324 325 
3 301 305 311 
3 330 318 331 
3 328 313 335 
3 337 374 338 
3 340 342 337 
3 341 374 337 
3 343 368 344 
3 346 375 347 
3 349 370 350 
3 352 372 353 
3 355 376 356 
3 358 369 359 
3 361 377 362 
3 364 419 365 
3 355 357 367 
3 344 358 360 
3 358 344 368 
3 363 362 370 
3 366 365 371 
3 338 374 346 
3 350 341 367 
3 352 354 373 
3 343 345 341 
3 341 345 373 
3 354 353 375 
3 370 372 352 
3 360 359 376 
3 377 364 366 
3 373 354 346 
3 352 345 341 
3 360 355 341 
3 370 362 366 
3 378 381 379 
3 381 395 382 
3 383 424 384 
3 386 424 383 
3 383 385 388 
3 389 396 390 
3 392 425 393 
3 389 391 382 
3 384 392 394 
3 378 387 388 
3 388 385 395 
3 394 393 396 
3 394 389 395 
3 397 415 398 
3 397 399 400 
3 402 416 403 
3 405 418 406 
3 408 414 409 
3 408 410 411 
3 408 412 413 
3 415 405 407 
3 416 412 411 
3 413 412 416 
3 397 404 403 
3 417 404 397 
3 411 410 418 
3 403 411 405 
3 333 378 380 
3 310 422 386 
3 310 387 378 
3 347 375 401 
3 371 402 404 
3 372 404 417 
3 419 414 413 
3 375 353 417 
3 365 413 402 
3 339 338 304 
3 421 340 339 
3 348 347 422 
3 329 349 351 
3 357 356 319 
3 423 361 363 
3 304 338 348 
3 351 367 335 
3 357 336 335 
3 326 363 349 
3 399 398 384 
3 399 424 386 
3 407 406 425 
3 398 407 392 
3 422 347 400 
3 426 442 427 
3 428 546 429 
3 430 443 431 
3 433 437 434 
3 436 547 437 
3 438 444 439 
3 441 551 438 
3 426 435 434 
3 429 433 435 
3 443 439 444 
3 427 442 443 
3 437 440 439 
3 437 547 441 
3 442 434 439 
3 445 449 446 
3 448 463 449 
3 450 454 451 
3 453 465 454 
3 455 462 456 
3 458 549 455 
3 459 464 460 
3 448 456 462 
3 453 460 464 
3 449 450 452 
3 463 453 450 
3 455 461 460 
3 455 549 466 
3 463 462 460 
3 467 502 468 
3 470 554 471 
3 473 480 474 
3 476 479 477 
3 479 476 474 
3 481 553 482 
3 484 552 485 
3 487 505 488 
3 490 487 489 
3 492 548 493 
3 495 507 496 
3 498 916 497 
3 499 506 500 
3 469 468 490 
3 478 916 498 
3 502 474 476 
3 479 480 503 
3 496 507 505 
3 498 496 487 
3 482 553 470 
3 471 554 484 
3 506 492 494 
3 472 471 504 
3 473 483 482 
3 486 485 477 
3 494 493 488 
3 501 500 507 
3 482 472 503 
3 504 471 486 
3 500 494 505 
3 468 476 498 
3 508 537 509 
3 511 541 512 
3 514 543 515 
3 517 921 518 
3 520 544 521 
3 523 922 524 
3 526 525 524 
3 528 538 529 
3 531 542 532 
3 534 917 519 
3 535 510 509 
3 508 514 516 
3 538 520 522 
3 539 513 512 
3 511 921 517 
3 542 922 523 
3 541 508 510 
3 514 517 519 
3 523 525 544 
3 533 532 538 
3 540 512 510 
3 541 517 514 
3 532 523 520 
3 519 917 545 
3 546 467 469 
3 489 488 547 
3 491 489 436 
3 548 551 441 
3 493 441 547 
3 429 469 491 
3 544 549 458 
3 526 527 459 
3 466 525 526 
3 544 525 466 
3 445 447 550 
3 431 448 445 
3 457 456 444 
3 551 458 457 
3 431 444 456 
3 537 554 470 
3 516 515 552 
3 522 521 548 
3 530 529 506 
3 536 509 470 
3 554 537 516 
3 529 522 492 
3 521 458 551 
3 555 559 556 
3 558 572 559 
3 560 564 561 
3 563 574 564 
3 565 571 566 
3 568 573 569 
3 558 566 571 
3 563 569 573 
3 559 560 562 
3 572 563 560 
3 570 569 571 
3 572 571 569 
3 575 592 576 
3 578 590 575 
3 579 586 580 
3 582 585 583 
3 579 583 585 
3 582 580 586 
3 587 676 588 
3 578 589 588 
3 588 676 591 
3 579 581 592 
3 591 584 583 
3 575 590 583 
3 591 676 593 
3 594 629 595 
3 597 677 598 
3 600 624 601 
3 603 633 604 
3 605 604 606 
3 608 678 609 
3 610 609 611 
3 613 630 614 
3 616 625 617 
3 619 632 620 
3 601 634 622 
3 623 634 601 
3 625 616 626 
3 628 635 596 
3 594 624 600 
3 630 633 603 
3 631 680 597 
3 598 677 627 
3 632 678 608 
3 598 594 596 
3 633 608 610 
3 604 610 612 
3 623 616 618 
3 621 620 630 
3 635 631 599 
3 594 598 626 
3 620 608 633 
3 626 616 623 
3 636 667 637 
3 639 636 638 
3 641 645 642 
3 644 647 642 
3 646 643 642 
3 648 673 649 
3 651 654 652 
3 650 652 654 
3 655 672 656 
3 658 668 659 
3 661 671 662 
3 664 674 665 
3 648 650 637 
3 649 673 636 
3 649 638 637 
3 668 658 669 
3 638 636 670 
3 671 651 653 
3 672 664 666 
3 646 647 667 
3 646 636 639 
3 657 656 673 
3 651 672 655 
3 648 654 655 
3 668 666 665 
3 674 664 671 
3 646 675 670 
3 664 672 651 
3 657 648 667 
3 673 656 646 
3 675 666 668 
3 656 666 675 
3 606 565 567 
3 611 568 570 
3 612 570 565 
3 650 648 676 
3 644 582 584 
3 644 645 580 
3 648 657 593 
3 593 657 647 
3 577 576 561 
3 574 578 577 
3 587 589 573 
3 574 573 589 
3 640 638 677 
3 653 652 609 
3 611 609 652 
3 625 658 660 
3 663 662 632 
3 679 640 597 
3 677 638 669 
3 662 653 678 
3 658 625 627 
3 611 650 587 
3 681 724 682 
3 683 682 684 
3 686 722 687 
3 689 719 690 
3 692 803 693 
3 695 804 692 
3 696 726 697 
3 699 716 696 
3 700 723 701 
3 703 721 704 
3 706 703 705 
3 708 707 705 
3 709 715 710 
3 709 711 712 
3 709 713 714 
3 681 683 716 
3 717 722 686 
3 719 707 708 
3 684 725 691 
3 685 691 690 
3 720 725 684 
3 721 726 696 
3 716 708 704 
3 722 804 695 
3 710 715 723 
3 724 688 687 
3 720 695 694 
3 726 700 702 
3 703 711 710 
3 712 711 703 
3 687 695 720 
3 721 710 700 
3 690 708 716 
3 727 731 728 
3 730 763 731 
3 732 736 733 
3 732 762 735 
3 737 768 738 
3 740 765 741 
3 743 918 744 
3 746 767 747 
3 749 769 750 
3 752 764 751 
3 753 757 754 
3 756 766 754 
3 758 768 737 
3 760 739 738 
3 754 757 735 
3 760 761 763 
3 764 752 765 
3 744 757 754 
3 766 756 767 
3 731 732 734 
3 763 762 732 
3 743 745 738 
3 765 746 748 
3 755 754 750 
3 766 752 750 
3 770 762 763 
3 752 766 746 
3 738 745 770 
3 754 762 770 
3 771 783 772 
3 771 773 774 
3 776 774 773 
3 777 780 778 
3 780 777 781 
3 783 786 784 
3 785 801 779 
3 771 777 779 
3 777 771 775 
3 779 801 786 
3 787 793 788 
3 787 789 790 
3 787 791 792 
3 794 912 795 
3 797 800 796 
3 798 802 788 
3 797 923 799 
3 794 796 792 
3 800 793 792 
3 800 799 798 
3 776 772 719 
3 786 706 707 
3 785 713 712 
3 801 712 706 
3 719 772 784 
3 802 798 769 
3 799 923 753 
3 798 799 755 
3 692 727 729 
3 804 730 727 
3 737 739 717 
3 723 740 742 
3 749 751 714 
3 764 715 714 
3 760 730 804 
3 764 740 723 
3 759 737 718 
3 717 739 760 
3 780 789 788 
3 789 780 782 
3 802 785 778 
3 785 802 749 
3 805 841 806 
3 808 810 805 
3 809 841 805 
3 811 836 812 
3 813 812 814 
3 816 842 817 
3 819 838 820 
3 822 902 823 
3 825 840 826 
3 828 843 829 
3 831 837 830 
3 832 903 833 
3 835 839 834 
3 830 829 810 
3 834 833 836 
3 817 829 830 
3 837 831 838 
3 824 823 833 
3 839 835 840 
3 811 813 809 
3 809 813 815 
3 842 822 824 
3 838 825 827 
3 843 832 834 
3 839 831 829 
3 817 824 834 
3 831 839 825 
3 829 834 811 
3 844 866 845 
3 845 866 847 
3 849 873 850 
3 852 871 853 
3 855 872 856 
3 858 874 859 
3 861 865 862 
3 864 870 862 
3 846 862 865 
3 861 863 845 
3 867 873 868 
3 853 871 865 
3 864 872 855 
3 864 865 871 
3 868 873 866 
3 847 866 873 
3 852 859 874 
3 858 860 856 
3 858 872 871 
3 861 867 869 
3 844 865 869 
3 867 861 866 
3 875 887 876 
3 876 883 878 
3 879 904 880 
3 880 885 882 
3 883 888 884 
3 885 899 886 
3 887 879 881 
3 881 882 883 
3 882 886 888 
3 889 893 890 
3 892 900 890 
3 894 898 895 
3 897 895 893 
3 898 892 893 
3 884 888 843 
3 899 903 832 
3 888 886 832 
3 892 866 845 
3 898 894 850 
3 894 896 851 
3 898 873 866 
3 901 900 845 
3 846 845 812 
3 812 845 848 
3 902 854 853 
3 840 855 857 
3 863 862 833 
3 862 870 835 
3 823 853 862 
3 870 855 840 
3 833 862 846 
3 904 891 890 
3 890 900 885 
3 901 899 885 
3 901 863 903 
3 428 427 0 
3 2 1 546 
3 430 432 6 
3 550 909 6 
3 427 430 8 
3 447 446 12 
3 17 452 451 
3 446 452 17 
3 37 47 502 
3 905 473 475 
3 40 906 475 
3 481 483 907 
3 481 85 84 
3 483 473 905 
3 40 474 502 
3 81 535 536 
3 908 539 540 
3 71 540 535 
3 550 447 82 
3 536 553 84 
3 37 467 546 
3 557 556 161 
3 562 561 164 
3 556 562 165 
3 169 576 592 
3 581 580 910 
3 592 581 170 
3 122 635 628 
3 680 631 112 
3 631 635 122 
3 639 640 157 
3 641 643 134 
3 641 133 171 
3 643 639 160 
3 679 140 157 
3 164 561 576 
3 679 680 173 
3 645 171 910 
3 691 725 204 
3 200 689 691 
3 693 803 911 
3 693 208 218 
3 725 694 218 
3 729 728 242 
3 734 733 246 
3 728 734 252 
3 775 774 267 
3 268 267 774 
3 269 782 781 
3 275 781 775 
3 286 791 790 
3 912 794 290 
3 794 791 286 
3 803 729 298 
3 299 790 782 
3 200 268 776 
3 806 841 324 
3 325 815 814 
3 324 841 815 
3 361 848 847 
3 364 849 851 
3 377 847 849 
3 887 875 390 
3 904 879 393 
3 879 887 396 
3 889 891 406 
3 896 895 409 
3 897 410 409 
3 897 889 418 
3 423 814 848 
3 891 904 425 
3 896 414 419 
3 48 174 176 
3 25 176 178 
3 190 194 905 
3 39 192 190 
3 31 83 297 
3 198 85 907 
3 48 31 179 
3 216 907 905 
3 28 178 192 
3 54 248 219 
3 915 67 69 
3 60 919 222 
3 237 74 73 
3 250 238 73 
3 58 222 248 
3 250 72 67 
3 52 219 297 
3 198 235 69 
3 477 724 681 
3 697 495 497 
3 916 699 698 
3 485 552 686 
3 701 499 501 
3 485 688 724 
3 702 501 495 
3 681 699 916 
3 515 543 758 
3 741 528 530 
3 917 534 918 
3 747 531 533 
3 545 917 743 
3 748 533 528 
3 545 768 758 
3 552 515 759 
3 742 530 499 
3 92 332 300 
3 316 109 110 
3 96 420 303 
3 421 420 96 
3 320 319 114 
3 97 303 332 
3 316 320 115 
3 158 342 340 
3 356 376 143 
3 153 368 343 
3 369 151 145 
3 154 343 342 
3 359 145 143 
3 369 368 153 
3 126 340 421 
3 319 356 142 
3 622 634 842 
3 820 613 615 
3 617 902 822 
3 826 619 621 
3 618 822 842 
3 827 621 613 
3 659 852 854 
3 856 661 663 
3 674 860 859 
3 665 859 852 
3 860 674 661 
3 660 854 902 
3 857 663 619 
3 15 162 163 
3 89 88 59 
3 60 59 88 
3 64 100 99 
3 108 107 908 
3 110 108 70 
3 116 89 55 
3 79 78 99 
3 163 100 64 
3 919 300 302 
3 308 307 296 
3 247 315 317 
3 323 322 920 
3 243 246 914 
3 223 302 308 
3 920 322 315 
3 380 379 284 
3 379 382 293 
3 391 390 913 
3 391 289 293 
3 307 380 281 
3 454 555 557 
3 465 558 555 
3 567 566 464 
3 465 464 566 
3 629 511 513 
3 921 600 602 
3 922 603 605 
3 524 605 607 
3 615 614 542 
3 539 628 595 
3 629 600 921 
3 614 603 922 
3 622 534 518 
3 607 567 459 
3 736 807 806 
3 736 735 808 
3 918 816 818 
3 767 819 821 
3 828 830 757 
3 837 756 757 
3 818 830 757 
3 756 837 819 
3 735 757 830 
3 912 875 877 
3 877 878 797 
3 878 884 923 
3 923 884 828 
3 90 300 919 
3 317 110 74 
3 534 622 816 
3 821 615 531 
3 15 451 557 
3 107 628 539 
3 733 806 914 
3 875 912 913 
