ply
format ascii 1.0
element vertex 839
property float x
property float y
property float z
element face 1688
property list uchar int vertex_index
end_header
-0.28934938 -0.23165026 -0.13778356 
-0.29744136 -0.19160785 -0.10592157 
-0.28133363 -0.17258112 -0.13610181 
-0.27672377 -0.20922026 -0.008421384 
-0.29791814 -0.16832423 -0.048198603 
-0.28185272 -0.2193156 -0.07277525 
-0.29972407 -0.102627434 -0.09756519 
-0.2835096 -0.030886654 -0.13709469 
-0.26680246 -0.10045761 -0.14489348 
-0.30388254 -0.10212963 -0.01914163 
-0.3032225 -0.035289716 0.029689608 
-0.30586094 -0.030611707 -0.04083368 
-0.29519072 -0.16333629 0.02101262 
-0.28774375 -0.23982409 -0.12060954 
-0.30494684 -0.010515371 -0.09932021 
-0.2726641 -0.20401348 0.13077706 
-0.29216993 -0.16199513 0.09070763 
-0.27421957 -0.20578104 0.061007895 
-0.26971614 -0.20067 0.27028394 
-0.28643405 -0.1604374 0.22986445 
-0.2711981 -0.20241335 0.20035902 
-0.29735783 -0.10179885 0.121588305 
-0.29644302 -0.036599975 0.16925134 
-0.2998389 -0.03627672 0.099667214 
-0.29018515 -0.10205934 0.2606972 
-0.28926414 -0.040649444 0.309161 
-0.29300696 -0.037328593 0.23901798 
-0.28928825 -0.16119394 0.16024202 
-0.28350383 -0.15935168 0.30031598 
-0.29381156 -0.1017064 0.19112325 
-0.19098718 -0.17026922 -0.12746494 
-0.21637435 -0.21431667 -0.10425857 
-0.21836111 -0.20110711 -0.13775459 
-0.25774407 -0.23060973 -0.14055842 
-0.26018256 -0.24026191 -0.10794988 
-0.2314927 -0.15874979 -0.14756119 
-0.17140995 -0.1518626 0.013984954 
-0.20099278 -0.20080417 -0.034470454 
-0.16882408 -0.16004065 -0.052539285 
-0.24156746 -0.22055805 0.018236708 
-0.24568233 -0.22673391 -0.0515999 
-0.21938846 -0.091575816 -0.15450445 
-0.16663852 -0.042163096 -0.15469056 
-0.17580682 -0.11030123 -0.14106633 
-0.13307099 -0.06836799 -0.02215645 
-0.15042919 -0.098309815 0.012443807 
-0.1508407 -0.11679515 -0.038808804 
-0.103467725 -0.038030013 -0.13571155 
-0.13443269 -0.083018035 -0.119978145 
-0.14284372 -0.07173222 -0.14342427 
-0.046632893 -0.02807265 -0.092314884 
-0.10351379 -0.05175648 -0.10008351 
-0.15794748 -0.13127269 -0.0973295 
-0.11589956 -0.028733306 -0.00024571634 
-0.1391457 -0.055340357 0.032526284 
-0.13027963 -0.081612736 -0.074872136 
-0.18093084 -0.17927788 -0.08966805 
-0.09702408 -0.038053337 -0.05311255 
-0.18383044 -0.15821385 0.16689599 
-0.20864895 -0.19983459 0.120451346 
-0.17958847 -0.15671787 0.09451302 
-0.24220687 -0.21645576 0.16007814 
-0.2418573 -0.21833944 0.08993862 
-0.18949884 -0.15715021 0.3063652 
-0.21228945 -0.19705392 0.26026917 
-0.18675148 -0.15780368 0.23682885 
-0.24240077 -0.21217993 0.29975817 
-0.24236107 -0.21440776 0.22972393 
-0.14594454 -0.048301093 0.13220781 
-0.15605223 -0.094408974 0.07607177 
-0.1411009 -0.04203844 0.08089127 
-0.15110463 -0.048237875 0.2676795 
-0.16669443 -0.10348363 0.2216628 
-0.14859077 -0.049059484 0.1983751 
-0.1630471 -0.10240754 0.15128742 
-0.16973522 -0.103150524 0.2912758 
-0.21064639 -0.19863135 0.19066986 
-0.28005937 -0.25887153 -0.1470886 
-0.27564096 -0.2582456 -0.13907555 
-0.28871664 -0.2565775 -0.14097038 
-0.23367313 -0.032676533 -0.15603364 
-0.27100927 -0.26123995 -0.14809845 
-0.30090964 -0.101958856 0.051887587 
-0.20548184 -0.20007408 0.04724008 
-0.26657593 -0.19621313 0.42598444 
-0.28039637 -0.1558495 0.37532955 
-0.26816684 -0.19828597 0.3427149 
-0.26068518 -0.20219818 0.51344585 
-0.26200563 -0.18668684 0.5739782 
-0.268927 -0.18035892 0.49207145 
-0.27861673 -0.1305866 0.41898263 
-0.28203365 -0.10212137 0.38310772 
-0.2766893 -0.16510496 0.43615508 
-0.26784015 -0.199645 0.70037055 
-0.26443282 -0.19209278 0.65546125 
-0.26658273 -0.20309022 0.65356743 
-0.26828426 -0.19721821 0.7310042 
-0.26377726 -0.18749085 0.7172934 
-0.20052412 -0.16457215 0.4444202 
-0.2152649 -0.19516236 0.3959866 
-0.19289695 -0.1576918 0.37576354 
-0.23784497 -0.20644614 0.4434035 
-0.24188656 -0.20970207 0.37144536 
-0.25028598 -0.16375852 0.530128 
-0.2543709 -0.19484337 0.56030667 
-0.23947167 -0.19543386 0.5026698 
-0.21463576 -0.14517547 0.5617166 
-0.24668352 -0.16355027 0.5915573 
-0.21544799 -0.16689312 0.5027094 
-0.21947177 -0.19249052 0.46581706 
-0.27859867 -0.09692547 0.41778308 
-0.276465 -0.077819906 0.4494958 
-0.2807132 -0.06982046 0.40893412 
-0.15649834 -0.046211988 0.4072424 
-0.1729505 -0.102949 0.3609666 
-0.15363269 -0.047169514 0.33727518 
-0.26089108 -0.113131315 0.5561763 
-0.27325922 -0.06580656 0.5042169 
-0.2683859 -0.1111105 0.4928556 
-0.16416581 -0.041039914 0.5534291 
-0.18679658 -0.110092565 0.51089156 
-0.16032083 -0.045564525 0.47883543 
-0.17751151 -0.10453289 0.4319697 
-0.21599627 -0.19608039 0.43575 
-0.27519333 -0.110905856 0.4472354 
-0.27145892 -0.14447829 0.46868947 
-0.2514919 -0.17319942 0.63942677 
-0.25963455 -0.19335191 0.68011856 
-0.25805992 -0.1954715 0.6232283 
-0.21902992 -0.14244406 0.63722616 
-0.24651617 -0.16000308 0.69556266 
-0.25257927 -0.09458253 0.7130629 
-0.26666948 -0.05377568 0.64428794 
-0.25625676 -0.11773643 0.6336305 
-0.18350382 -0.031076776 0.713401 
-0.19337274 -0.09022938 0.6680301 
-0.16783923 -0.02596059 0.6364815 
-0.23234335 -0.09273827 0.7698362 
-0.22288772 -0.039237335 0.7980435 
-0.24821144 -0.030422473 0.7641004 
-0.19897842 -0.037213907 0.77383864 
-0.21133359 -0.05959551 0.79703295 
-0.21232241 -0.08713986 0.77508366 
-0.21928611 -0.076411575 0.7943424 
-0.21342611 -0.12861997 0.6981852 
-0.22333264 -0.12602168 0.7422413 
-0.24975154 -0.15473533 0.7391843 
-0.261374 -0.18899438 0.7254704 
-0.26531628 -0.030610178 0.70510733 
-0.20131756 -0.08902558 0.7308562 
-0.26522332 -0.20252287 0.5962924 
-0.28140253 -0.03108611 0.43943998 
-0.2848792 -0.052799404 0.37158048 
-0.2789163 -0.016886033 0.514086 
-0.26954758 -0.061481915 0.5733242 
-0.276542 -0.011837034 0.5837227 
-0.26411784 -0.188438 0.73977 
-0.2745685 -0.0047797016 0.64880675 
-0.27331167 0.00644225 0.69779646 
-0.26625705 0.006767005 0.7405707 
-0.18899027 -0.0954781 0.59455705 
-0.29369235 0.034776136 -0.12875743 
-0.29250878 0.084447555 -0.098234475 
-0.27352065 0.09192975 -0.13839367 
-0.30173534 0.043385528 -0.05320581 
-0.28347206 0.09402573 0.011239668 
-0.28751722 0.09856181 -0.04767129 
-0.2634103 0.13799481 -0.11356542 
-0.25764513 0.13068333 -0.14317167 
-0.30528533 0.037481762 -0.100864924 
-0.27370733 0.12660632 -0.07043438 
-0.2963717 0.027443528 0.09040906 
-0.28139508 0.08073548 0.15225904 
-0.28322968 0.083676174 0.08222907 
-0.29087538 0.025382113 0.22989339 
-0.2772393 0.07770134 0.29173964 
-0.27933353 0.07924221 0.22188094 
-0.29363117 0.026262343 0.16017649 
-0.2256124 0.107775815 -0.15533265 
-0.18054417 0.040669553 -0.16044652 
-0.25375876 0.035509866 -0.15222663 
-0.22888362 0.1624988 -0.14255829 
-0.19910035 0.19403206 -0.13205244 
-0.1987631 0.18753155 -0.14932127 
-0.16203305 0.19518009 -0.14619237 
-0.18375124 0.16075602 -0.15572333 
-0.19172853 0.1931225 -0.09210542 
-0.22889882 0.17473325 -0.112269334 
-0.22084641 0.1602647 0.025329007 
-0.16850325 0.18899442 -0.031016614 
-0.23501523 0.16215572 -0.060873266 
-0.106126115 0.085488185 -0.16129257 
-0.03703039 0.05688365 -0.15917096 
-0.10400773 0.016345523 -0.15634066 
-0.055674814 -0.00460531 -0.002807047 
-0.08925447 -0.004799597 0.02421697 
-0.08406715 -0.014088915 -0.018587992 
-0.06830469 0.20411967 -0.123205975 
-0.026546136 0.1757334 -0.14121906 
-0.07448995 0.19427136 -0.14428706 
-0.11134638 0.20414712 -0.13696435 
-0.10864128 0.21073243 -0.10545701 
-0.10810877 0.16125903 -0.1547733 
-0.07254037 0.20631617 -0.0846284 
-0.033059407 0.20111692 -0.10328846 
-0.059216388 0.1933359 0.017596338 
-0.09832654 0.20094864 -0.04207056 
-0.11725376 0.19365728 0.0092382 
-0.15503418 0.20703644 -0.11887841 
-0.15798537 0.18543814 0.0314795 
-0.14033514 0.2050966 -0.078818485 
-0.16228071 0.11323681 -0.16066307 
-0.047052868 0.11733435 -0.1586115 
-0.26461664 0.13113016 -0.020647366 
-0.10583909 0.20829307 -0.07771334 
-0.02578211 0.2015842 -0.048057914 
-0.16540197 0.17478657 0.15767089 
-0.21904331 0.15631725 0.109245904 
-0.21792771 0.15355036 0.18086495 
-0.16419487 0.16887186 0.29705226 
-0.21675666 0.15116835 0.25061947 
-0.2155568 0.1488362 0.32015222 
-0.08782172 0.003920343 0.09638827 
-0.041290373 0.011799388 0.13907966 
-0.08844648 0.010951459 0.17919022 
-0.088128775 0.014718873 0.25094187 
-0.03479461 0.01816805 0.27798107 
-0.08662774 0.017825153 0.32279027 
-0.103890024 0.18376744 0.1298464 
-0.043795075 0.18585655 0.085976586 
-0.10692807 0.18879262 0.06389228 
-0.10240747 0.17673564 0.26914188 
-0.037494022 0.17743722 0.22700569 
-0.10286627 0.18003182 0.19926739 
-0.12537193 -0.010635227 0.15777478 
-0.12861925 -0.016001493 0.104183555 
-0.12751225 -0.0052398155 0.29708052 
-0.1262872 -0.0075933277 0.2271016 
-0.16521445 0.1786277 0.08793612 
-0.16483858 0.17175525 0.22746053 
-0.25728446 0.123711735 0.13592148 
-0.2588231 0.12715313 0.066943124 
-0.25404412 0.11970039 0.2752429 
-0.25568247 0.121561944 0.2056843 
-0.03961056 0.015485717 0.2063876 
-0.039709724 0.18082029 0.15599632 
-0.29900172 0.031402115 0.019608026 
-0.046468608 0.0020573204 0.040004775 
-0.26141387 0.13014519 0.02179132 
-0.121838965 -0.017710108 0.054009557 
-0.28471708 0.01533053 0.38120037 
-0.2730194 0.07465954 0.43660754 
-0.2750721 0.07534366 0.3632185 
-0.2798182 0.030935764 0.5355743 
-0.27314952 0.06715372 0.56662375 
-0.27186763 0.07401598 0.5085154 
-0.28152084 0.027782392 0.4652471 
-0.27453062 0.035948187 0.6636007 
-0.2603399 0.07137808 0.6903758 
-0.26676044 0.073640384 0.6244577 
-0.27095032 0.035849206 0.7179558 
-0.2561683 0.06057484 0.7431605 
-0.16247006 0.16289143 0.43718052 
-0.21433035 0.1464682 0.38982928 
-0.21311246 0.14388016 0.46013215 
-0.16288926 0.15495008 0.5824898 
-0.21234976 0.1404324 0.53210807 
-0.21094368 0.13713287 0.6027689 
-0.08705382 0.021594122 0.3955836 
-0.03307619 0.027122047 0.4375612 
-0.08995372 0.02629118 0.4673003 
-0.09434741 0.032083582 0.53747654 
-0.04348389 0.03956838 0.5885126 
-0.103898674 0.03971976 0.5962086 
-0.10019676 0.16972324 0.41044807 
-0.03572196 0.16995388 0.36971772 
-0.10187997 0.1734067 0.33918262 
-0.09487731 0.16037293 0.56495595 
-0.037433274 0.1582441 0.5217923 
-0.099299185 0.1656556 0.48390222 
-0.13101909 3.919599e-05 0.43769392 
-0.12891123 -0.0028276234 0.36725092 
-0.13737507 0.012376737 0.5782931 
-0.13396494 0.0040864437 0.50840145 
-0.16339499 0.16594931 0.36680186 
-0.16128133 0.15936835 0.5093602 
-0.25078213 0.11581165 0.41531622 
-0.2523957 0.117761776 0.34498942 
-0.2502203 0.10659791 0.5673646 
-0.2495845 0.11331586 0.48719445 
-0.036226127 0.0321668 0.5093693 
-0.02718936 0.16408569 0.44737458 
-0.14086762 0.060465626 0.6890534 
-0.16331431 0.0294974 0.69788444 
-0.13568312 0.03560011 0.64419234 
-0.24979994 0.03321734 0.7734031 
-0.21485054 0.05784872 0.79329276 
-0.22921865 0.0742168 0.7684436 
-0.17948614 0.07895495 0.79418397 
-0.18131864 0.037010014 0.76076967 
-0.17637768 0.095164396 0.7743151 
-0.20538673 0.0148065835 0.79739547 
-0.23106444 0.011060635 0.79512006 
-0.19856167 0.12435724 0.6876482 
-0.170226 0.14650336 0.65481937 
-0.20844598 0.134693 0.6475308 
-0.09010986 0.05329579 0.65070176 
-0.10983837 0.07351801 0.70693856 
-0.12199942 0.058461584 0.67041194 
-0.02670556 0.04627668 0.6648299 
-0.06531854 0.061406873 0.6991191 
-0.01711359 0.07388686 0.7695416 
0.0016620886 0.09053935 0.78498036 
-0.039318793 0.10294765 0.76111186 
-0.06306438 0.077332675 0.7414353 
-0.06379505 0.14418435 0.69004333 
-0.11021781 0.15506466 0.6409056 
-0.12105791 0.14423548 0.7136568 
-0.16367275 0.091940105 0.73037446 
-0.14470357 0.11407233 0.78887284 
-0.16332227 0.1335325 0.7121792 
-0.1413023 0.12918276 0.78735065 
-0.15000838 0.12741885 0.76074874 
-0.15750316 0.11645575 0.7912805 
-0.23647913 0.11050905 0.6497663 
-0.22249642 0.09507905 0.72387445 
-0.012125375 0.13947472 0.666885 
-0.05107581 0.1509893 0.6279861 
-0.121265516 0.13029762 0.7667228 
-0.1106763 0.10360418 0.7584691 
-0.07740143 0.12907486 0.74196 
-0.019521527 0.05670995 0.7269428 
-0.022180365 0.12852576 0.7230128 
-0.26627344 0.034467544 0.7503555 
-0.2775897 0.03290519 0.6010909 
0.15326652 -0.3272991 -0.11728731 
0.14723918 -0.28628474 -0.13448924 
0.15936711 -0.32349688 -0.14186352 
0.23196948 -0.30021003 -0.14460954 
0.20799175 -0.33017373 -0.12941691 
0.20463774 -0.3268897 -0.14715822 
0.17951058 -0.33508942 -0.13924858 
0.17882366 -0.33790284 -0.11528537 
0.1867381 -0.3032778 -0.15160674 
0.20030898 -0.32617486 -0.091430254 
0.18301292 -0.31076163 -0.03796893 
0.21998894 -0.28942612 0.011522745 
0.17702776 -0.29069504 0.022205427 
0.15269607 -0.2805838 -0.006600756 
0.14923963 -0.30376363 -0.05842728 
0.16451533 -0.32934278 -0.08499325 
0.14646879 -0.321585 -0.08884175 
0.13840017 -0.2933917 -0.09324972 
0.22985151 -0.30031812 -0.05880404 
0.1870794 -0.27533945 0.08908263 
0.22675051 -0.27321434 0.13386557 
0.18938488 -0.26972514 0.17312968 
0.19102143 -0.26578227 0.24700402 
0.23006228 -0.25862145 0.29072782 
0.19242013 -0.2630034 0.3223155 
0.22652575 -0.2683323 0.207163 
0.13999695 -0.21892068 -0.1381548 
0.11736206 -0.17143883 -0.10593691 
0.1328103 -0.15433355 -0.1409142 
0.13369235 -0.24665974 -0.038942926 
0.12462115 -0.18150106 0.02515867 
0.117376685 -0.17713703 -0.04929083 
0.117247015 -0.10136458 -0.13998054 
0.082859725 -0.07112078 -0.11276752 
0.11392431 -0.0502716 -0.1494197 
0.051596396 -0.018192565 -0.14166106 
0.026233006 -0.035363067 -0.10041344 
0.101192646 -0.11501572 -0.0021364861 
0.06962498 -0.0674492 -0.04948072 
0.09983118 -0.11774837 -0.07184586 
0.016368823 -0.029938221 -0.03538738 
0.06711195 -0.054771475 0.030931149 
0.02522077 -0.019505318 0.026147904 
0.17661853 -0.19376123 -0.15583828 
0.22240625 -0.24866654 -0.1563532 
0.17212288 -0.2526061 -0.15360886 
0.17989427 -0.026086692 -0.1599217 
0.23499641 -0.09938882 -0.15502654 
0.16859841 -0.11401273 -0.15610029 
0.10680473 -0.121521026 -0.11684503 
0.22927448 -0.17509907 -0.1560516 
0.28190777 -0.12633154 -0.030814784 
0.280052 -0.15295108 0.008769397 
0.2814205 -0.15488443 -0.03170343 
0.12840602 -0.2357221 -0.09849275 
0.2834987 -0.1542223 -0.05665215 
0.28598386 -0.13225743 -0.07276359 
0.10750222 -0.10979332 0.093501 
0.08641556 -0.054658294 0.16568011 
0.074058086 -0.047212727 0.10588212 
0.0481722 -0.017198287 0.16081916 
0.03501665 -0.01610519 0.08987622 
0.120293856 -0.10103616 0.253369 
0.10259139 -0.05737664 0.30058917 
0.09432684 -0.055251334 0.23364905 
0.07043815 -0.022438634 0.27948552 
0.05774868 -0.018192569 0.22711816 
0.15916854 -0.2439686 0.14352246 
0.14126253 -0.2084603 0.11930831 
0.15281872 -0.24284899 0.093115315 
0.16334909 -0.23533444 0.27965778 
0.1451042 -0.19846407 0.22556964 
0.16163431 -0.2411482 0.20842795 
0.2776068 -0.07261099 0.10040049 
0.27493593 -0.10702253 0.13185045 
0.2767353 -0.1013459 0.07890567 
0.27493668 -0.063961 0.22427845 
0.2695344 -0.12174803 0.2810585 
0.27282125 -0.110792145 0.20106076 
0.13172743 -0.16450834 0.15843311 
0.12949449 -0.1752169 0.090974614 
0.13882175 -0.2176303 0.06535993 
0.13317816 -0.14950557 0.2327476 
0.14562434 -0.18232761 0.29816514 
0.1341308 -0.13748306 0.2828359 
0.2773978 -0.1448428 0.08140774 
0.27306852 -0.16419548 0.23185225 
0.11527309 -0.104279906 0.186025 
0.14542925 -0.21086586 0.17112686 
0.2768067 -0.064980015 0.15361694 
0.2752508 -0.15225068 0.15867367 
0.27419364 -0.15986855 -0.13428935 
0.27942124 -0.22584414 -0.10985666 
0.2649303 -0.22922795 -0.14513695 
0.28257036 -0.18293431 -0.025466744 
0.27600503 -0.22274108 0.026885252 
0.276791 -0.23005581 -0.04566002 
0.29288465 -0.043361716 -0.093260065 
0.2788473 -0.08087444 -0.1357708 
0.28647602 -0.021896575 -0.13266797 
0.28899264 -0.035915963 -0.029299928 
0.28336996 -0.080247864 -0.0050493525 
0.2879662 -0.08979569 -0.05883549 
0.28877836 -0.114487946 -0.10279371 
0.28563154 -0.17264959 -0.085423246 
0.27808705 -0.18738946 0.118449554 
0.27307576 -0.21785629 0.16448602 
0.27427563 -0.22055072 0.09714147 
0.27514255 -0.19698077 0.23040082 
0.2709865 -0.21440889 0.24953434 
0.27372855 -0.21293208 0.21277113 
0.27649516 -0.1902247 0.18433464 
0.2644981 -0.27188757 -0.12929897 
0.23772922 -0.3052745 -0.11027011 
0.25822327 -0.2592035 0.019516878 
0.25516772 -0.27141216 -0.033288784 
0.25211337 -0.028178815 -0.15272084 
0.27884302 -0.11335701 0.028990582 
0.28017813 -0.071707614 0.049912937 
0.26337877 -0.27012902 -0.084892064 
0.2567685 -0.24903828 0.15437514 
0.25843495 -0.25311512 0.08536027 
0.25910977 -0.23851189 0.22707903 
0.26164743 -0.21668899 0.29202914 
0.27180046 -0.19606525 0.26294684 
0.26893157 -0.17604665 0.28635776 
0.28194723 -0.03068064 0.08891761 
0.2787899 -0.019199528 0.23724408 
0.27270594 -0.06350447 0.2967042 
0.28047514 -0.020912606 0.16597858 
0.15448129 -0.2609929 0.048071448 
0.25666362 -0.2685364 -0.1493728 
0.23280115 -0.2764843 0.071196735 
0.13898212 -0.23864114 0.019047517 
0.28017616 -0.18681759 0.046953067 
0.19684598 -0.2655669 0.38670486 
0.22102001 -0.26018465 0.43917328 
0.19182247 -0.2596221 0.44448316 
0.19140705 -0.25704178 0.5157684 
0.21640474 -0.25630757 0.5768004 
0.19136414 -0.2550597 0.58673257 
0.21855824 -0.25794107 0.5070816 
0.19077799 -0.25184602 0.66096646 
0.20847893 -0.2589038 0.6979885 
0.19767964 -0.25808695 0.71601826 
0.20852724 -0.25133502 0.74068683 
0.19737908 -0.2516335 0.74252844 
0.1663447 -0.22724828 0.37157556 
0.15086597 -0.16337484 0.4288429 
0.14706552 -0.16867584 0.361795 
0.25862426 -0.172366 0.4041937 
0.24988611 -0.22492993 0.35822248 
0.26368612 -0.17292555 0.33637238 
0.17050198 -0.22369978 0.5378569 
0.15945 -0.17029022 0.57799214 
0.15597439 -0.17014022 0.50714076 
0.25157452 -0.17049924 0.5439769 
0.24153031 -0.22538623 0.4978177 
0.254932 -0.17167313 0.47397357 
0.13992344 -0.10509771 0.4314378 
0.12553051 -0.07198087 0.40140563 
0.13903432 -0.121775106 0.38160866 
0.27047163 -0.061529405 0.36758986 
0.26274478 -0.11327584 0.4278174 
0.26583704 -0.11522377 0.35716242 
0.14911819 -0.11406037 0.5535556 
0.1350359 -0.06503649 0.53068763 
0.14473659 -0.11195186 0.4864207 
0.2665694 -0.0566607 0.5073155 
0.25725102 -0.10741381 0.5694289 
0.25999022 -0.111735545 0.49784705 
0.098757684 -0.026632776 0.43924713 
0.10059537 -0.040913872 0.36671093 
0.124724716 -0.08821261 0.3447692 
0.11962731 -0.02838202 0.5911411 
0.1091515 -0.026713971 0.51440513 
0.1682449 -0.22411454 0.4637388 
0.24484909 -0.22615382 0.4284343 
0.12911436 -0.06458256 0.4640286 
0.26839173 -0.05996649 0.43740538 
0.13735929 -0.13598567 0.32856998 
0.17437342 -0.21483374 0.6670462 
0.17216337 -0.16883025 0.7135575 
0.16345379 -0.16720332 0.6473108 
0.24122128 -0.16884038 0.68890846 
0.23362656 -0.22422461 0.63818026 
0.24763358 -0.1682094 0.61561537 
0.20497984 -0.2055158 0.78940105 
0.18866795 -0.1781745 0.7710804 
0.19969201 -0.23132622 0.76398253 
0.23041856 -0.17195445 0.75944364 
0.21680202 -0.19118936 0.79293454 
0.21610323 -0.22231632 0.7684301 
0.20532325 -0.16291243 0.801147 
0.15873271 -0.0979704 0.6989037 
0.14004341 -0.051450476 0.6501384 
0.15267302 -0.11049521 0.62181777 
0.24733838 -0.04290039 0.7004293 
0.25252712 -0.094426036 0.649359 
0.25836945 -0.016134016 0.6432618 
0.17541996 -0.107535236 0.76271105 
0.18747103 -0.043822244 0.79649043 
0.1619047 -0.042030863 0.7563633 
0.21577111 -0.05487171 0.7954438 
0.22895487 -0.10399914 0.78022695 
0.2308422 -0.032526527 0.7592033 
0.21061659 -0.10589005 0.80337214 
0.1926142 -0.118892916 0.79611534 
0.124837615 -0.014048511 0.68681717 
0.12165938 -0.019424288 0.6444463 
0.22063228 -0.15173261 0.7964474 
0.18634698 -0.22926489 0.7214631 
0.22485523 -0.22930646 0.7109428 
0.14582473 -0.039713793 0.7106309 
0.24168888 -0.10355688 0.72694814 
0.27525482 -0.017686218 0.3759299 
0.27225327 -0.013055902 0.5119257 
0.2652468 -0.04311332 0.57875335 
0.27354383 -0.01638156 0.44501388 
0.22356953 -0.26089972 0.37085706 
0.23820731 -0.22424845 0.56749016 
0.21298754 -0.25592345 0.64579904 
0.17250034 -0.22142237 0.6076936 
0.14141136 -0.069625095 0.5889189 
0.26901487 -0.007880935 0.59767663 
0.0354731 0.10513778 -0.15872663 
0.09692001 0.025534857 -0.15927935 
0.024065863 0.031545468 -0.15643385 
0.021445384 0.21267924 -0.10254027 
0.061932743 0.24182338 -0.13170645 
0.050416306 0.18908304 -0.14574376 
0.115248255 0.24252394 -0.15115581 
0.110202625 0.15387914 -0.15836637 
0.054450713 0.21874326 0.00039986992 
0.0740136 0.24394313 0.017271534 
0.06814484 0.25351346 -0.031332575 
0.015527137 0.1964562 0.030904863 
0.033894204 0.21542315 -0.03986703 
0.17241949 0.10561549 -0.15929341 
0.22498891 0.044527598 -0.15581155 
0.15973914 0.04696961 -0.1620493 
0.2690412 0.11618817 -8.899471e-05 
0.28031564 0.06749299 -0.019444488 
0.2737614 0.10660399 -0.051067486 
0.25028375 0.21482202 -0.100113615 
0.24040705 0.17491186 -0.13028434 
0.22426212 0.23862648 -0.13504466 
0.1834471 0.18395287 -0.15238228 
0.2503643 0.23375085 -0.045406118 
0.2567147 0.17506036 0.013406923 
0.26226938 0.1638084 -0.05644927 
0.11468728 0.088768855 -0.1619983 
0.26684943 0.11860044 -0.1058293 
0.23093459 0.11677343 -0.14562963 
0.05174058 0.2389555 -0.072998226 
0.054665238 0.24809235 -0.1040586 
0.25877595 0.17030123 -0.10287074 
0.054773767 0.20691827 0.10217856 
0.08740293 0.2524482 0.13374455 
0.081347965 0.25064403 0.06684975 
0.024933005 0.1857575 0.1760494 
0.008135183 0.18486148 0.10800419 
0.06581274 0.2070348 0.22979397 
0.09460305 0.25109726 0.27490586 
0.09243038 0.25319877 0.20361122 
0.066177905 0.20380002 0.30003437 
0.021456305 0.18058285 0.25668883 
0.021910256 0.17706284 0.32812208 
0.26162857 0.117265984 0.12942836 
0.27407828 0.06764484 0.08922042 
0.2647826 0.11858656 0.062425617 
0.25737438 0.10642122 0.28114843 
0.27026916 0.06255207 0.22940661 
0.25886258 0.11506382 0.20048401 
0.23898497 0.24402168 0.09520956 
0.2479578 0.17697984 0.15255222 
0.25176454 0.17744407 0.082438625 
0.23229021 0.24119663 0.23776883 
0.24103136 0.17491427 0.29699063 
0.2447241 0.17527929 0.22435302 
0.06914939 0.21341205 0.1692304 
0.2719345 0.065774545 0.15952551 
0.23546189 0.24203232 0.16727608 
0.095744416 0.3187383 -0.10599634 
0.13363037 0.3620997 -0.13769343 
0.11332497 0.3074444 -0.14199232 
0.084496975 0.2798531 -0.13533004 
0.06970897 0.27429518 -0.11553751 
0.09414199 0.29657963 0.010148203 
0.11724263 0.35234988 -0.04953619 
0.08781309 0.30123842 -0.05148416 
0.2286056 0.34399062 -0.09789068 
0.2150022 0.30496487 -0.1352572 
0.20487076 0.36407202 -0.13541588 
0.16371784 0.31962946 -0.14928581 
0.22199036 0.36834335 -0.039112274 
0.22824615 0.31727284 0.03606745 
0.23916304 0.30282003 -0.040821895 
0.20464286 0.3953281 -0.100243896 
0.17458107 0.4061973 -0.13372645 
0.17209917 0.40821707 -0.104675904 
0.20443475 0.39649522 -0.0246731 
0.18437222 0.40465337 -0.057532422 
0.18416016 0.39760536 -0.008272045 
0.1279025 0.35330272 0.024720225 
0.15421125 0.38861883 -0.02502419 
0.14712393 0.39844602 -0.12436638 
0.15218452 0.39654854 -0.14332926 
0.19581103 0.39665258 -0.13702632 
0.17212287 0.3813855 -0.14700949 
0.2086662 0.3987811 -0.055265576 
0.20208827 0.37761647 0.024035295 
0.1649588 0.38305503 0.031928062 
0.12469816 0.3716578 -0.10488801 
0.0705558 0.27326977 -0.0809632 
0.24052063 0.2798248 -0.09861554 
0.14850327 0.3947792 -0.08166474 
0.11197059 0.30645713 0.1578936 
0.14083347 0.3558555 0.09907696 
0.10571846 0.30485553 0.084223464 
0.11837776 0.31121927 0.23889071 
0.14253268 0.34508783 0.29714903 
0.14648068 0.35406232 0.23928274 
0.2033666 0.34976712 0.16121022 
0.2248909 0.3059851 0.11921591 
0.20506848 0.35670847 0.09157944 
0.17363396 0.36858267 0.13715401 
0.17813379 0.37706345 0.07748756 
0.20059246 0.3450496 0.29943615 
0.21986282 0.3017781 0.26047957 
0.20195276 0.3471279 0.2304591 
0.17305896 0.36241478 0.2716919 
0.17323008 0.36522043 0.20536809 
0.14087972 0.3502433 0.17942199 
0.22227632 0.30292705 0.19075666 
0.28360182 0.06496038 -0.1170506 
0.27606198 0.027171172 -0.13981426 
0.26495975 0.07604796 -0.13832591 
0.28420597 0.068052046 -0.07633218 
0.29221788 0.021214835 -0.106049575 
0.28381482 0.018891815 0.029024214 
0.27510267 0.075778574 0.033122294 
0.2901319 0.018420395 -0.051453214 
0.28078791 0.020977106 0.11680215 
0.27067053 0.05335372 0.2877229 
0.27759528 0.020269848 0.25809664 
0.27899665 0.021761365 0.18992311 
0.1824494 0.25791264 -0.15067592 
0.24433318 0.24284337 0.022706604 
0.22902645 0.24095346 0.3078126 
0.060506314 0.21639958 0.04113732 
0.06697558 -0.0063838717 0.39339322 
0.023028297 0.014847782 0.41535854 
0.03338914 0.0075973696 0.36084735 
0.069705516 0.0010977263 0.5020218 
0.022726674 0.022573672 0.549225 
0.021069642 0.019295938 0.48010647 
0.044814944 0.14462787 0.58849907 
0.06973364 0.15775208 0.5525373 
0.045868255 0.15154779 0.5364613 
0.068164654 0.20066294 0.3700503 
0.09931441 0.24446547 0.41757792 
0.0966781 0.24810259 0.34637916 
0.07084007 0.19405138 0.4388892 
0.025393393 0.17280889 0.39752585 
0.03452245 0.16685647 0.4547333 
0.09221017 0.18883705 0.56124794 
0.10203224 0.23441178 0.4982209 
0.06707901 0.17407927 0.50381005 
0.2516498 0.1135661 0.35926172 
0.2632168 0.06274837 0.41452968 
0.26649934 0.06107773 0.34515923 
0.24320477 0.115554176 0.50099516 
0.25583622 0.059422024 0.5702805 
0.26019788 0.06229208 0.48613846 
0.22571948 0.24080783 0.3774545 
0.23287204 0.17622939 0.4379124 
0.23688932 0.17585939 0.36818266 
0.21903893 0.24129552 0.5148741 
0.22387385 0.18066274 0.5739416 
0.22845967 0.17790818 0.5059188 
0.24757344 0.11459987 0.430441 
0.008697955 0.14871216 0.5556894 
0.018653087 0.15672487 0.50114524 
0.23637816 0.124931134 0.5609138 
0.06033711 0.002540185 0.44705296 
0.22243921 0.24071005 0.4465279 
0.09032783 0.003891951 0.64901614 
0.04303955 0.033551797 0.7037001 
0.028678993 0.026548047 0.6235604 
0.02809883 0.13318622 0.6935749 
0.062091988 0.14571095 0.6445191 
0.027263222 0.1383383 0.64157766 
0.035484597 0.055450607 0.77064943 
0.10269454 0.063292496 0.79862595 
0.04742795 0.06883421 0.7990247 
0.052211538 0.09265143 0.7959797 
0.08888511 0.14072755 0.7691265 
0.025764994 0.11732813 0.7556416 
0.106306195 0.1859153 0.71515447 
0.12103072 0.23837732 0.6678323 
0.09614991 0.18361661 0.63930106 
0.1317735 0.1664895 0.7963867 
0.1346829 0.22509834 0.78198767 
0.118588895 0.1895985 0.7639191 
0.2327241 0.11195177 0.6400506 
0.23717046 0.035210285 0.70489323 
0.2528904 0.0380793 0.63770056 
0.1504055 0.09812286 0.8030082 
0.16359994 0.028980246 0.786918 
0.1911211 0.10582954 0.7797107 
0.20032625 -0.0024383925 0.793683 
0.16458127 0.030572012 0.8042877 
0.21107516 0.037969187 0.76800114 
0.20731415 0.24487472 0.6760606 
0.21694605 0.19931029 0.6361176 
0.21148503 0.25666642 0.6298433 
0.2124686 0.1753417 0.70063263 
0.19402635 0.24402916 0.72604394 
0.2014389 0.18915004 0.7465594 
0.1847208 0.21822968 0.772116 
0.16870333 0.17609127 0.7966789 
0.1942403 0.16717646 0.7728436 
0.0977954 0.031461082 0.7581382 
0.14817427 0.21738443 0.80176747 
0.07178335 0.1463846 0.7067343 
0.20788419 0.13856006 0.7460942 
0.22192809 0.108433686 0.7110896 
0.12732762 0.2331863 0.73465824 
0.2159966 0.08558273 0.74641454 
0.13474151 -0.0025914926 0.7400277 
0.10011269 0.011516595 0.7112714 
0.10606119 0.11052403 0.8016877 
0.11964388 0.298411 0.3897833 
0.14344028 0.3357985 0.43678004 
0.14279273 0.3401484 0.3667044 
0.1262415 0.29563794 0.5247737 
0.14703679 0.33242893 0.5448588 
0.14074394 0.3292172 0.49291083 
0.19850647 0.33943564 0.43938515 
0.21518217 0.29975995 0.39933342 
0.1992998 0.34273565 0.36898887 
0.17212224 0.35443795 0.41110298 
0.17230931 0.3584373 0.33945754 
0.19366774 0.33590543 0.56563556 
0.21057408 0.29778188 0.5338643 
0.20070547 0.3336153 0.49951893 
0.17142858 0.34804773 0.49703997 
0.16832483 0.34499013 0.56989694 
0.15133387 0.3284613 0.60315406 
0.13347709 0.30437553 0.5774804 
0.12172251 0.29475063 0.45870137 
0.21331355 0.2982229 0.46717635 
0.15844014 0.3173136 0.66106045 
0.18060145 0.32284695 0.67488956 
0.17850283 0.3377255 0.62710834 
0.19435704 0.32436383 0.65940213 
0.20511383 0.29607594 0.64928937 
0.1989277 0.32713798 0.62387025 
0.19499946 0.29421103 0.6878673 
0.17330275 0.2953914 0.70745575 
0.14450425 0.27905828 0.70659935 
0.13537906 0.29119372 0.6335373 
0.1548127 0.26450783 0.7885083 
0.14396346 0.26184168 0.76685524 
0.14724636 0.25045124 0.7955091 
0.1661827 0.2663129 0.7588811 
0.27364987 0.02104041 0.39175412 
0.2700221 0.021195024 0.5271188 
0.2716712 0.021407228 0.46075055 
0.11606456 0.24887669 0.58500504 
0.21530485 0.24559993 0.5800001 
0.16271114 0.23928827 0.79495305 
0.07735158 0.002313105 0.5727607 
-0.0006063123 0.14422944 0.61067307 
0.07719523 0.15822756 0.59467167 
0.20813419 0.29817188 0.5967822 
0.26472983 0.015238024 0.60974574 
-0.027200561 -0.0038419883 -0.14060926 
-0.01442322 -0.008756733 0.0036045122 
-0.045435086 -0.01672857 -0.03794665 
-0.0043795276 0.0036139423 0.10444629 
-0.03514447 0.0073415255 0.08590017 
0.011952706 0.005240317 0.22287297 
-0.037526112 0.17379814 0.2985405 
0.0045790393 0.0038334143 0.15525666 
-0.0028872597 -0.0025370843 0.05564514 
-0.024249952 0.02080078 0.35874993 
-0.03403943 0.15297046 0.5775907 
0.016839061 0.07377283 0.793396 
-0.28800142 0.023245119 0.30107707 
0.02646609 0.0043100994 0.29630107 
0.27704245 -0.018579602 0.3068263 
0.28464627 -0.03945739 0.023395935 
-0.20874494 -0.031367227 0.8004905 
0.06803353 -0.014528711 0.33332598 
0.27205056 -0.0060728714 0.55999994 
0.26971567 0.014764197 0.5757804 
-0.28622475 -0.10339151 0.32848606 
-0.21385944 -0.19559056 0.32971215 
0.12635812 -0.104664765 0.3010068 
0.1176997 0.3019727 0.31859058 
0.21746817 0.300865 0.32996666 
0.27586544 0.019939357 0.32419205 
3 0 1 2 
3 3 4 5 
3 6 7 8 
3 9 10 11 
3 2 6 8 
3 12 9 4 
3 5 1 13 
3 6 11 14 
3 4 6 1 
3 15 16 17 
3 18 19 20 
3 21 22 23 
3 24 25 26 
3 27 21 16 
3 28 24 19 
3 20 27 15 
3 29 26 22 
3 19 29 27 
3 30 31 32 
3 33 31 34 
3 35 32 33 
3 36 37 38 
3 37 39 40 
3 41 42 43 
3 44 45 46 
3 47 48 49 
3 47 50 51 
3 43 48 52 
3 42 49 43 
3 44 53 54 
3 55 44 46 
3 52 30 43 
3 35 43 30 
3 46 36 38 
3 56 37 31 
3 31 40 34 
3 51 55 48 
3 50 57 51 
3 52 38 56 
3 52 55 46 
3 58 59 60 
3 59 61 62 
3 63 64 65 
3 64 66 67 
3 68 69 70 
3 71 72 73 
3 74 60 69 
3 75 65 72 
3 65 76 58 
3 76 67 61 
3 73 74 68 
3 72 58 74 
3 77 78 79 
3 2 33 0 
3 40 3 5 
3 8 80 41 
3 34 5 13 
3 8 35 2 
3 62 15 17 
3 67 18 20 
3 61 20 15 
3 79 0 77 
3 33 78 81 
3 17 12 3 
3 82 23 10 
3 16 82 12 
3 60 83 36 
3 83 62 39 
3 54 69 45 
3 69 36 45 
3 39 17 3 
3 77 33 81 
3 78 13 79 
3 84 85 86 
3 87 88 89 
3 85 90 91 
3 84 89 92 
3 93 94 95 
3 96 97 93 
3 98 99 100 
3 99 101 102 
3 103 104 105 
3 103 106 107 
3 108 105 109 
3 110 111 112 
3 113 114 115 
3 116 117 118 
3 119 120 121 
3 122 100 114 
3 103 116 118 
3 120 106 108 
3 98 109 123 
3 101 109 105 
3 118 111 124 
3 121 122 113 
3 125 118 124 
3 120 98 122 
3 126 127 128 
3 129 130 126 
3 131 132 133 
3 134 135 136 
3 137 138 139 
3 140 141 142 
3 142 143 137 
3 141 138 143 
3 130 133 126 
3 135 144 129 
3 145 137 146 
3 130 147 127 
3 130 145 146 
3 131 139 148 
3 140 149 134 
3 146 131 130 
3 149 145 144 
3 102 84 86 
3 87 104 150 
3 88 103 89 
3 90 110 91 
3 112 151 152 
3 112 91 110 
3 153 154 155 
3 101 87 84 
3 89 125 92 
3 151 117 153 
3 125 90 92 
3 95 127 93 
3 130 94 97 
3 147 156 96 
3 157 148 158 
3 93 147 96 
3 146 97 156 
3 148 159 158 
3 150 94 88 
3 107 128 104 
3 107 129 126 
3 133 154 116 
3 136 160 119 
3 107 133 116 
3 160 129 106 
3 150 128 95 
3 126 88 94 
3 155 132 157 
3 161 162 163 
3 164 165 166 
3 163 167 168 
3 164 162 169 
3 162 170 167 
3 171 172 173 
3 174 175 176 
3 177 176 172 
3 178 179 180 
3 181 182 183 
3 182 184 183 
3 183 185 181 
3 186 182 187 
3 188 189 190 
3 191 192 193 
3 194 195 196 
3 197 198 199 
3 197 200 201 
3 202 199 198 
3 197 203 204 
3 205 206 207 
3 179 191 193 
3 208 200 184 
3 184 202 185 
3 207 189 209 
3 206 210 189 
3 178 185 211 
3 202 212 191 
3 213 188 190 
3 186 210 208 
3 190 186 187 
3 214 203 201 
3 215 203 206 
3 210 201 208 
3 211 202 191 
3 216 217 218 
3 219 220 221 
3 222 223 224 
3 225 226 227 
3 228 229 230 
3 231 232 233 
3 222 234 235 
3 225 236 237 
3 228 238 216 
3 231 239 219 
3 240 217 241 
3 242 220 243 
3 239 218 220 
3 224 244 225 
3 233 245 228 
3 243 218 240 
3 224 237 234 
3 233 216 239 
3 163 180 161 
3 165 213 166 
3 167 181 168 
3 190 167 170 
3 168 178 163 
3 213 170 166 
3 240 173 172 
3 242 176 175 
3 243 172 176 
3 246 173 165 
3 238 188 217 
3 247 222 195 
3 230 205 207 
3 241 188 248 
3 249 222 235 
3 230 209 238 
3 241 165 173 
3 250 251 252 
3 253 254 255 
3 256 255 251 
3 257 258 259 
3 260 261 258 
3 262 263 264 
3 265 266 267 
3 268 269 270 
3 271 272 273 
3 274 275 276 
3 277 278 279 
3 268 280 281 
3 271 282 283 
3 274 284 262 
3 277 285 265 
3 286 263 287 
3 288 266 289 
3 285 264 266 
3 270 290 271 
3 279 291 274 
3 289 264 286 
3 270 283 280 
3 279 262 285 
3 292 293 294 
3 295 296 297 
3 298 299 300 
3 296 300 297 
3 301 296 302 
3 303 304 305 
3 306 307 308 
3 309 310 306 
3 311 312 313 
3 313 314 311 
3 315 316 317 
3 292 307 318 
3 308 294 306 
3 300 319 298 
3 317 304 320 
3 321 322 323 
3 324 303 305 
3 318 303 325 
3 315 326 327 
3 300 323 322 
3 328 319 329 
3 330 329 313 
3 318 299 293 
3 300 325 297 
3 314 307 310 
3 331 314 310 
3 330 317 328 
3 318 322 320 
3 330 332 315 
3 318 329 300 
3 322 317 320 
3 319 323 298 
3 286 252 251 
3 288 255 254 
3 289 251 255 
3 258 324 259 
3 295 261 333 
3 261 325 258 
3 334 259 254 
3 304 267 305 
3 272 306 273 
3 327 277 316 
3 324 267 288 
3 273 294 282 
3 316 265 304 
3 259 288 254 
3 335 336 337 
3 338 339 340 
3 341 339 342 
3 343 340 341 
3 339 344 342 
3 345 346 347 
3 341 335 337 
3 337 343 341 
3 345 348 349 
3 350 349 351 
3 351 352 335 
3 344 350 342 
3 344 353 345 
3 335 350 351 
3 354 355 356 
3 357 358 359 
3 356 360 357 
3 361 362 363 
3 364 365 366 
3 367 368 369 
3 370 368 371 
3 372 373 374 
3 375 376 377 
3 378 379 380 
3 381 382 383 
3 361 378 380 
3 369 383 367 
3 363 384 367 
3 383 385 378 
3 366 372 374 
3 386 387 388 
3 389 366 362 
3 374 368 384 
3 371 373 375 
3 362 374 384 
3 386 390 391 
3 363 383 378 
3 392 393 394 
3 394 395 396 
3 397 398 399 
3 399 400 401 
3 402 403 404 
3 405 406 407 
3 408 409 410 
3 411 412 413 
3 403 414 415 
3 403 416 404 
3 417 418 419 
3 414 392 415 
3 409 420 410 
3 419 397 417 
3 412 421 413 
3 422 399 393 
3 393 401 395 
3 407 423 402 
3 424 413 409 
3 417 422 414 
3 413 425 409 
3 414 406 417 
3 426 427 428 
3 429 430 431 
3 432 433 434 
3 435 436 437 
3 438 426 433 
3 439 431 427 
3 432 437 438 
3 440 441 442 
3 443 444 445 
3 446 445 441 
3 338 447 448 
3 385 428 379 
3 431 449 450 
3 387 429 388 
3 451 433 382 
3 386 436 452 
3 436 453 452 
3 454 431 450 
3 429 390 388 
3 391 437 386 
3 382 426 385 
3 439 391 390 
3 442 455 456 
3 425 440 420 
3 457 444 458 
3 459 421 460 
3 459 458 444 
3 461 424 408 
3 462 463 411 
3 441 457 455 
3 421 446 425 
3 464 411 424 
3 336 389 361 
3 343 379 338 
3 348 364 349 
3 450 346 353 
3 352 364 389 
3 454 353 448 
3 336 380 343 
3 465 348 347 
3 428 447 466 
3 354 402 404 
3 456 355 467 
3 357 405 407 
3 457 358 360 
3 356 407 402 
3 455 360 355 
3 346 354 347 
3 416 365 468 
3 392 376 372 
3 376 396 377 
3 453 410 452 
3 365 392 372 
3 452 420 387 
3 465 416 468 
3 469 442 430 
3 354 465 347 
3 449 467 346 
3 430 456 449 
3 420 469 387 
3 453 461 408 
3 379 466 338 
3 447 454 448 
3 470 471 472 
3 473 474 475 
3 472 476 473 
3 477 478 479 
3 479 480 481 
3 482 483 484 
3 485 486 487 
3 488 489 490 
3 491 492 493 
3 494 495 496 
3 497 498 499 
3 500 501 502 
3 503 504 505 
3 495 506 507 
3 495 508 496 
3 501 509 510 
3 483 496 484 
3 499 485 487 
3 490 500 502 
3 505 491 493 
3 511 490 483 
3 493 512 485 
3 502 513 494 
3 514 505 498 
3 483 502 494 
3 498 493 485 
3 513 510 506 
3 496 515 484 
3 516 517 518 
3 519 520 521 
3 522 523 524 
3 525 526 527 
3 527 522 524 
3 526 528 522 
3 529 530 531 
3 532 533 534 
3 535 536 537 
3 538 539 540 
3 541 536 542 
3 530 543 544 
3 518 529 531 
3 533 519 521 
3 523 542 535 
3 539 545 525 
3 541 528 545 
3 546 523 517 
3 525 547 519 
3 529 537 548 
3 540 549 532 
3 517 535 529 
3 549 525 519 
3 550 514 497 
3 551 552 503 
3 553 503 514 
3 472 482 470 
3 512 554 486 
3 475 488 473 
3 555 476 492 
3 473 511 472 
3 492 471 512 
3 477 546 516 
3 547 556 520 
3 480 524 481 
3 481 546 479 
3 547 480 478 
3 475 556 477 
3 557 518 489 
3 521 555 491 
3 531 558 500 
3 552 533 504 
3 489 531 500 
3 504 521 491 
3 509 530 544 
3 477 557 475 
3 520 474 555 
3 552 559 534 
3 560 561 562 
3 563 564 565 
3 565 566 567 
3 568 569 570 
3 571 568 572 
3 570 572 568 
3 573 574 575 
3 576 577 578 
3 579 580 581 
3 582 581 580 
3 583 584 585 
3 586 575 561 
3 566 582 567 
3 560 567 586 
3 580 587 588 
3 582 588 573 
3 585 576 578 
3 563 589 590 
3 579 585 591 
3 585 587 591 
3 567 573 586 
3 592 593 594 
3 595 592 596 
3 597 598 599 
3 600 601 602 
3 603 604 605 
3 606 607 608 
3 609 610 611 
3 612 613 614 
3 611 603 605 
3 614 606 608 
3 615 599 593 
3 597 595 601 
3 608 616 603 
3 617 614 610 
3 610 608 603 
3 618 619 620 
3 618 621 622 
3 623 624 625 
3 626 627 628 
3 629 628 627 
3 630 631 632 
3 633 634 635 
3 636 637 638 
3 619 629 620 
3 639 640 624 
3 641 634 642 
3 619 641 642 
3 633 628 643 
3 644 643 628 
3 640 638 637 
3 636 630 645 
3 646 638 647 
3 618 624 648 
3 649 618 622 
3 626 632 650 
3 637 633 635 
3 651 637 635 
3 633 630 626 
3 624 651 648 
3 642 644 619 
3 651 641 648 
3 652 653 654 
3 655 656 657 
3 658 659 660 
3 661 660 662 
3 663 664 665 
3 666 665 667 
3 661 653 668 
3 666 657 656 
3 655 668 652 
3 665 669 658 
3 667 658 661 
3 667 668 657 
3 670 671 672 
3 673 674 670 
3 587 672 588 
3 574 672 671 
3 675 577 676 
3 673 577 677 
3 673 587 578 
3 616 678 604 
3 679 680 607 
3 607 681 616 
3 564 622 621 
3 621 566 564 
3 650 581 627 
3 682 627 581 
3 570 623 625 
3 570 649 589 
3 632 683 583 
3 590 649 622 
3 650 583 579 
3 566 629 682 
3 593 654 594 
3 659 617 609 
3 598 655 599 
3 664 684 612 
3 599 652 593 
3 669 612 617 
3 685 594 569 
3 592 571 596 
3 605 676 576 
3 683 611 584 
3 584 605 576 
3 654 639 623 
3 660 631 646 
3 662 646 647 
3 653 647 639 
3 594 623 569 
3 631 609 683 
3 604 675 676 
3 686 687 688 
3 689 690 691 
3 692 693 694 
3 695 696 697 
3 698 699 700 
3 701 702 703 
3 704 705 706 
3 707 708 709 
3 710 711 712 
3 713 714 715 
3 712 716 704 
3 717 694 718 
3 693 701 703 
3 703 694 693 
3 715 719 707 
3 720 691 687 
3 698 702 696 
3 703 700 718 
3 716 709 705 
3 721 715 711 
3 711 707 716 
3 722 723 724 
3 725 726 727 
3 728 729 730 
3 731 732 733 
3 729 731 730 
3 734 735 736 
3 737 738 739 
3 740 741 742 
3 743 744 745 
3 746 744 747 
3 748 745 744 
3 749 750 751 
3 752 753 754 
3 755 756 757 
3 744 729 758 
3 743 729 747 
3 756 759 737 
3 760 736 726 
3 752 740 750 
3 752 761 762 
3 732 737 739 
3 756 745 757 
3 723 758 728 
3 733 760 725 
3 739 763 734 
3 764 741 762 
3 764 761 745 
3 755 754 753 
3 732 734 760 
3 757 761 754 
3 765 758 766 
3 743 737 767 
3 768 769 770 
3 771 772 773 
3 774 775 776 
3 777 776 778 
3 779 780 781 
3 779 782 783 
3 777 770 769 
3 772 782 773 
3 784 772 785 
3 786 773 769 
3 781 787 774 
3 782 774 777 
3 782 769 773 
3 788 789 790 
3 791 792 793 
3 791 790 789 
3 794 789 795 
3 796 788 797 
3 798 799 800 
3 801 796 799 
3 705 802 706 
3 708 803 709 
3 709 804 705 
3 696 768 697 
3 775 721 710 
3 805 771 702 
3 780 806 713 
3 702 786 696 
3 787 713 721 
3 735 796 797 
3 792 749 751 
3 794 753 749 
3 738 800 799 
3 801 807 755 
3 763 799 796 
3 801 753 795 
3 807 800 759 
3 808 724 690 
3 726 692 727 
3 736 805 701 
3 740 708 719 
3 806 750 714 
3 809 692 717 
3 810 736 701 
3 714 740 719 
3 784 790 783 
3 793 811 779 
3 790 779 783 
3 797 784 785 
3 805 797 785 
3 811 751 806 
3 812 708 742 
3 813 371 50 
3 375 814 815 
3 50 375 815 
3 192 560 562 
3 563 198 204 
3 571 215 205 
3 215 563 204 
3 198 560 212 
3 816 223 817 
3 818 226 244 
3 245 596 229 
3 819 601 232 
3 820 244 223 
3 232 595 245 
3 821 817 247 
3 229 571 205 
3 822 687 269 
3 290 690 272 
3 291 699 275 
3 717 278 823 
3 269 691 290 
3 718 291 278 
3 309 723 331 
3 725 326 332 
3 728 824 311 
3 312 733 313 
3 731 824 730 
3 331 728 311 
3 733 332 313 
3 809 326 727 
3 272 724 309 
3 809 823 327 
3 14 161 7 
3 11 246 164 
3 14 164 169 
3 80 179 42 
3 193 813 47 
3 196 53 57 
3 814 194 815 
3 815 196 57 
3 42 193 47 
3 53 249 54 
3 23 177 171 
3 26 825 174 
3 22 174 177 
3 235 68 70 
3 237 71 73 
3 234 73 68 
3 10 171 246 
3 249 70 54 
3 7 180 80 
3 370 561 369 
3 381 574 451 
3 561 381 369 
3 674 434 671 
3 675 435 677 
3 677 432 674 
3 396 820 816 
3 401 826 818 
3 395 818 820 
3 678 464 461 
3 680 827 462 
3 681 462 464 
3 396 821 377 
3 675 461 828 
3 451 671 434 
3 151 250 152 
3 155 253 153 
3 153 256 151 
3 281 113 115 
3 283 119 121 
3 280 121 113 
3 158 257 157 
3 159 260 158 
3 293 136 294 
3 139 302 295 
3 301 140 299 
3 301 138 829 
3 299 134 293 
3 157 334 155 
3 282 136 119 
3 295 159 139 
3 506 686 507 
3 686 830 507 
3 510 808 689 
3 506 689 720 
3 802 553 550 
3 803 831 551 
3 804 551 553 
3 543 722 544 
3 741 534 742 
3 536 744 537 
3 746 540 748 
3 746 536 538 
3 537 765 548 
3 741 540 532 
3 765 543 548 
3 509 722 808 
3 832 559 831 
3 812 534 559 
3 86 28 18 
3 833 152 25 
3 85 833 28 
3 100 834 63 
3 834 102 66 
3 115 75 71 
3 114 63 75 
3 66 86 18 
3 825 252 175 
3 284 221 263 
3 227 822 268 
3 276 819 231 
3 287 221 242 
3 227 281 236 
3 276 219 284 
3 287 175 252 
3 359 554 470 
3 508 398 835 
3 398 830 400 
3 482 418 405 
3 487 458 460 
3 463 499 412 
3 515 835 419 
3 412 487 460 
3 418 515 419 
3 359 482 405 
3 486 358 458 
3 827 497 463 
3 600 697 598 
3 695 602 699 
3 606 706 679 
3 684 712 613 
3 613 704 606 
3 836 770 656 
3 776 837 663 
3 778 663 666 
3 778 656 770 
3 697 836 598 
3 837 710 684 
3 706 838 679 
3 25 250 825 
3 236 115 71 
3 830 826 400 
3 838 550 827 
3 826 822 226 
3 275 602 819 
3 813 562 370 
3 821 814 377 
3 0 13 1 
3 3 12 4 
3 6 14 7 
3 9 82 10 
3 2 1 6 
3 12 82 9 
3 5 4 1 
3 6 9 11 
3 4 9 6 
3 15 27 16 
3 18 28 19 
3 21 29 22 
3 24 833 25 
3 27 29 21 
3 28 833 24 
3 20 19 27 
3 29 24 26 
3 19 24 29 
3 30 56 31 
3 33 32 31 
3 35 30 32 
3 36 83 37 
3 37 83 39 
3 41 80 42 
3 44 54 45 
3 47 51 48 
3 47 813 50 
3 43 49 48 
3 42 47 49 
3 44 57 53 
3 55 57 44 
3 52 56 30 
3 35 41 43 
3 46 45 36 
3 56 38 37 
3 31 37 40 
3 51 57 55 
3 50 815 57 
3 52 46 38 
3 52 48 55 
3 58 76 59 
3 59 76 61 
3 63 834 64 
3 64 834 66 
3 68 74 69 
3 71 75 72 
3 74 58 60 
3 75 63 65 
3 65 64 76 
3 76 64 67 
3 73 72 74 
3 72 65 58 
3 77 81 78 
3 2 35 33 
3 40 39 3 
3 8 7 80 
3 34 40 5 
3 8 41 35 
3 62 61 15 
3 67 66 18 
3 61 67 20 
3 79 13 0 
3 33 34 78 
3 17 16 12 
3 82 21 23 
3 16 21 82 
3 60 59 83 
3 83 59 62 
3 54 70 69 
3 69 60 36 
3 39 62 17 
3 77 0 33 
3 78 34 13 
3 84 92 85 
3 87 150 88 
3 85 92 90 
3 84 87 89 
3 93 97 94 
3 96 156 97 
3 98 123 99 
3 99 123 101 
3 103 107 104 
3 103 108 106 
3 108 103 105 
3 110 124 111 
3 113 122 114 
3 116 154 117 
3 119 160 120 
3 122 98 100 
3 103 107 116 
3 120 160 106 
3 98 108 109 
3 101 123 109 
3 118 117 111 
3 121 120 122 
3 125 103 118 
3 120 108 98 
3 126 130 127 
3 129 144 130 
3 131 148 132 
3 134 149 135 
3 137 143 138 
3 140 829 141 
3 142 141 143 
3 141 829 138 
3 130 131 133 
3 135 149 144 
3 145 142 137 
3 130 146 147 
3 130 144 145 
3 131 137 139 
3 140 142 149 
3 146 137 131 
3 149 142 145 
3 102 101 84 
3 87 105 104 
3 88 107 103 
3 90 124 110 
3 112 111 151 
3 112 152 91 
3 153 117 154 
3 101 105 87 
3 89 103 125 
3 151 111 117 
3 125 124 90 
3 95 128 127 
3 130 126 94 
3 147 146 156 
3 157 132 148 
3 93 127 147 
3 146 130 97 
3 148 139 159 
3 150 95 94 
3 107 126 128 
3 107 106 129 
3 133 132 154 
3 136 135 160 
3 107 126 133 
3 160 135 129 
3 150 104 128 
3 126 107 88 
3 155 154 132 
3 161 169 162 
3 164 246 165 
3 163 162 167 
3 164 166 162 
3 162 166 170 
3 171 177 172 
3 174 825 175 
3 177 174 176 
3 178 211 179 
3 181 187 182 
3 182 208 184 
3 183 184 185 
3 186 208 182 
3 188 209 189 
3 191 212 192 
3 194 247 195 
3 197 204 198 
3 197 199 200 
3 202 200 199 
3 197 201 203 
3 205 215 206 
3 179 211 191 
3 208 201 200 
3 184 200 202 
3 207 206 189 
3 206 214 210 
3 178 181 185 
3 202 198 212 
3 213 248 188 
3 186 189 210 
3 190 189 186 
3 214 206 203 
3 215 204 203 
3 210 214 201 
3 211 185 202 
3 216 238 217 
3 219 239 220 
3 222 817 223 
3 225 244 226 
3 228 245 229 
3 231 819 232 
3 222 224 234 
3 225 227 236 
3 228 230 238 
3 231 233 239 
3 240 218 217 
3 242 221 220 
3 239 216 218 
3 224 223 244 
3 233 232 245 
3 243 220 218 
3 224 225 237 
3 233 228 216 
3 163 178 180 
3 165 248 213 
3 167 187 181 
3 190 187 167 
3 168 181 178 
3 213 190 170 
3 240 241 173 
3 242 243 176 
3 243 240 172 
3 246 171 173 
3 238 209 188 
3 247 817 222 
3 230 229 205 
3 241 217 188 
3 249 195 222 
3 230 207 209 
3 241 248 165 
3 250 256 251 
3 253 334 254 
3 256 253 255 
3 257 260 258 
3 260 333 261 
3 262 284 263 
3 265 285 266 
3 268 822 269 
3 271 290 272 
3 274 291 275 
3 277 823 278 
3 268 270 280 
3 271 273 282 
3 274 276 284 
3 277 279 285 
3 286 264 263 
3 288 267 266 
3 285 262 264 
3 270 269 290 
3 279 278 291 
3 289 266 264 
3 270 271 283 
3 279 274 262 
3 292 318 293 
3 295 302 296 
3 298 301 299 
3 296 298 300 
3 301 298 296 
3 303 320 304 
3 306 310 307 
3 309 331 310 
3 311 824 312 
3 313 329 314 
3 315 327 316 
3 292 308 307 
3 308 292 294 
3 300 329 319 
3 317 316 304 
3 321 328 322 
3 324 325 303 
3 318 320 303 
3 315 332 326 
3 300 298 323 
3 328 321 319 
3 330 328 329 
3 318 300 299 
3 300 318 325 
3 314 329 307 
3 331 311 314 
3 330 315 317 
3 318 300 322 
3 330 313 332 
3 318 307 329 
3 322 328 317 
3 319 321 323 
3 286 287 252 
3 288 289 255 
3 289 286 251 
3 258 325 324 
3 295 297 261 
3 261 297 325 
3 334 257 259 
3 304 265 267 
3 272 309 306 
3 327 823 277 
3 324 305 267 
3 273 306 294 
3 316 277 265 
3 259 324 288 
3 335 352 336 
3 338 448 339 
3 341 340 339 
3 343 338 340 
3 339 448 344 
3 345 353 346 
3 341 342 335 
3 337 336 343 
3 345 347 348 
3 350 345 349 
3 351 349 352 
3 344 345 350 
3 344 448 353 
3 335 342 350 
3 354 467 355 
3 357 360 358 
3 356 355 360 
3 361 389 362 
3 364 468 365 
3 367 384 368 
3 370 369 368 
3 372 376 373 
3 375 373 376 
3 378 385 379 
3 381 451 382 
3 361 363 378 
3 369 381 383 
3 363 362 384 
3 383 382 385 
3 366 365 372 
3 386 452 387 
3 389 364 366 
3 374 373 368 
3 371 368 373 
3 362 366 374 
3 386 388 390 
3 363 367 383 
3 392 422 393 
3 394 393 395 
3 397 835 398 
3 399 398 400 
3 402 423 403 
3 405 418 406 
3 408 424 409 
3 411 463 412 
3 403 423 414 
3 403 415 416 
3 417 406 418 
3 414 422 392 
3 409 425 420 
3 419 835 397 
3 412 460 421 
3 422 397 399 
3 393 399 401 
3 407 406 423 
3 424 411 413 
3 417 397 422 
3 413 421 425 
3 414 423 406 
3 426 439 427 
3 429 469 430 
3 432 438 433 
3 435 828 436 
3 438 439 426 
3 439 429 431 
3 432 435 437 
3 440 446 441 
3 443 459 444 
3 446 443 445 
3 338 466 447 
3 385 426 428 
3 431 430 449 
3 387 469 429 
3 451 434 433 
3 386 437 436 
3 436 828 453 
3 454 427 431 
3 429 439 390 
3 391 438 437 
3 382 433 426 
3 439 438 391 
3 442 441 455 
3 425 446 440 
3 457 445 444 
3 459 443 421 
3 459 460 458 
3 461 464 424 
3 462 827 463 
3 441 445 457 
3 421 443 446 
3 464 462 411 
3 336 352 389 
3 343 380 379 
3 348 468 364 
3 450 449 346 
3 352 349 364 
3 454 450 353 
3 336 361 380 
3 465 468 348 
3 428 427 447 
3 354 356 402 
3 456 455 355 
3 357 359 405 
3 457 458 358 
3 356 357 407 
3 455 457 360 
3 346 467 354 
3 416 415 365 
3 392 394 376 
3 376 394 396 
3 453 408 410 
3 365 415 392 
3 452 410 420 
3 465 404 416 
3 469 440 442 
3 354 404 465 
3 449 456 467 
3 430 442 456 
3 420 440 469 
3 453 828 461 
3 379 428 466 
3 447 427 454 
3 470 554 471 
3 473 476 474 
3 472 471 476 
3 477 556 478 
3 479 478 480 
3 482 511 483 
3 485 512 486 
3 488 557 489 
3 491 555 492 
3 494 513 495 
3 497 514 498 
3 500 558 501 
3 503 552 504 
3 495 513 506 
3 495 507 508 
3 501 558 509 
3 483 494 496 
3 499 498 485 
3 490 489 500 
3 505 504 491 
3 511 488 490 
3 493 492 512 
3 502 501 513 
3 514 503 505 
3 483 490 502 
3 498 505 493 
3 513 501 510 
3 496 508 515 
3 516 546 517 
3 519 547 520 
3 522 528 523 
3 525 545 526 
3 527 526 522 
3 526 545 528 
3 529 548 530 
3 532 549 533 
3 535 542 536 
3 538 541 539 
3 541 538 536 
3 530 548 543 
3 518 517 529 
3 533 549 519 
3 523 528 542 
3 539 541 545 
3 541 542 528 
3 546 524 523 
3 525 527 547 
3 529 535 537 
3 540 539 549 
3 517 523 535 
3 549 539 525 
3 550 553 514 
3 551 831 552 
3 553 551 503 
3 472 511 482 
3 512 471 554 
3 475 557 488 
3 555 474 476 
3 473 488 511 
3 492 476 471 
3 477 479 546 
3 547 478 556 
3 480 527 524 
3 481 524 546 
3 547 527 480 
3 475 474 556 
3 557 516 518 
3 521 520 555 
3 531 530 558 
3 552 534 533 
3 489 518 531 
3 504 533 521 
3 509 558 530 
3 477 516 557 
3 520 556 474 
3 552 831 559 
3 560 586 561 
3 563 590 564 
3 565 564 566 
3 568 685 569 
3 571 685 568 
3 570 589 572 
3 573 588 574 
3 576 676 577 
3 579 591 580 
3 582 682 581 
3 583 683 584 
3 586 573 575 
3 566 682 582 
3 560 565 567 
3 580 591 587 
3 582 580 588 
3 585 584 576 
3 563 572 589 
3 579 583 585 
3 585 578 587 
3 567 582 573 
3 592 615 593 
3 595 615 592 
3 597 600 598 
3 600 597 601 
3 603 616 604 
3 606 679 607 
3 609 617 610 
3 612 684 613 
3 611 610 603 
3 614 613 606 
3 615 597 599 
3 597 615 595 
3 608 607 616 
3 617 612 614 
3 610 614 608 
3 618 648 619 
3 618 620 621 
3 623 639 624 
3 626 650 627 
3 629 644 628 
3 630 646 631 
3 633 643 634 
3 636 645 637 
3 619 644 629 
3 639 647 640 
3 641 635 634 
3 619 648 641 
3 633 626 628 
3 644 634 643 
3 640 647 638 
3 636 646 630 
3 646 636 638 
3 618 625 624 
3 649 625 618 
3 626 630 632 
3 637 645 633 
3 651 640 637 
3 633 645 630 
3 624 640 651 
3 642 634 644 
3 651 635 641 
3 652 668 653 
3 655 836 656 
3 658 669 659 
3 661 658 660 
3 663 837 664 
3 666 663 665 
3 661 662 653 
3 666 667 657 
3 655 657 668 
3 665 664 669 
3 667 665 658 
3 667 661 668 
3 670 674 671 
3 673 677 674 
3 587 670 672 
3 574 588 672 
3 675 677 577 
3 673 578 577 
3 673 670 587 
3 616 681 678 
3 679 838 680 
3 607 680 681 
3 564 590 622 
3 621 620 566 
3 650 579 581 
3 682 629 627 
3 570 569 623 
3 570 625 649 
3 632 631 683 
3 590 589 649 
3 650 632 583 
3 566 620 629 
3 593 652 654 
3 659 669 617 
3 598 836 655 
3 664 837 684 
3 599 655 652 
3 669 664 612 
3 685 592 594 
3 592 685 571 
3 605 604 676 
3 683 609 611 
3 584 611 605 
3 654 653 639 
3 660 659 631 
3 662 660 646 
3 653 662 647 
3 594 654 623 
3 631 659 609 
3 604 678 675 
3 686 720 687 
3 689 808 690 
3 692 810 693 
3 695 698 696 
3 698 695 699 
3 701 805 702 
3 704 716 705 
3 707 719 708 
3 710 721 711 
3 713 806 714 
3 712 711 716 
3 717 692 694 
3 693 810 701 
3 703 718 694 
3 715 714 719 
3 720 689 691 
3 698 703 702 
3 703 698 700 
3 716 707 709 
3 721 713 715 
3 711 715 707 
3 722 766 723 
3 725 760 726 
3 728 758 729 
3 731 767 732 
3 729 767 731 
3 734 763 735 
3 737 759 738 
3 740 762 741 
3 743 747 744 
3 746 748 744 
3 748 764 745 
3 749 752 750 
3 752 749 753 
3 755 807 756 
3 744 747 729 
3 743 767 729 
3 756 807 759 
3 760 734 736 
3 752 762 740 
3 752 754 761 
3 732 767 737 
3 756 743 745 
3 723 766 758 
3 733 732 760 
3 739 738 763 
3 764 748 741 
3 764 762 761 
3 755 757 754 
3 732 739 734 
3 757 745 761 
3 765 744 758 
3 743 756 737 
3 768 786 769 
3 771 785 772 
3 774 787 775 
3 777 774 776 
3 779 811 780 
3 779 781 782 
3 777 778 770 
3 772 783 782 
3 784 783 772 
3 786 771 773 
3 781 780 787 
3 782 781 774 
3 782 777 769 
3 788 795 789 
3 791 794 792 
3 791 793 790 
3 794 791 789 
3 796 795 788 
3 798 801 799 
3 801 795 796 
3 705 804 802 
3 708 832 803 
3 709 803 804 
3 696 786 768 
3 775 787 721 
3 805 785 771 
3 780 811 806 
3 702 771 786 
3 787 780 713 
3 735 763 796 
3 792 794 749 
3 794 795 753 
3 738 759 800 
3 801 798 807 
3 763 738 799 
3 801 755 753 
3 807 798 800 
3 808 722 724 
3 726 810 692 
3 736 735 805 
3 740 742 708 
3 806 751 750 
3 809 727 692 
3 810 726 736 
3 714 750 740 
3 784 788 790 
3 793 792 811 
3 790 793 779 
3 797 788 784 
3 805 735 797 
3 811 792 751 
3 812 832 708 
3 813 370 371 
3 375 377 814 
3 50 371 375 
3 192 212 560 
3 563 565 198 
3 571 572 215 
3 215 572 563 
3 198 565 560 
3 816 820 223 
3 818 826 226 
3 245 595 596 
3 819 602 601 
3 820 818 244 
3 232 601 595 
3 821 816 817 
3 229 596 571 
3 822 688 687 
3 290 691 690 
3 291 700 699 
3 717 718 278 
3 269 687 691 
3 718 700 291 
3 309 724 723 
3 725 727 326 
3 728 730 824 
3 312 731 733 
3 731 312 824 
3 331 723 728 
3 733 725 332 
3 809 327 326 
3 272 690 724 
3 809 717 823 
3 14 169 161 
3 11 10 246 
3 14 11 164 
3 80 180 179 
3 193 192 813 
3 196 195 53 
3 814 247 194 
3 815 194 196 
3 42 179 193 
3 53 195 249 
3 23 22 177 
3 26 25 825 
3 22 26 174 
3 235 234 68 
3 237 236 71 
3 234 237 73 
3 10 23 171 
3 249 235 70 
3 7 161 180 
3 370 562 561 
3 381 575 574 
3 561 575 381 
3 674 432 434 
3 675 828 435 
3 677 435 432 
3 396 395 820 
3 401 400 826 
3 395 401 818 
3 678 681 464 
3 680 838 827 
3 681 680 462 
3 396 816 821 
3 675 678 461 
3 451 574 671 
3 151 256 250 
3 155 334 253 
3 153 253 256 
3 281 280 113 
3 283 282 119 
3 280 283 121 
3 158 260 257 
3 159 333 260 
3 293 134 136 
3 139 138 302 
3 301 829 140 
3 301 302 138 
3 299 140 134 
3 157 257 334 
3 282 294 136 
3 295 333 159 
3 506 720 686 
3 686 688 830 
3 510 509 808 
3 506 510 689 
3 802 804 553 
3 803 832 831 
3 804 803 551 
3 543 766 722 
3 741 532 534 
3 536 747 744 
3 746 538 540 
3 746 747 536 
3 537 744 765 
3 741 748 540 
3 765 766 543 
3 509 544 722 
3 832 812 559 
3 812 742 534 
3 86 85 28 
3 833 91 152 
3 85 91 833 
3 100 99 834 
3 834 99 102 
3 115 114 75 
3 114 100 63 
3 66 102 86 
3 825 250 252 
3 284 219 221 
3 227 226 822 
3 276 275 819 
3 287 263 221 
3 227 268 281 
3 276 231 219 
3 287 242 175 
3 359 358 554 
3 508 507 398 
3 398 507 830 
3 482 484 418 
3 487 486 458 
3 463 497 499 
3 515 508 835 
3 412 499 487 
3 418 484 515 
3 359 470 482 
3 486 554 358 
3 827 550 497 
3 600 695 697 
3 695 600 602 
3 606 704 706 
3 684 710 712 
3 613 712 704 
3 836 768 770 
3 776 775 837 
3 778 776 663 
3 778 666 656 
3 697 768 836 
3 837 775 710 
3 706 802 838 
3 25 152 250 
3 236 281 115 
3 830 688 826 
3 838 802 550 
3 826 688 822 
3 275 699 602 
3 813 192 562 
3 821 247 814 
