ply
format ascii 1.0
element vertex 727
property float x
property float y
property float z
element face 1460
property list uchar int vertex_index
end_header
-0.30504116 -0.15973964 -0.112149715 
-0.33281386 -0.14066881 -0.09675886 
-0.32775927 -0.13705924 -0.12069398 
-0.33561188 -0.11073624 -0.118144095 
-0.3287067 -0.08164267 -0.107690185 
-0.32409805 -0.088153526 -0.12473787 
-0.2894594 -0.072647244 -0.11809361 
-0.30218455 -0.11835211 -0.12798253 
-0.327915 -0.08680958 -0.073870584 
-0.33963224 -0.10675801 -0.09558235 
-0.32191062 -0.10773392 -0.03162359 
-0.2912578 -0.07837525 0.022078406 
-0.29586026 -0.06664957 -0.047096476 
-0.31335026 -0.15163478 -0.024707956 
-0.31384254 -0.11970952 0.01903271 
-0.32840922 -0.1427978 -0.060147874 
-0.3092984 -0.16949709 -0.07401178 
-0.30560958 -0.06402945 -0.08927406 
-0.33651945 -0.118442 -0.07093266 
-0.30117616 -0.11214396 0.14533937 
-0.2809917 -0.07698547 0.100329466 
-0.30557895 -0.1133378 0.07593558 
-0.2966687 -0.11326911 0.28628945 
-0.27995944 -0.08102105 0.2455895 
-0.29902995 -0.11253597 0.21556015 
-0.29492313 -0.15402967 0.098841295 
-0.28918475 -0.15246776 0.23827013 
-0.27909738 -0.07882996 0.17396751 
-0.29196632 -0.15300283 0.16828889 
-0.23615903 -0.203372 -0.08277604 
-0.25094846 -0.16608813 -0.12026871 
-0.20124538 -0.19879968 -0.11486766 
-0.16146685 -0.22513705 -0.07775763 
-0.17570198 -0.15420991 -0.13313705 
-0.15266025 -0.20041393 -0.12279795 
-0.22556242 -0.21296513 -0.022636333 
-0.26780963 -0.18948624 0.038025394 
-0.27817607 -0.18754396 -0.03430009 
-0.16594599 -0.23060909 0.00055856624 
-0.22211626 -0.21294819 0.04782109 
-0.18704325 -0.05309946 -0.08492304 
-0.23206273 -0.06167548 -0.11553647 
-0.25989133 -0.052460298 -0.0850386 
-0.2316657 -0.10347317 -0.13099776 
-0.18585755 -0.07073486 -0.12292433 
-0.16406025 -0.09987576 -0.13308725 
-0.23457032 -0.057110664 0.04286766 
-0.16846037 -0.054650214 -0.013556302 
-0.24116518 -0.052651063 -0.029266007 
-0.028590702 -0.22182584 -0.118978836 
-0.074898124 -0.24244933 -0.08183173 
-0.09680372 -0.21249177 -0.11866073 
-0.037735738 -0.17252746 -0.13496833 
-0.09741015 -0.24602184 -0.022481874 
-0.03126797 -0.25692666 0.034241945 
-0.10138449 -0.24324472 0.0473098 
-0.058488697 -0.060836267 -0.08887012 
-0.11921507 -0.07044496 -0.1149754 
-0.115352355 -0.05875627 -0.06887836 
-0.10723462 -0.11296384 -0.13432685 
-0.03827192 -0.07551762 -0.122331195 
-0.049524426 -0.12516639 -0.13690963 
-0.11796552 -0.0663567 0.03603264 
-0.075747855 -0.07091679 0.0014326808 
-0.10793207 -0.06296003 -0.022577776 
-0.043892846 -0.07467551 0.034161117 
-0.07993485 -0.074383445 0.042473055 
-0.068769634 -0.06535861 -0.047552645 
-0.042737983 -0.07049267 -0.02061655 
-0.10410774 -0.1664661 -0.13510716 
-0.16589797 -0.22792497 0.07156636 
-0.17665917 -0.0583232 0.06291674 
-0.27803808 -0.18521814 -0.0904461 
-0.026053887 -0.25876075 -0.033138987 
-0.027831355 -0.06172203 -0.05707001 
-0.22017838 -0.21059439 0.11767396 
-0.26151484 -0.18661493 0.17775127 
-0.264073 -0.18817793 0.1080765 
-0.16513596 -0.22427839 0.14124236 
-0.21797732 -0.2081863 0.18702027 
-0.21342212 -0.20666885 0.2541997 
-0.24370246 -0.18859187 0.3211653 
-0.25713944 -0.18577226 0.24791312 
-0.16423196 -0.21752098 0.2751575 
-0.2037061 -0.2073493 0.30435967 
-0.185804 -0.06460951 0.1704022 
-0.22767441 -0.06097103 0.12213534 
-0.23831668 -0.06530589 0.2022608 
-0.1915789 -0.06848395 0.24524236 
-0.16362977 -0.07649454 0.31688732 
-0.14149207 -0.07755499 0.2580524 
-0.21090849 -0.06853121 0.30393755 
-0.24366145 -0.06802654 0.2720489 
-0.2446928 -0.069880806 0.33535236 
-0.101847336 -0.23883428 0.117446005 
-0.034079447 -0.2484875 0.1773245 
-0.10199174 -0.23460978 0.187208 
-0.10337535 -0.23041701 0.25718677 
-0.037438616 -0.24037352 0.31932476 
-0.112451516 -0.22411759 0.33070183 
-0.13654312 -0.07042521 0.14246619 
-0.084902 -0.076370105 0.09899001 
-0.1362079 -0.066559225 0.09173618 
-0.04328329 -0.080630295 0.16838108 
-0.100871205 -0.07889238 0.16969001 
-0.09816425 -0.086985625 0.29670548 
-0.028971607 -0.0878271 0.257204 
-0.09438695 -0.083238915 0.22710031 
-0.16420572 -0.22084513 0.21015945 
-0.17052981 -0.21338195 0.32457948 
-0.1723862 -0.062222365 0.11642845 
-0.14360574 -0.0736029 0.20236868 
-0.03485007 -0.24464828 0.24743928 
-0.3007813 -0.15540986 0.0317338 
-0.28354108 -0.15315144 0.31074142 
-0.278834 -0.082672715 0.31611377 
-0.0324369 -0.2527441 0.106234565 
-0.28437316 -0.113151394 0.45452902 
-0.273014 -0.08193107 0.3918639 
-0.291691 -0.11419055 0.36175516 
-0.27045792 -0.15779364 0.39349565 
-0.2695238 -0.14128755 0.53918636 
-0.26657867 -0.11599003 0.5951736 
-0.27037674 -0.103529476 0.5308285 
-0.2709349 -0.087584816 0.49080604 
-0.2736466 -0.08191362 0.45253134 
-0.26627803 -0.15587246 0.4701795 
-0.26395535 -0.14583462 0.68850577 
-0.2656524 -0.13102515 0.7236043 
-0.26326847 -0.122615196 0.66503245 
-0.25857025 -0.14234337 0.7537549 
-0.26589632 -0.14543542 0.72782254 
-0.19009812 -0.20137963 0.40537184 
-0.22548647 -0.1842215 0.4475754 
-0.23127234 -0.18932748 0.38487816 
-0.20277274 -0.20359671 0.35247353 
-0.15613493 -0.21218589 0.37046885 
-0.23092023 -0.17535773 0.5203986 
-0.18026933 -0.1898947 0.56391096 
-0.23045222 -0.17006691 0.5921315 
-0.2479355 -0.07342959 0.4331219 
-0.20963109 -0.07355632 0.40971848 
-0.23901871 -0.07080981 0.38481236 
-0.16537628 -0.08249892 0.43320748 
-0.21530795 -0.07714802 0.4655279 
-0.20761517 -0.07103857 0.3548352 
-0.1728864 -0.07779492 0.37947708 
-0.1804002 -0.09347869 0.5767118 
-0.2328144 -0.08494465 0.5208818 
-0.24155438 -0.09560566 0.5759787 
-0.09731017 -0.21790817 0.45772403 
-0.1442114 -0.20973484 0.4230699 
-0.11014083 -0.21960172 0.39363056 
-0.044786345 -0.2341288 0.3998549 
-0.08210918 -0.21716031 0.53137314 
-0.12621357 -0.20166704 0.5876416 
-0.13386983 -0.20463187 0.51989895 
-0.024830615 -0.23040017 0.5545826 
-0.07401569 -0.21499631 0.5993098 
-0.106790125 -0.094868764 0.4508103 
-0.054998938 -0.099696696 0.40343276 
-0.11367346 -0.08910176 0.37532273 
-0.10466117 -0.10514432 0.59645176 
-0.031482123 -0.11110921 0.53941464 
-0.104800485 -0.09969369 0.52206796 
-0.17626232 -0.20036161 0.45002794 
-0.18161038 -0.19475217 0.49877614 
-0.16861902 -0.087149024 0.49915552 
-0.253073 -0.07685785 0.47738886 
-0.14423835 -0.2058298 0.4698324 
-0.030426526 -0.23279984 0.48296085 
-0.042094022 -0.1044938 0.4637347 
-0.22780615 -0.16630569 0.66552114 
-0.16024083 -0.17729212 0.7171959 
-0.23243049 -0.15729697 0.7354295 
-0.17144305 -0.15908116 0.78709733 
-0.19029635 -0.14568803 0.81125176 
-0.22671929 -0.14381415 0.7852143 
-0.22411644 -0.113719285 0.7203585 
-0.1692893 -0.10219957 0.6558078 
-0.23030142 -0.102196425 0.63614386 
-0.2027238 -0.13483498 0.8035251 
-0.17281339 -0.122885585 0.7747702 
-0.22366795 -0.12699026 0.77944595 
-0.064754695 -0.20713803 0.69136286 
-0.10939498 -0.19893822 0.6609278 
-0.062173896 -0.21433327 0.6504942 
-0.0211218 -0.22058117 0.6811112 
-0.030092902 -0.20446509 0.7294185 
-0.084407546 -0.19022205 0.7265874 
-0.09573281 -0.1707447 0.7777465 
-0.07382668 -0.15784699 0.80310214 
-0.11529952 -0.15408804 0.8121393 
-0.09742391 -0.124642015 0.739049 
-0.04260009 -0.12531589 0.6833253 
-0.10242845 -0.11218105 0.6677664 
-0.090968564 -0.14507458 0.8114852 
-0.11560705 -0.13364571 0.7966677 
-0.12471484 -0.14199308 0.8191616 
-0.17475733 -0.18521783 0.635633 
-0.15505245 -0.14808087 0.8178563 
-0.15666051 -0.11102551 0.7157493 
-0.16304922 -0.13673705 0.81327856 
-0.06307093 -0.1475715 0.7822213 
-0.037320904 -0.17181924 0.7862247 
-0.00044102268 -0.1961076 0.7689718 
-0.03209669 -0.172993 0.7626822 
-0.03275028 -0.14069152 0.73614424 
-0.26419994 -0.14519067 0.6215167 
-0.25016725 -0.12973487 0.76177526 
-0.021248886 -0.22718501 0.620828 
-0.040764514 -0.11709464 0.61716044 
0.0034271148 0.064951226 -0.101744145 
0.00037959928 0.114202335 -0.12094265 
0.016720314 0.07229495 -0.12508956 
-0.060346786 0.2114374 -0.10658617 
-0.0626483 0.26011586 -0.11762022 
-0.053397067 0.21508518 -0.12548882 
-0.031603463 0.17464532 -0.11845991 
-0.024880089 0.22630385 -0.13216682 
-0.059137344 0.21039183 -0.06436443 
-0.044428427 0.17461292 -0.085790075 
-0.03161204 0.17218417 0.045012284 
-0.054208796 0.21543562 -0.006020723 
-0.03393724 0.15937887 -0.029847058 
-0.067901805 0.26556107 0.0184577 
-0.07162472 0.2588131 -0.040726747 
-0.020119209 0.120479986 -0.081384 
-0.0093973605 0.11298186 0.032909803 
-0.012719605 0.10565469 -0.028008983 
-0.0019241204 0.06575593 -0.054941937 
-0.07217854 0.24763659 -0.086842164 
-0.031711023 0.18874398 0.12185402 
-0.044729166 0.23382567 0.17799944 
-0.054114055 0.24714813 0.11549726 
-0.013477936 0.17537782 0.31697702 
-0.035431243 0.22238247 0.25743866 
-0.015488528 0.17025062 0.25452906 
-0.010305323 0.14175764 0.16583037 
-0.009312178 0.12845308 0.106729195 
-0.023386955 0.1810397 0.19831961 
-0.0034427242 0.13382107 0.22343099 
-0.06555225 0.33338892 -0.11708176 
-0.078884766 0.38363302 -0.08855164 
-0.06852208 0.37859878 -0.119347245 
-0.024266694 0.37881792 -0.1288419 
-0.022253396 0.2943164 -0.13202822 
-0.07821885 0.31324187 -0.008097392 
-0.07565917 0.36276403 0.049932517 
-0.07989946 0.37240183 -0.025709564 
-0.033998605 0.443282 -0.111505195 
-0.011830537 0.47323662 -0.07804169 
-0.0028753378 0.4643447 -0.114609994 
-0.06643556 0.43152276 -0.09132685 
-0.06364211 0.40922004 -0.114911824 
-0.039806604 0.45696774 0.029312266 
-0.018449387 0.47557896 -0.018739477 
-0.042241268 0.465343 -0.03808284 
-0.06674334 0.43152922 -0.03927993 
-0.06883013 0.41429624 0.02203192 
-0.079424076 0.30917695 -0.075140625 
-0.050286237 0.45646393 -0.07644734 
-0.068855524 0.3252806 0.17779258 
-0.07020767 0.37266642 0.1310519 
-0.071198136 0.3154258 0.106062755 
-0.061599746 0.2803753 0.1538437 
-0.06494061 0.3321278 0.32189983 
-0.06684213 0.3744225 0.27749428 
-0.06625211 0.3271894 0.25052536 
-0.051338978 0.27610034 0.3087171 
-0.04896632 0.42128286 0.1712709 
-0.018271388 0.45332032 0.11273348 
-0.058857583 0.41889417 0.0878672 
-0.022534419 0.4310315 0.31258845 
-0.051676743 0.41336095 0.25202253 
-0.0543703 0.40961444 0.32229847 
-0.067582265 0.37473464 0.20603995 
-0.056870364 0.2788231 0.22268447 
-0.012703238 0.43619728 0.23418048 
-0.065533884 0.27395195 0.0748205 
-0.051911656 0.22728264 0.058542967 
-0.0644813 0.27940217 0.11258951 
-0.074091405 0.30700684 0.04640184 
-0.009729195 0.47191775 0.06420365 
-0.0069912495 0.47631186 0.022143766 
-0.013304356 0.19893621 0.45685568 
-0.034012087 0.24017182 0.38829717 
-0.014379419 0.18899369 0.38697898 
-0.012012842 0.2131315 0.536543 
-0.018463392 0.25239292 0.60329646 
-0.034360364 0.2760488 0.53111184 
-0.03330313 0.25346214 0.46071303 
-0.061363596 0.34655017 0.42604968 
-0.06525829 0.37673375 0.39674348 
-0.06547938 0.34456295 0.37523577 
-0.053520445 0.29901302 0.39223158 
-0.05120545 0.37407112 0.47887528 
-0.04937789 0.3119259 0.46934655 
-0.04730178 0.3371389 0.53199875 
-0.039065965 0.37783718 0.58881825 
-0.04665106 0.37648323 0.53346556 
-0.053321686 0.40085876 0.42506382 
-0.030262522 0.4238695 0.3869218 
-0.058405332 0.40321606 0.37468332 
-0.062233403 0.37700707 0.434573 
-0.026354779 0.4045238 0.53703904 
-0.02525173 0.41390854 0.46376628 
-0.027019916 0.30444634 0.6744831 
-0.033911914 0.35464308 0.72006345 
-0.03662009 0.36423215 0.6625954 
-0.013224127 0.32520917 0.79718006 
-0.010828596 0.37148398 0.8104545 
-0.025680104 0.36462265 0.7718459 
-0.021414325 0.39158884 0.7315559 
-0.02003861 0.4011274 0.6576991 
-0.015767282 0.39285773 0.78830135 
-0.021934967 0.31634784 0.7482009 
-0.038337357 0.31770575 0.5974066 
0.0050979564 0.26672566 0.7283424 
-0.0034052555 0.25338674 0.66623163 
0.0062820576 0.29369748 0.8119807 
0.003853996 0.27851486 0.78479993 
0.005366827 0.21525054 0.6361332 
-0.004231431 0.20948052 0.59302706 
-0.017387465 0.40991575 0.6012968 
0.10131666 -0.23641959 -0.10927243 
0.050679266 -0.25518602 -0.09320638 
0.038739584 -0.22693877 -0.1191095 
0.10169849 -0.17280446 -0.13302487 
0.09927499 -0.26322585 -0.027008414 
0.03721592 -0.26495224 0.011507731 
0.039111745 -0.26441276 -0.051009152 
0.028837169 -0.112687215 -0.13637796 
0.09178131 -0.04390601 -0.13588369 
0.09985007 -0.10730256 -0.13866726 
-0.0022790518 -0.05876233 0.04404308 
0.0084802555 -0.023389146 -0.01860483 
-0.012836401 -0.062050316 -0.015933994 
0.2172449 -0.15697517 -0.11550495 
0.21141769 -0.20338772 -0.08975691 
0.20085505 -0.19680241 -0.12038237 
0.16300336 -0.21385756 -0.116614 
0.15313295 -0.24345261 -0.07082426 
0.17555055 -0.17418498 -0.13045432 
0.23042399 -0.16808926 0.012847459 
0.20703857 -0.21563067 -0.028737418 
0.23623434 -0.16803592 -0.051949028 
0.1595585 -0.24937877 -0.0015046251 
0.20225811 -0.21990179 0.04122621 
0.15844801 -0.2512203 0.06438493 
0.2321103 -0.063252926 -0.07938174 
0.22201797 -0.09732501 -0.11362392 
0.20708215 -0.04225049 -0.11729302 
0.16556624 -0.10238458 -0.1330578 
0.22811441 -0.037749324 -0.011713673 
0.23354244 -0.10620402 0.04015062 
0.23959142 -0.109911084 -0.030764751 
0.090309575 -0.25966007 -0.07556604 
0.10374448 -0.26298827 0.038585022 
0.021459669 -0.18371835 -0.13392925 
0.23993245 -0.12608147 -0.08472266 
-0.004071242 -0.051582567 -0.05029124 
-0.0076999646 -0.042805064 -0.08318855 
0.23666279 -0.16729257 -0.08930548 
0.04591398 -0.2622543 0.08978363 
0.102004305 -0.2597783 0.14784501 
0.035866693 -0.25814384 0.16692796 
0.03407786 -0.25463814 0.23745842 
0.09972249 -0.25285554 0.28343445 
0.03340146 -0.25135726 0.3075101 
0.008104853 -0.055894397 0.122919515 
0.030614272 -0.025465917 0.18110624 
0.027045947 -0.014493492 0.12183599 
0.053275242 -0.07676844 0.3175062 
0.056648225 -0.05967372 0.29764777 
0.046488576 -0.07350828 0.28466302 
0.021625262 -0.089038536 0.315414 
0.024771549 -0.07743256 0.25925142 
0.052506782 -0.02561162 0.31592152 
0.042413905 -0.046188988 0.2521307 
0.22161382 -0.1752948 0.0967477 
0.19811079 -0.21638477 0.17477703 
0.18919565 -0.23110124 0.11084635 
0.15549581 -0.24741977 0.17079313 
0.14932282 -0.25402874 0.11834939 
0.21809663 -0.16192073 0.250075 
0.19667839 -0.20882681 0.31545353 
0.19825196 -0.21112093 0.24521047 
0.15688105 -0.23905405 0.30676934 
0.15721363 -0.24219167 0.23740983 
0.2225003 -0.04852933 0.13683987 
0.22484961 -0.10450524 0.18652788 
0.22871548 -0.10672669 0.114686504 
0.21068987 -0.04984202 0.31621128 
0.21986102 -0.097115874 0.2631177 
0.21346596 -0.03875365 0.2521599 
0.20344812 -0.0028738552 0.27651352 
0.19864571 -0.0010149928 0.32990223 
0.11347829 -0.26156417 0.093911335 
0.10005242 -0.25608814 0.2143367 
0.22084877 -0.16537619 0.17747891 
0.21515706 -0.1617718 0.3226112 
0.011686774 -0.06768876 0.20402378 
0.21848166 -0.047506984 0.20004945 
0.018938385 -0.020824555 0.0635428 
0.22584459 -0.045121085 0.06827228 
0.03210833 -0.24777411 0.37907597 
0.099083945 -0.2468659 0.4232464 
0.033033457 -0.24451315 0.45221707 
0.03569842 -0.24165589 0.5241628 
0.09984341 -0.24006537 0.56363004 
0.037287153 -0.23813918 0.594177 
0.050270937 -0.078820154 0.44550908 
0.060055256 -0.05346938 0.3822895 
0.04906466 -0.08046631 0.36604223 
0.0065233773 -0.09784867 0.39966512 
0.014418986 -0.104621515 0.48134643 
0.054142203 -0.010073801 0.38753542 
0.061854336 -0.042642497 0.43970722 
0.056671865 -0.005042464 0.45621583 
0.06031493 -0.088808656 0.601202 
0.0630244 -0.046153046 0.51818246 
0.044806186 -0.09538925 0.52600574 
0.018738562 -0.11476855 0.5830437 
0.017774452 -0.11143864 0.5302721 
0.06278783 0.00024115469 0.56325793 
0.05784841 0.0042484617 0.5106756 
0.21247843 -0.16191658 0.39463058 
0.19319351 -0.20379594 0.45694298 
0.19492467 -0.20695923 0.38573897 
0.1554008 -0.23338309 0.44625056 
0.15613747 -0.23639238 0.37641755 
0.20656069 -0.16136216 0.5524314 
0.19211408 -0.19893025 0.5982873 
0.19175169 -0.20124534 0.52928174 
0.15570232 -0.22557223 0.5869992 
0.1548776 -0.2299051 0.5163943 
0.2076782 -0.06922893 0.42839473 
0.21420456 -0.11224933 0.40860215 
0.21132842 -0.07266207 0.37534815 
0.19999719 -0.02409872 0.3888539 
0.1980429 -0.0340582 0.45423454 
0.20410888 -0.06942425 0.4851632 
0.21086942 -0.103056766 0.4613683 
0.19183087 -0.028730152 0.5158477 
0.19551426 -0.0658968 0.5799525 
0.20098087 -0.06939766 0.52716684 
0.2072383 -0.10764673 0.5237395 
0.09934059 -0.24990103 0.35314476 
0.09925833 -0.24366409 0.49345303 
0.20978367 -0.15392128 0.47167766 
0.04094971 -0.12118474 0.62904835 
0.059432518 -0.11749989 0.6474066 
0.2049318 -0.120554134 0.5968976 
0.038263712 -0.23232275 0.6645881 
0.10809757 -0.22417733 0.71623963 
0.03231328 -0.22008331 0.73619306 
0.059353467 -0.13046017 0.72253597 
0.039615832 -0.13202941 0.6796933 
0.021383706 -0.14799413 0.7402319 
0.045368213 -0.20662025 0.78901964 
0.06725086 -0.18831165 0.80851567 
0.020399041 -0.17740312 0.78319514 
0.091452956 -0.21530214 0.7863866 
0.072469085 -0.20923978 0.8092698 
0.074748784 -0.14007598 0.780168 
0.09394729 -0.20183909 0.8160919 
0.079703085 -0.09525632 0.71982324 
0.07613579 -0.0475329 0.6598323 
0.07151183 -0.09767212 0.6614004 
0.1038481 -0.078835174 0.7789441 
0.12892741 -0.06512658 0.8036059 
0.11673392 -0.018802896 0.7767126 
0.20370802 -0.16642712 0.6693666 
0.19103701 -0.18991835 0.6937746 
0.19611567 -0.19236353 0.6487347 
0.16306296 -0.21624365 0.6604295 
0.16481079 -0.20443353 0.72189456 
0.18547711 -0.16191521 0.74065375 
0.14908743 -0.1540314 0.8094243 
0.1487781 -0.1952945 0.77500963 
0.17127487 -0.15926392 0.7848854 
0.16644669 -0.037692893 0.7249248 
0.19329837 -0.08841641 0.6621001 
0.1783018 -0.023228716 0.64018667 
0.19970194 -0.13715711 0.69559884 
0.18708727 -0.105982244 0.7259772 
0.14718613 -0.08439183 0.81009275 
0.16876876 -0.107267216 0.7824222 
0.14621842 -0.047601134 0.7857131 
0.10205231 -0.23478913 0.6355168 
0.12414342 -0.19445154 0.81053436 
0.10817291 -0.16919136 0.8164123 
0.12584174 -0.1140369 0.81232417 
0.15216123 -0.11299984 0.813895 
0.001133037 -0.13498801 0.698437 
0.0059810244 -0.1267722 0.6476681 
0.06517795 -0.119572446 0.6842212 
0.20451443 -0.13443395 0.64951897 
0.20002344 -0.1665976 0.7033035 
0.093137205 -0.031364333 0.7311893 
0.06923981 -0.036431354 0.59339815 
0.20553282 -0.16479193 0.6172255 
0.18200848 -0.010939776 0.57583296 
0.052650444 0.09944223 -0.13374916 
0.10680619 0.03575471 -0.13479473 
0.04066931 0.027680181 -0.12376705 
0.013546669 0.03214497 0.03506557 
0.0014179659 0.07107966 -0.00029753704 
0.008423116 0.030915014 -0.025895588 
0.033482052 0.24186419 -0.13455996 
0.088861704 0.17693448 -0.13269438 
0.018076837 0.1721494 -0.13344496 
0.1665887 0.108781025 -0.11282294 
0.18970522 0.074824706 -0.08476013 
0.16967914 0.045847494 -0.12041681 
0.21034017 0.010398971 -0.07856862 
0.18102339 0.11469843 0.014835 
0.19876811 0.064755075 -0.030590057 
0.18262658 0.11570516 -0.05013073 
0.19828731 0.061583687 0.035398804 
0.21298398 0.022183016 -0.011814816 
0.13332254 0.19961971 -0.11495066 
0.16365957 0.1592057 -0.0885414 
0.1413919 0.15347588 -0.12288709 
0.14312239 0.22294642 0.041658286 
0.1611524 0.17839926 -0.01896352 
0.14064923 0.23755114 -0.016714755 
0.1225417 0.104162976 -0.13201515 
0.1391862 0.22849637 -0.07608323 
0.097648054 0.2539025 -0.119372934 
0.11844641 0.27848428 -0.091041766 
0.12210746 0.2802741 0.026051693 
0.12622242 0.27646667 -0.04566099 
0.180905 0.11339226 -0.08828108 
0.025483213 0.027287468 0.15374161 
0.009841503 0.07087313 0.09409569 
0.022676174 0.019336239 0.09457664 
0.03443438 0.044137135 0.32624948 
0.015310379 0.088846326 0.26034874 
0.03287915 0.022106424 0.23879981 
0.11327964 0.244436 0.30587822 
0.1297903 0.20906065 0.25896055 
0.115491554 0.25419223 0.23134068 
0.17163745 0.11376446 0.16906139 
0.19618851 0.05624851 0.10576725 
0.17774342 0.111960985 0.08623785 
0.19635761 0.041825023 0.18209681 
0.21266489 0.0032386584 0.11477033 
0.17395777 0.09082618 0.25598735 
0.18806878 0.041601866 0.302539 
0.19475508 0.03400346 0.24673182 
0.13898253 0.21139812 0.15108217 
0.15702555 0.1655807 0.12385781 
0.1447309 0.20792085 0.09709212 
0.1248917 0.25752562 0.10884547 
0.122974604 0.24733248 0.17633128 
0.13473797 0.20837997 0.20857799 
0.15016931 0.17251155 0.18029411 
0.13415602 0.18877253 0.2987678 
0.14910477 0.16068704 0.24223459 
0.015152952 0.10045725 0.31326586 
0.00023214688 0.13494626 0.28267127 
0.1496653 0.14513762 0.31417274 
0.009939022 0.08808817 0.17897677 
0.20753041 -0.002034826 0.21938464 
0.0921967 0.37662408 -0.077935904 
0.09453672 0.3190584 -0.11000774 
0.07329252 0.36857146 -0.12019282 
0.04264696 0.32146847 -0.13067079 
0.091403484 0.37659264 -0.006671317 
0.10266119 0.33310294 0.027708275 
0.109415166 0.32462978 -0.027706891 
0.057220545 0.4631951 -0.10381906 
0.06590834 0.4250049 -0.11641746 
0.049987834 0.4579377 -0.12188665 
0.026347667 0.4705046 -0.111995235 
0.03186761 0.47636312 -0.08234048 
0.01927123 0.43901825 -0.12609485 
0.05569952 0.46331173 -0.062970944 
0.074986786 0.4375671 -0.08455984 
0.021731032 0.47489095 -0.023176504 
0.048712455 0.45227394 0.028199643 
0.05269599 0.46041512 -0.024206623 
0.07337047 0.43013102 -0.031213628 
0.03839737 0.38920724 -0.13030058 
0.074212804 0.41446927 0.028988376 
0.11189665 0.31431562 -0.07593009 
0.0829148 0.36840025 0.127922 
0.101956695 0.30582178 0.1701058 
0.10298766 0.31961763 0.08795118 
0.06924778 0.37268883 0.31376 
0.091222905 0.31955326 0.25728893 
0.07183041 0.37851954 0.25024998 
0.05393908 0.4083045 0.2744431 
0.051465876 0.40763015 0.31748378 
0.023604862 0.4379734 0.16885844 
0.06009547 0.42001754 0.09714149 
0.024066942 0.4567224 0.093933046 
0.06270087 0.40542665 0.16194293 
0.02357098 0.4273261 0.30516446 
0.030721053 0.42962307 0.24158616 
0.05640311 0.40918782 0.2159511 
0.07879608 0.3677829 0.19581226 
0.004993324 0.07399194 0.04127831 
0.21433282 0.010872064 0.046675257 
0.1609219 0.16783357 0.057042733 
0.0865399 0.37374073 0.059287302 
0.015268203 0.47286588 0.04775168 
0.0404277 0.042203613 0.40631664 
0.024073921 0.09567946 0.4322607 
0.020670436 0.0939682 0.36638716 
0.048470408 0.045585424 0.5379145 
0.035127424 0.0977374 0.58275586 
0.027889729 0.09819186 0.5021572 
0.106288075 0.24877444 0.3855238 
0.12447618 0.19262412 0.4305694 
0.12901813 0.19216356 0.3571015 
0.09597856 0.22851351 0.59464 
0.12066498 0.187707 0.51977456 
0.09433517 0.24990648 0.53322995 
0.16437638 0.090164974 0.4106149 
0.18248558 0.024431016 0.44920665 
0.184348 0.037597835 0.3695439 
0.1559232 0.091132395 0.5452399 
0.16483736 0.04314802 0.6015353 
0.17393321 0.03466302 0.52748895 
0.14634961 0.14286038 0.3850563 
0.13818356 0.13739 0.56524265 
0.12038457 0.1741921 0.5931654 
0.0041522486 0.1410434 0.38183165 
0.14361434 0.13994455 0.4561726 
0.008903352 0.1544981 0.5222565 
0.14411604 0.13089058 0.5128124 
0.044030197 0.04465028 0.47409374 
0.098508015 0.25527483 0.4647695 
0.16098344 0.088132545 0.48070675 
0.005941793 0.14779715 0.44903475 
0.13279694 0.135053 0.6240451 
0.14887634 0.0998148 0.5962355 
0.066756986 0.070351124 0.71008605 
0.03879323 0.1224474 0.66719794 
0.056648437 0.057674684 0.6453583 
0.07732868 0.015995309 0.6861559 
0.06643827 0.12224186 0.78523517 
0.07640811 0.13433298 0.8033769 
0.06289348 0.15264964 0.8090602 
0.09024632 0.09580566 0.77657306 
0.07914184 0.078660406 0.75969005 
0.10467975 0.039982744 0.77113056 
0.03654822 0.17910764 0.7167064 
0.03441701 0.23933055 0.6915685 
0.023224268 0.18287618 0.66317594 
0.06891135 0.21826354 0.7221333 
0.10538241 0.18458557 0.6588518 
0.07449886 0.24104077 0.6587664 
0.03852078 0.24220587 0.7413163 
0.04616146 0.18241064 0.7810972 
0.032822333 0.2400477 0.8075213 
0.039041497 0.2439146 0.77947867 
0.061937682 0.19914515 0.80526054 
0.086207055 0.15437903 0.7848301 
0.07399751 0.199498 0.7718338 
0.055271197 0.18536307 0.81354076 
0.0706645 0.1640513 0.8135471 
0.13349846 0.07088068 0.7045518 
0.15762714 0.028276745 0.67580456 
0.14586836 0.08509399 0.648134 
0.12451738 0.1262327 0.6840145 
0.10966627 0.11005047 0.73998845 
0.104645446 0.04186317 0.744362 
0.14177363 0.024032455 0.7258917 
0.09867984 0.16727374 0.72990066 
0.05299529 0.121236205 0.74013734 
0.13242857 0.0030520288 0.7619202 
0.070186734 0.34676635 0.4413718 
0.08503486 0.30697843 0.4114452 
0.0689124 0.35906744 0.388039 
0.04848145 0.3863361 0.45268726 
0.043557186 0.40569043 0.3705863 
0.03655068 0.37880522 0.58408123 
0.06275235 0.33531606 0.54896796 
0.04818783 0.3753361 0.51961476 
0.07761427 0.28478056 0.5714573 
0.05954645 0.32243586 0.6091865 
0.06586382 0.34570187 0.49083734 
0.07950018 0.29770622 0.512797 
0.0113983415 0.4195625 0.42955604 
0.0070598274 0.42911738 0.36528504 
0.015000747 0.40743792 0.51207477 
0.07954521 0.3122974 0.4633118 
0.037588917 0.35774994 0.66733545 
0.04221134 0.30333823 0.7150054 
0.056230538 0.29267052 0.66075456 
0.023418892 0.35238189 0.7905282 
0.021898713 0.3059818 0.80824816 
0.036013503 0.30499953 0.7696002 
0.0071759257 0.39559957 0.707803 
0.008862984 0.40297082 0.6367655 
0.0035476142 0.39093846 0.78171146 
0.007397344 0.36315265 0.8130996 
0.02910655 0.35933417 0.7428939 
0.05519372 0.040300224 0.5915053 
0.06760274 0.005212618 0.62329394 
0.012319416 0.16901769 0.6001812 
0.073716566 0.27507007 0.62003386 
0.0040484862 0.4109437 0.5773528 
-0.005157061 -0.2519284 -0.08687167 
-0.02988829 -0.0759487 0.094249845 
-0.041203983 -0.095749035 0.33908096 
0.011308716 0.011268229 -0.08015308 
-0.018528637 0.44387692 0.17391688 
0.0037760055 0.46980596 0.08469329 
0.0002547994 0.33173287 0.8174665 
-0.0076899608 0.3959059 0.8078625 
-0.0016436805 0.3894534 0.8130865 
0.022816408 -0.037368085 -0.11951194 
0.19584358 0.0019609048 -0.119956315 
0.16192646 -0.017251577 -0.13294621 
0.2125321 -0.007764541 0.16812694 
-0.031489573 0.22342959 0.33023584 
-0.06669974 0.3755263 0.34159395 
0.05988415 -0.062217653 0.33431077 
0.2169688 -0.11001419 0.34251592 
0.16782662 0.092997566 0.33810169 
0.004823134 0.13155046 0.3318277 
0.08878818 0.3095886 0.34130505 
3 0 1 2 
3 3 4 5 
3 4 6 5 
3 5 7 3 
3 8 4 9 
3 10 11 12 
3 1 3 2 
3 2 7 0 
3 13 14 10 
3 10 15 13 
3 16 15 1 
3 8 12 17 
3 18 8 9 
3 1 18 9 
3 19 20 21 
3 22 23 24 
3 25 19 21 
3 26 22 24 
3 24 27 19 
3 28 24 19 
3 29 30 31 
3 31 32 29 
3 31 33 34 
3 35 36 37 
3 38 39 35 
3 40 41 42 
3 43 44 45 
3 46 47 48 
3 49 50 51 
3 51 52 49 
3 53 54 55 
3 56 57 58 
3 59 60 61 
3 62 63 64 
3 65 63 66 
3 67 63 68 
3 51 32 34 
3 34 69 51 
3 38 55 70 
3 40 57 44 
3 45 57 59 
3 62 47 71 
3 43 33 30 
3 69 61 52 
3 29 37 72 
3 32 35 29 
3 48 40 42 
3 50 73 53 
3 67 74 56 
3 67 58 64 
3 32 53 38 
3 47 58 40 
3 33 59 69 
3 75 76 77 
3 78 79 75 
3 80 81 82 
3 83 84 80 
3 85 86 87 
3 88 89 90 
3 91 92 93 
3 94 95 96 
3 97 98 99 
3 100 101 102 
3 103 101 104 
3 105 106 107 
3 78 96 108 
3 83 99 109 
3 100 110 85 
3 100 111 104 
3 105 90 89 
3 79 82 76 
3 108 80 79 
3 88 111 85 
3 88 87 92 
3 96 112 97 
3 107 103 104 
3 108 97 83 
3 107 111 90 
3 0 72 16 
3 37 113 13 
3 42 6 17 
3 6 43 7 
3 11 48 12 
3 16 37 13 
3 12 42 17 
3 7 30 0 
3 77 28 25 
3 82 114 26 
3 27 86 20 
3 115 92 23 
3 76 26 28 
3 23 87 27 
3 21 11 14 
3 113 21 14 
3 39 77 36 
3 70 75 39 
3 86 71 46 
3 55 116 94 
3 62 101 66 
3 101 65 66 
3 70 94 78 
3 102 71 110 
3 36 25 113 
3 20 46 11 
3 117 118 119 
3 120 117 119 
3 121 122 123 
3 117 124 125 
3 121 117 126 
3 127 128 129 
3 130 128 131 
3 132 133 134 
3 132 135 136 
3 137 138 139 
3 140 141 142 
3 143 141 144 
3 145 141 146 
3 147 148 149 
3 150 151 152 
3 153 150 152 
3 154 155 156 
3 157 158 154 
3 159 160 161 
3 162 163 164 
3 151 165 132 
3 151 136 152 
3 156 138 166 
3 143 161 146 
3 147 164 167 
3 133 166 137 
3 168 144 140 
3 167 144 148 
3 150 156 169 
3 170 154 150 
3 164 171 159 
3 169 166 165 
3 167 159 143 
3 172 173 174 
3 175 176 177 
3 178 179 180 
3 181 182 183 
3 184 185 186 
3 187 184 186 
3 188 189 184 
3 190 191 192 
3 193 194 195 
3 196 197 198 
3 185 173 199 
3 175 192 200 
3 201 195 179 
3 202 197 182 
3 177 181 183 
3 202 176 200 
3 203 191 204 
3 196 192 191 
3 174 175 177 
3 182 178 183 
3 205 206 188 
3 206 190 189 
3 203 193 197 
3 203 206 207 
3 173 190 175 
3 182 193 201 
3 198 200 192 
3 120 133 126 
3 121 139 208 
3 140 118 125 
3 149 123 122 
3 148 124 123 
3 126 137 121 
3 168 125 124 
3 127 174 131 
3 178 129 128 
3 174 130 131 
3 209 178 128 
3 177 209 130 
3 208 129 122 
3 139 199 172 
3 180 147 149 
3 158 185 155 
3 210 186 158 
3 195 211 162 
3 155 199 138 
3 179 162 147 
3 208 172 127 
3 180 122 129 
3 212 213 214 
3 215 216 217 
3 218 215 217 
3 217 219 218 
3 220 215 221 
3 222 223 224 
3 223 225 226 
3 227 218 213 
3 228 224 229 
3 230 227 212 
3 224 220 221 
3 220 226 231 
3 227 224 221 
3 232 233 234 
3 235 236 237 
3 238 232 239 
3 240 236 233 
3 241 240 238 
3 242 243 244 
3 242 245 246 
3 247 248 249 
3 250 251 252 
3 253 250 254 
3 255 256 257 
3 255 258 259 
3 243 254 244 
3 254 245 244 
3 249 259 258 
3 260 249 243 
3 257 251 261 
3 258 261 253 
3 243 258 253 
3 262 263 264 
3 264 265 262 
3 266 267 268 
3 268 269 266 
3 270 271 272 
3 273 274 275 
3 263 270 272 
3 267 275 274 
3 268 276 262 
3 262 277 268 
3 278 270 274 
3 276 274 270 
3 216 260 242 
3 216 246 219 
3 225 247 226 
3 279 225 280 
3 226 260 231 
3 234 265 281 
3 236 269 277 
3 233 277 265 
3 232 280 222 
3 239 222 228 
3 264 248 282 
3 279 264 282 
3 255 283 284 
3 272 255 259 
3 248 272 259 
3 234 279 280 
3 285 286 287 
3 288 289 290 
3 288 291 285 
3 292 293 294 
3 295 292 294 
3 296 292 297 
3 298 299 300 
3 301 302 303 
3 293 301 303 
3 296 301 304 
3 299 305 300 
3 298 296 297 
3 296 305 306 
3 307 308 309 
3 310 311 312 
3 309 313 314 
3 311 315 312 
3 316 312 308 
3 312 313 308 
3 291 295 286 
3 290 317 298 
3 290 297 291 
3 318 307 319 
3 320 310 321 
3 321 316 318 
3 322 289 323 
3 317 309 299 
3 299 314 324 
3 289 307 317 
3 325 326 327 
3 327 328 325 
3 329 330 331 
3 332 333 334 
3 335 336 337 
3 338 339 340 
3 341 339 342 
3 343 340 341 
3 344 345 346 
3 347 348 349 
3 350 351 352 
3 353 352 351 
3 354 355 356 
3 325 342 357 
3 328 341 325 
3 347 358 329 
3 333 353 334 
3 332 328 359 
3 360 338 351 
3 353 338 343 
3 356 344 346 
3 357 331 326 
3 361 336 362 
3 346 339 363 
3 342 345 347 
3 350 356 360 
3 360 346 363 
3 342 329 357 
3 328 353 343 
3 364 365 366 
3 367 368 369 
3 370 371 372 
3 373 374 375 
3 376 375 377 
3 374 378 379 
3 375 379 377 
3 380 381 382 
3 382 383 384 
3 385 386 387 
3 387 388 389 
3 390 391 392 
3 393 394 395 
3 393 396 397 
3 384 365 398 
3 389 368 399 
3 392 400 380 
3 394 401 385 
3 366 399 367 
3 402 379 371 
3 400 387 381 
3 381 389 383 
3 403 394 391 
3 391 385 400 
3 383 399 365 
3 358 364 330 
3 370 404 335 
3 380 348 344 
3 349 382 384 
3 405 392 355 
3 355 380 344 
3 349 398 358 
3 406 407 408 
3 409 410 411 
3 412 413 414 
3 412 415 416 
3 417 418 419 
3 420 421 422 
3 423 422 424 
3 421 425 426 
3 427 428 429 
3 429 430 431 
3 432 433 434 
3 434 435 436 
3 437 438 439 
3 437 440 441 
3 437 442 443 
3 444 445 446 
3 445 447 446 
3 431 407 448 
3 436 410 449 
3 438 450 427 
3 420 451 452 
3 453 432 447 
3 408 449 409 
3 412 421 418 
3 422 416 424 
3 419 421 426 
3 450 434 428 
3 428 436 430 
3 444 442 441 
3 447 442 446 
3 447 450 443 
3 430 449 407 
3 454 455 456 
3 457 458 459 
3 460 461 462 
3 463 464 460 
3 461 465 462 
3 466 461 464 
3 467 468 469 
3 470 471 472 
3 473 474 475 
3 476 474 477 
3 474 478 477 
3 479 480 481 
3 482 483 484 
3 485 483 486 
3 487 488 489 
3 476 455 490 
3 463 491 466 
3 491 492 466 
3 471 489 472 
3 487 493 494 
3 495 458 496 
3 497 467 469 
3 485 473 498 
3 485 478 499 
3 465 493 470 
3 488 479 481 
3 456 463 460 
3 465 459 462 
3 470 500 467 
3 478 480 477 
3 482 488 486 
3 465 467 457 
3 488 478 486 
3 455 480 463 
3 479 493 492 
3 411 490 454 
3 458 452 451 
3 420 468 501 
3 502 475 433 
3 433 476 435 
3 484 445 503 
3 483 453 445 
3 496 451 423 
3 452 469 420 
3 498 502 453 
3 435 490 410 
3 504 505 506 
3 507 508 509 
3 510 511 512 
3 513 514 515 
3 516 515 514 
3 517 518 519 
3 520 521 518 
3 522 523 524 
3 525 526 527 
3 528 515 505 
3 529 530 531 
3 511 522 524 
3 532 527 533 
3 504 511 528 
3 523 513 524 
3 526 517 519 
3 519 514 534 
3 518 516 514 
3 529 526 523 
3 523 519 534 
3 533 529 531 
3 528 524 513 
3 535 536 537 
3 538 539 540 
3 541 542 543 
3 544 545 546 
3 547 548 545 
3 549 550 551 
3 552 553 554 
3 552 555 556 
3 552 557 558 
3 559 560 542 
3 553 544 546 
3 561 562 539 
3 563 549 560 
3 540 564 535 
3 543 557 556 
3 549 547 544 
3 565 547 551 
3 560 544 558 
3 560 557 542 
3 566 567 568 
3 569 568 567 
3 570 571 572 
3 573 574 575 
3 573 576 577 
3 578 575 574 
3 573 579 580 
3 581 582 583 
3 582 584 583 
3 574 566 568 
3 585 574 568 
3 586 570 584 
3 566 572 587 
3 581 579 577 
3 584 579 583 
3 584 566 580 
3 588 589 590 
3 591 592 593 
3 591 594 595 
3 596 597 598 
3 599 588 597 
3 600 594 601 
3 602 594 593 
3 603 592 589 
3 602 596 601 
3 602 603 599 
3 567 531 530 
3 569 530 510 
3 572 532 533 
3 587 533 531 
3 589 555 590 
3 592 541 543 
3 589 543 556 
3 507 536 604 
3 546 520 517 
3 545 605 520 
3 554 606 525 
3 606 546 517 
3 555 525 532 
3 607 590 571 
3 608 598 582 
3 597 582 598 
3 597 607 586 
3 590 532 571 
3 609 610 611 
3 612 613 614 
3 615 616 617 
3 618 619 620 
3 621 622 623 
3 624 625 626 
3 616 627 617 
3 628 619 629 
3 610 630 611 
3 631 621 627 
3 613 632 614 
3 628 624 633 
3 634 614 610 
3 635 619 616 
3 636 626 622 
3 614 637 610 
3 633 636 631 
3 619 631 616 
3 628 638 639 
3 640 641 642 
3 643 640 642 
3 644 645 646 
3 647 648 649 
3 650 651 652 
3 653 654 655 
3 653 651 656 
3 657 658 659 
3 660 661 662 
3 660 659 658 
3 660 663 664 
3 665 666 667 
3 665 668 669 
3 665 670 671 
3 641 650 652 
3 672 668 654 
3 646 657 644 
3 661 645 647 
3 664 646 645 
3 648 673 640 
3 647 670 669 
3 670 648 640 
3 657 656 650 
3 662 672 653 
3 659 653 656 
3 673 657 650 
3 661 669 672 
3 674 670 649 
3 675 676 677 
3 678 677 679 
3 680 681 682 
3 683 681 684 
3 685 681 686 
3 687 679 688 
3 689 680 682 
3 685 690 675 
3 685 678 682 
3 689 678 687 
3 691 692 693 
3 694 695 696 
3 697 691 698 
3 699 700 694 
3 701 696 692 
3 699 701 697 
3 676 635 615 
3 683 620 686 
3 686 635 690 
3 692 651 693 
3 655 693 651 
3 695 659 696 
3 696 656 692 
3 642 613 702 
3 703 642 702 
3 618 654 629 
3 667 625 639 
3 641 704 613 
3 654 638 629 
3 667 638 668 
3 691 684 680 
3 705 684 693 
3 698 680 706 
3 705 618 683 
3 327 707 49 
3 49 359 327 
3 73 330 54 
3 362 60 56 
3 60 332 61 
3 362 74 361 
3 65 337 68 
3 707 331 73 
3 337 74 68 
3 52 332 359 
3 116 366 95 
3 112 369 98 
3 103 370 708 
3 376 106 709 
3 95 367 112 
3 106 402 103 
3 54 364 116 
3 708 335 65 
3 153 408 170 
3 157 411 210 
3 171 415 160 
3 423 163 211 
3 170 409 157 
3 163 416 171 
3 187 456 188 
3 462 205 460 
3 495 194 207 
3 456 205 188 
3 462 206 204 
3 459 207 206 
3 210 454 187 
3 496 211 194 
3 506 212 214 
3 214 504 506 
3 508 228 229 
3 508 230 509 
3 219 512 218 
3 710 230 212 
3 213 512 504 
3 239 564 238 
3 562 235 237 
3 564 241 238 
3 562 241 539 
3 245 569 246 
3 251 576 252 
3 252 578 250 
3 284 581 256 
3 581 251 256 
3 245 578 585 
3 596 271 711 
3 712 271 598 
3 600 278 273 
3 278 596 711 
3 228 536 239 
3 283 608 284 
3 246 510 219 
3 287 637 285 
3 288 704 323 
3 285 632 288 
3 651 318 319 
3 651 322 652 
3 321 658 320 
3 318 659 321 
3 687 302 306 
3 706 305 324 
3 689 306 305 
3 700 713 695 
3 697 314 313 
3 714 699 315 
3 699 313 315 
3 715 311 700 
3 704 322 323 
3 698 324 314 
3 695 320 658 
3 716 710 506 
3 506 333 716 
3 516 352 717 
3 718 717 352 
3 336 507 509 
3 605 354 521 
3 336 710 362 
3 516 354 350 
3 505 718 333 
3 372 535 537 
3 719 390 548 
3 378 540 379 
3 550 396 551 
3 565 396 395 
3 371 540 535 
3 565 403 719 
3 404 537 507 
3 548 405 605 
3 419 609 417 
3 622 440 623 
3 425 612 426 
3 703 425 501 
3 626 503 444 
3 426 634 419 
3 622 444 441 
3 500 643 468 
3 666 482 484 
3 472 670 500 
3 674 482 671 
3 674 472 489 
3 468 703 501 
3 625 484 503 
3 119 115 22 
3 114 119 22 
3 135 81 84 
3 109 135 84 
3 145 89 91 
3 145 93 142 
3 99 153 152 
3 161 709 105 
3 99 136 109 
3 161 89 146 
3 81 120 114 
3 118 93 115 
3 287 720 235 
3 294 721 266 
3 266 295 294 
3 302 275 303 
3 721 303 275 
3 286 269 720 
3 369 448 406 
3 414 722 373 
3 414 376 415 
3 378 413 417 
3 401 429 386 
3 386 431 388 
3 439 723 393 
3 440 393 397 
3 723 427 401 
3 388 448 368 
3 538 611 561 
3 541 617 559 
3 724 623 550 
3 611 725 561 
3 627 724 563 
3 617 563 559 
3 677 726 591 
3 679 591 595 
3 600 679 595 
3 726 615 541 
3 417 538 378 
3 623 397 550 
3 98 406 153 
3 415 709 160 
3 235 630 287 
3 688 273 302 
3 0 16 1 
3 3 9 4 
3 4 17 6 
3 5 6 7 
3 8 17 4 
3 10 14 11 
3 1 9 3 
3 2 3 7 
3 13 113 14 
3 10 18 15 
3 16 13 15 
3 8 10 12 
3 18 10 8 
3 1 15 18 
3 19 27 20 
3 22 115 23 
3 25 28 19 
3 26 114 22 
3 24 23 27 
3 28 26 24 
3 29 72 30 
3 31 34 32 
3 31 30 33 
3 35 39 36 
3 38 70 39 
3 40 44 41 
3 43 41 44 
3 46 71 47 
3 49 707 50 
3 51 69 52 
3 53 73 54 
3 56 60 57 
3 59 57 60 
3 62 66 63 
3 65 68 63 
3 67 64 63 
3 51 50 32 
3 34 33 69 
3 38 53 55 
3 40 58 57 
3 45 44 57 
3 62 64 47 
3 43 45 33 
3 69 59 61 
3 29 35 37 
3 32 38 35 
3 48 47 40 
3 50 707 73 
3 67 68 74 
3 67 56 58 
3 32 50 53 
3 47 64 58 
3 33 45 59 
3 75 79 76 
3 78 108 79 
3 80 84 81 
3 83 109 84 
3 85 110 86 
3 88 91 89 
3 91 88 92 
3 94 116 95 
3 97 112 98 
3 100 104 101 
3 103 708 101 
3 105 709 106 
3 78 94 96 
3 83 97 99 
3 100 102 110 
3 100 85 111 
3 105 107 90 
3 79 80 82 
3 108 83 80 
3 88 90 111 
3 88 85 87 
3 96 95 112 
3 107 106 103 
3 108 96 97 
3 107 104 111 
3 0 30 72 
3 37 36 113 
3 42 41 6 
3 6 41 43 
3 11 46 48 
3 16 72 37 
3 12 48 42 
3 7 43 30 
3 77 76 28 
3 82 81 114 
3 27 87 86 
3 115 93 92 
3 76 82 26 
3 23 92 87 
3 21 20 11 
3 113 25 21 
3 39 75 77 
3 70 78 75 
3 86 110 71 
3 55 54 116 
3 62 102 101 
3 101 708 65 
3 70 55 94 
3 102 62 71 
3 36 77 25 
3 20 86 46 
3 117 125 118 
3 120 126 117 
3 121 208 122 
3 117 123 124 
3 121 123 117 
3 127 131 128 
3 130 209 128 
3 132 165 133 
3 132 134 135 
3 137 166 138 
3 140 144 141 
3 143 146 141 
3 145 142 141 
3 147 167 148 
3 150 169 151 
3 153 170 150 
3 154 158 155 
3 157 210 158 
3 159 171 160 
3 162 211 163 
3 151 169 165 
3 151 132 136 
3 156 155 138 
3 143 159 161 
3 147 162 164 
3 133 165 166 
3 168 148 144 
3 167 143 144 
3 150 154 156 
3 170 157 154 
3 164 163 171 
3 169 156 166 
3 167 164 159 
3 172 199 173 
3 175 200 176 
3 178 201 179 
3 181 202 182 
3 184 189 185 
3 187 188 184 
3 188 206 189 
3 190 204 191 
3 193 207 194 
3 196 203 197 
3 185 189 173 
3 175 190 192 
3 201 193 195 
3 202 198 197 
3 177 176 181 
3 202 181 176 
3 203 196 191 
3 196 198 192 
3 174 173 175 
3 182 201 178 
3 205 204 206 
3 206 204 190 
3 203 207 193 
3 203 204 206 
3 173 189 190 
3 182 197 193 
3 198 202 200 
3 120 134 133 
3 121 137 139 
3 140 142 118 
3 149 148 123 
3 148 168 124 
3 126 133 137 
3 168 140 125 
3 127 172 174 
3 178 180 129 
3 174 177 130 
3 209 183 178 
3 177 183 209 
3 208 127 129 
3 139 138 199 
3 180 179 147 
3 158 186 185 
3 210 187 186 
3 195 194 211 
3 155 185 199 
3 179 195 162 
3 208 139 172 
3 180 149 122 
3 212 227 213 
3 215 231 216 
3 218 221 215 
3 217 216 219 
3 220 231 215 
3 222 280 223 
3 223 280 225 
3 227 221 218 
3 228 222 224 
3 230 229 227 
3 224 223 220 
3 220 223 226 
3 227 229 224 
3 232 240 233 
3 235 720 236 
3 238 240 232 
3 240 237 236 
3 241 237 240 
3 242 260 243 
3 242 244 245 
3 247 282 248 
3 250 261 251 
3 253 261 250 
3 255 284 256 
3 255 257 258 
3 243 253 254 
3 254 250 245 
3 249 248 259 
3 260 247 249 
3 257 256 251 
3 258 257 261 
3 243 249 258 
3 262 276 263 
3 264 281 265 
3 266 721 267 
3 268 277 269 
3 270 711 271 
3 273 278 274 
3 263 276 270 
3 267 721 275 
3 268 267 276 
3 262 265 277 
3 278 711 270 
3 276 267 274 
3 216 231 260 
3 216 242 246 
3 225 282 247 
3 279 282 225 
3 226 247 260 
3 234 233 265 
3 236 720 269 
3 233 236 277 
3 232 234 280 
3 239 232 222 
3 264 263 248 
3 279 281 264 
3 255 271 283 
3 272 271 255 
3 248 263 272 
3 234 281 279 
3 285 291 286 
3 288 323 289 
3 288 290 291 
3 292 304 293 
3 295 297 292 
3 296 304 292 
3 298 317 299 
3 301 306 302 
3 293 304 301 
3 296 306 301 
3 299 324 305 
3 298 300 296 
3 296 300 305 
3 307 316 308 
3 310 713 311 
3 309 308 313 
3 311 714 315 
3 316 310 312 
3 312 315 313 
3 291 297 295 
3 290 289 317 
3 290 298 297 
3 318 316 307 
3 320 713 310 
3 321 310 316 
3 322 319 289 
3 317 307 309 
3 299 309 314 
3 289 319 307 
3 325 357 326 
3 327 359 328 
3 329 358 330 
3 332 716 333 
3 335 404 336 
3 338 363 339 
3 341 340 339 
3 343 338 340 
3 344 348 345 
3 347 345 348 
3 350 360 351 
3 353 718 352 
3 354 405 355 
3 325 341 342 
3 328 343 341 
3 347 349 358 
3 333 718 353 
3 332 334 328 
3 360 363 338 
3 353 351 338 
3 356 355 344 
3 357 329 331 
3 361 337 336 
3 346 345 339 
3 342 339 345 
3 350 354 356 
3 360 356 346 
3 342 347 329 
3 328 334 353 
3 364 398 365 
3 367 399 368 
3 370 402 371 
3 373 722 374 
3 376 373 375 
3 374 722 378 
3 375 374 379 
3 380 400 381 
3 382 381 383 
3 385 401 386 
3 387 386 388 
3 390 403 391 
3 393 723 394 
3 393 395 396 
3 384 383 365 
3 389 388 368 
3 392 391 400 
3 394 723 401 
3 366 365 399 
3 402 377 379 
3 400 385 387 
3 381 387 389 
3 403 395 394 
3 391 394 385 
3 383 389 399 
3 358 398 364 
3 370 372 404 
3 380 382 348 
3 349 348 382 
3 405 390 392 
3 355 392 380 
3 349 384 398 
3 406 448 407 
3 409 449 410 
3 412 418 413 
3 412 414 415 
3 417 413 418 
3 420 501 421 
3 423 420 422 
3 421 501 425 
3 427 450 428 
3 429 428 430 
3 432 502 433 
3 434 433 435 
3 437 443 438 
3 437 439 440 
3 437 441 442 
3 444 503 445 
3 445 453 447 
3 431 430 407 
3 436 435 410 
3 438 443 450 
3 420 423 451 
3 453 502 432 
3 408 407 449 
3 412 422 421 
3 422 412 416 
3 419 418 421 
3 450 432 434 
3 428 434 436 
3 444 446 442 
3 447 443 442 
3 447 432 450 
3 430 436 449 
3 454 490 455 
3 457 497 458 
3 460 464 461 
3 463 466 464 
3 461 492 465 
3 466 492 461 
3 467 500 468 
3 470 493 471 
3 473 499 474 
3 476 475 474 
3 474 499 478 
3 479 491 480 
3 482 486 483 
3 485 498 483 
3 487 494 488 
3 476 477 455 
3 463 480 491 
3 491 479 492 
3 471 487 489 
3 487 471 493 
3 495 459 458 
3 497 457 467 
3 485 499 473 
3 485 486 478 
3 465 492 493 
3 488 494 479 
3 456 455 463 
3 465 457 459 
3 470 472 500 
3 478 481 480 
3 482 489 488 
3 465 470 467 
3 488 481 478 
3 455 477 480 
3 479 494 493 
3 411 410 490 
3 458 497 452 
3 420 469 468 
3 502 473 475 
3 433 475 476 
3 484 483 445 
3 483 498 453 
3 496 458 451 
3 452 497 469 
3 498 473 502 
3 435 476 490 
3 504 528 505 
3 507 604 508 
3 510 530 511 
3 513 534 514 
3 516 717 515 
3 517 520 518 
3 520 605 521 
3 522 529 523 
3 525 606 526 
3 528 513 515 
3 529 522 530 
3 511 530 522 
3 532 525 527 
3 504 512 511 
3 523 534 513 
3 526 606 517 
3 519 518 514 
3 518 521 516 
3 529 527 526 
3 523 526 519 
3 533 527 529 
3 528 511 524 
3 535 564 536 
3 538 561 539 
3 541 559 542 
3 544 547 545 
3 547 719 548 
3 549 724 550 
3 552 558 553 
3 552 554 555 
3 552 556 557 
3 559 563 560 
3 553 558 544 
3 561 725 562 
3 563 724 549 
3 540 539 564 
3 543 542 557 
3 549 551 547 
3 565 719 547 
3 560 549 544 
3 560 558 557 
3 566 587 567 
3 569 585 568 
3 570 607 571 
3 573 580 574 
3 573 575 576 
3 578 576 575 
3 573 577 579 
3 581 608 582 
3 582 586 584 
3 574 580 566 
3 585 578 574 
3 586 607 570 
3 566 570 572 
3 581 583 579 
3 584 580 579 
3 584 570 566 
3 588 603 589 
3 591 726 592 
3 591 593 594 
3 596 599 597 
3 599 603 588 
3 600 595 594 
3 602 601 594 
3 603 593 592 
3 602 599 596 
3 602 593 603 
3 567 587 531 
3 569 567 530 
3 572 571 532 
3 587 572 533 
3 589 556 555 
3 592 726 541 
3 589 592 543 
3 507 537 536 
3 546 545 520 
3 545 548 605 
3 554 553 606 
3 606 553 546 
3 555 554 525 
3 607 588 590 
3 608 712 598 
3 597 586 582 
3 597 588 607 
3 590 555 532 
3 609 634 610 
3 612 702 613 
3 615 635 616 
3 618 629 619 
3 621 636 622 
3 624 639 625 
3 616 631 627 
3 628 633 619 
3 610 637 630 
3 631 636 621 
3 613 704 632 
3 628 639 624 
3 634 612 614 
3 635 620 619 
3 636 624 626 
3 614 632 637 
3 633 624 636 
3 619 633 631 
3 628 629 638 
3 640 673 641 
3 643 670 640 
3 644 647 645 
3 647 644 648 
3 650 656 651 
3 653 672 654 
3 653 655 651 
3 657 663 658 
3 660 664 661 
3 660 662 659 
3 660 658 663 
3 665 671 666 
3 665 667 668 
3 665 669 670 
3 641 673 650 
3 672 669 668 
3 646 663 657 
3 661 664 645 
3 664 663 646 
3 648 644 673 
3 647 649 670 
3 670 649 648 
3 657 659 656 
3 662 661 672 
3 659 662 653 
3 673 644 657 
3 661 647 669 
3 674 671 670 
3 675 690 676 
3 678 675 677 
3 680 684 681 
3 683 686 681 
3 685 682 681 
3 687 678 679 
3 689 706 680 
3 685 686 690 
3 685 675 678 
3 689 682 678 
3 691 701 692 
3 694 700 695 
3 697 701 691 
3 699 715 700 
3 701 694 696 
3 699 694 701 
3 676 690 635 
3 683 618 620 
3 686 620 635 
3 692 656 651 
3 655 705 693 
3 695 658 659 
3 696 659 656 
3 642 641 613 
3 703 643 642 
3 618 655 654 
3 667 666 625 
3 641 652 704 
3 654 668 638 
3 667 639 638 
3 691 693 684 
3 705 683 684 
3 698 691 680 
3 705 655 618 
3 327 326 707 
3 49 52 359 
3 73 331 330 
3 362 716 60 
3 60 716 332 
3 362 56 74 
3 65 335 337 
3 707 326 331 
3 337 361 74 
3 52 61 332 
3 116 364 366 
3 112 367 369 
3 103 402 370 
3 376 377 106 
3 95 366 367 
3 106 377 402 
3 54 330 364 
3 708 370 335 
3 153 406 408 
3 157 409 411 
3 171 416 415 
3 423 424 163 
3 170 408 409 
3 163 424 416 
3 187 454 456 
3 462 204 205 
3 495 496 194 
3 456 460 205 
3 462 459 206 
3 459 495 207 
3 210 411 454 
3 496 423 211 
3 506 710 212 
3 214 213 504 
3 508 604 228 
3 508 229 230 
3 219 510 512 
3 710 509 230 
3 213 218 512 
3 239 536 564 
3 562 725 235 
3 564 539 241 
3 562 237 241 
3 245 585 569 
3 251 577 576 
3 252 576 578 
3 284 608 581 
3 581 577 251 
3 245 250 578 
3 596 598 271 
3 712 283 271 
3 600 601 278 
3 278 601 596 
3 228 604 536 
3 283 712 608 
3 246 569 510 
3 287 630 637 
3 288 632 704 
3 285 637 632 
3 651 656 318 
3 651 319 322 
3 321 659 658 
3 318 656 659 
3 687 688 302 
3 706 689 305 
3 689 687 306 
3 700 311 713 
3 697 698 314 
3 714 715 699 
3 699 697 313 
3 715 714 311 
3 704 652 322 
3 698 706 324 
3 695 713 320 
3 716 362 710 
3 506 505 333 
3 516 350 352 
3 718 515 717 
3 336 404 507 
3 605 405 354 
3 336 509 710 
3 516 521 354 
3 505 515 718 
3 372 371 535 
3 719 403 390 
3 378 538 540 
3 550 397 396 
3 565 551 396 
3 371 379 540 
3 565 395 403 
3 404 372 537 
3 548 390 405 
3 419 634 609 
3 622 441 440 
3 425 702 612 
3 703 702 425 
3 626 625 503 
3 426 612 634 
3 622 626 444 
3 500 670 643 
3 666 671 482 
3 472 649 670 
3 674 489 482 
3 674 649 472 
3 468 643 703 
3 625 666 484 
3 119 118 115 
3 114 120 119 
3 135 134 81 
3 109 136 135 
3 145 146 89 
3 145 91 93 
3 99 98 153 
3 161 160 709 
3 99 152 136 
3 161 105 89 
3 81 134 120 
3 118 142 93 
3 287 286 720 
3 294 293 721 
3 266 269 295 
3 302 273 275 
3 721 293 303 
3 286 295 269 
3 369 368 448 
3 414 413 722 
3 414 373 376 
3 378 722 413 
3 401 427 429 
3 386 429 431 
3 439 438 723 
3 440 439 393 
3 723 438 427 
3 388 431 448 
3 538 609 611 
3 541 615 617 
3 724 621 623 
3 611 630 725 
3 627 621 724 
3 617 627 563 
3 677 676 726 
3 679 677 591 
3 600 688 679 
3 726 676 615 
3 417 609 538 
3 623 440 397 
3 98 369 406 
3 415 376 709 
3 235 725 630 
3 688 600 273 
