ply
format ascii 1.0
element vertex 963
property float x
property float y
property float z
element face 1976
property list uchar int vertex_index
end_header
-0.19708468 -0.32954457 -0.14812058 
-0.21047968 -0.2881502 -0.15913513 
-0.19012563 -0.32306197 -0.16690472 
-0.1497477 -0.33814064 -0.1598808 
-0.16308026 -0.29586852 -0.17438239 
-0.19509934 -0.32937425 -0.107755125 
-0.16538228 -0.34690237 -0.13004136 
-0.18286307 -0.3277933 -0.05456648 
-0.20224987 -0.30290666 -0.0057731736 
-0.22191435 -0.28941476 -0.07445195 
-0.078471266 -0.3469099 -0.15922327 
-0.048299138 -0.3663938 -0.13002938 
-0.1088514 -0.3594825 -0.1200677 
-0.021901648 -0.30961427 -0.17403127 
-0.021728337 -0.35479456 -0.15460251 
-0.09790377 -0.35687658 -0.004360388 
-0.1416119 -0.34618622 -0.035782132 
-0.10917708 -0.3588649 -0.066104874 
-0.050871953 -0.36789352 -0.07218665 
-0.10018833 -0.30319908 -0.17594947 
-0.16938996 -0.33057633 -0.007174002 
-0.15210289 -0.3481741 -0.08859569 
-0.22052895 -0.3041538 -0.12764943 
-0.20652956 -0.28696874 0.058712818 
-0.17113003 -0.31708696 0.10602306 
-0.2046412 -0.2812127 0.12885183 
-0.20203008 -0.27876577 0.19905621 
-0.16695294 -0.31163794 0.24445316 
-0.19955584 -0.27700177 0.2693217 
-0.08431842 -0.35643154 0.067630045 
-0.12786612 -0.33910665 0.12902802 
-0.13239273 -0.3412354 0.062163264 
-0.029380416 -0.3633011 0.073999554 
-0.08012761 -0.35432062 0.13805415 
-0.07680513 -0.35183716 0.20946021 
-0.12265453 -0.33459464 0.26862875 
-0.12523276 -0.33682418 0.19852304 
-0.017884383 -0.35683757 0.22492924 
-0.0743794 -0.34940475 0.28197113 
-0.17247097 -0.3225233 0.04222981 
-0.16902322 -0.31396616 0.1748389 
-0.027004873 -0.36043778 0.14667675 
-0.22363202 -0.23296061 -0.15410483 
-0.23682263 -0.20366934 -0.12224953 
-0.21201745 -0.18138218 -0.1560446 
-0.17485878 -0.22932518 -0.17280814 
-0.22995782 -0.24623704 -0.012648467 
-0.23500645 -0.18736693 -0.06655935 
-0.24012199 -0.23601088 -0.081163555 
-0.16723402 -0.098899744 -0.15580931 
-0.1649364 -0.062667705 -0.12170227 
-0.1387385 -0.05638019 -0.15459368 
-0.19596162 -0.104354985 -0.11832778 
-0.19980994 -0.13339314 -0.15216368 
-0.22186464 -0.1503421 -0.11831079 
-0.18137519 -0.078437164 -0.067922354 
-0.15795918 -0.04738427 -0.020565165 
-0.15525185 -0.041514874 -0.078011826 
-0.18616366 -0.08867554 -0.00047606596 
-0.21284598 -0.12894094 -0.052995563 
-0.21105862 -0.13300675 0.02847397 
-0.09617819 -0.18205513 -0.17609596 
-0.053836774 -0.2448248 -0.17797929 
-0.118269324 -0.25291586 -0.17940044 
-0.025239352 -0.18515188 -0.05855667 
-0.03440603 -0.19822234 -0.0020246666 
-0.017613932 -0.20020919 -0.048832133 
-0.049494393 -0.1865059 0.03334274 
-0.050918683 -0.20151323 0.04724683 
-0.108575486 -0.09684864 -0.17264302 
-0.05080995 -0.050467774 -0.17775318 
-0.03056708 -0.11730096 -0.16971841 
-0.13353449 -0.0071986197 -0.12178927 
-0.13635872 -0.003533095 -0.047217976 
-0.16479607 -0.15371382 -0.17064153 
-0.0035818778 -0.14889586 -0.12785652 
-0.016934143 -0.18053839 -0.15915637 
-0.22874382 -0.18350127 0.0044854325 
-0.016147869 -0.16013747 -0.06585371 
-0.034540977 -0.17320038 -0.007971521 
-0.23551491 -0.25960916 -0.12443349 
-0.012599014 -0.193892 -0.08473322 
-0.0109640155 -0.1761537 -0.11075222 
-0.22139823 -0.23329653 0.14014041 
-0.22389233 -0.18169583 0.07890843 
-0.22563808 -0.23665303 0.06714493 
-0.21506995 -0.2317875 0.28404137 
-0.2166934 -0.18439823 0.2345429 
-0.21793531 -0.23258522 0.21260698 
-0.1848301 -0.09248185 0.070434526 
-0.15514809 -0.05386001 0.117123365 
-0.15733625 -0.051612414 0.047527473 
-0.18193601 -0.093663946 0.13907373 
-0.20727226 -0.1331494 0.100047454 
-0.20167157 -0.12733282 0.15930541 
-0.17979875 -0.09642322 0.20790167 
-0.14676319 -0.05311934 0.2719952 
-0.15218808 -0.055038497 0.18836144 
-0.18291509 -0.10780524 0.28197914 
-0.20389321 -0.13879606 0.21459173 
-0.20629166 -0.14911619 0.26700616 
-0.05766508 -0.18680662 0.09206915 
-0.05908586 -0.20187514 0.15015735 
-0.051634125 -0.20648713 0.08818285 
-0.03082063 -0.2120295 0.11641678 
-0.045291595 -0.16003734 0.14079218 
-0.06240423 -0.1797905 0.15629587 
-0.06648786 -0.1826883 0.255155 
-0.064514786 -0.20167242 0.21522632 
-0.067387134 -0.18663204 0.19824505 
-0.060470946 -0.20479126 0.27060926 
-0.036225975 -0.21262303 0.19811256 
-0.050664797 -0.1612996 0.21514833 
-0.1320861 -0.008799523 0.09230438 
-0.12585554 -0.009470259 0.2323756 
-0.21798338 -0.17567387 0.15781623 
-0.015439781 -0.14442927 0.13243468 
-0.036417462 -0.16121453 0.063482575 
-0.0048176763 -0.14557177 0.06625185 
-0.010183876 -0.13905245 0.2683716 
-0.023257062 -0.14426297 0.19256876 
-0.12940711 -0.00998994 0.16204388 
-0.14180544 -0.34159118 0.012385648 
-0.035712242 -0.3662238 0.0022502914 
-0.030673677 -0.20912406 0.051147133 
-0.014555918 -0.15163502 -0.0021790569 
-0.13456078 -0.0067518614 0.022733582 
-0.19674854 -0.27449858 0.34091565 
-0.15964839 -0.30797547 0.38716212 
-0.19310492 -0.27341017 0.41577753 
-0.1914069 -0.27266562 0.49055374 
-0.15794522 -0.29944214 0.5478579 
-0.1927713 -0.26916367 0.55928767 
-0.07114695 -0.34770402 0.3515504 
-0.106813185 -0.33331293 0.41383034 
-0.118491635 -0.33278078 0.3393592 
-0.026577376 -0.35276735 0.374338 
-0.062231947 -0.34783173 0.40445575 
-0.031236209 -0.3434677 0.5531174 
-0.069628656 -0.33970535 0.5111594 
-0.037343055 -0.3474951 0.48754203 
-0.11136322 -0.32369173 0.5318184 
-0.10206345 -0.33161527 0.47772336 
-0.06835156 -0.34382123 0.45415205 
-0.16440362 -0.30947292 0.31460184 
-0.1505629 -0.30830622 0.4694892 
-0.028900007 -0.35045022 0.43609208 
-0.16523421 -0.28774616 0.6209058 
-0.19058986 -0.26441085 0.6460546 
-0.19642983 -0.26290935 0.6084096 
-0.016587513 -0.33440506 0.6732223 
-0.05640388 -0.32926536 0.63004506 
-0.014956689 -0.3422083 0.6140113 
-0.11174402 -0.30033612 0.6805378 
-0.11270334 -0.3157605 0.5999106 
-0.013892366 -0.3248276 0.73709404 
-0.030437887 -0.3058148 0.7694943 
-0.027275613 -0.3044368 0.7467779 
-0.08332159 -0.29544234 0.74915814 
-0.084737554 -0.28722227 0.7772008 
-0.16861579 -0.26963478 0.6823561 
-0.11571399 -0.27620187 0.7703432 
-0.14099526 -0.26753542 0.7376983 
-0.041641988 -0.30758834 0.7120082 
-0.21177977 -0.22357866 0.3611135 
-0.20656204 -0.1772567 0.41462076 
-0.2099159 -0.1734829 0.35057002 
-0.19749394 -0.14124638 0.37600845 
-0.20659378 -0.23356426 0.51593244 
-0.2035404 -0.19414373 0.5602759 
-0.20481803 -0.18725081 0.49094325 
-0.18763778 -0.15009168 0.54983115 
-0.17215191 -0.10396078 0.41662747 
-0.1527609 -0.06961739 0.35709566 
-0.18253711 -0.1121721 0.3482675 
-0.06760569 -0.18159044 0.392996 
-0.059274547 -0.20669311 0.34025875 
-0.06622499 -0.18160084 0.32318342 
-0.058973458 -0.20896618 0.41203016 
-0.026921472 -0.21898496 0.3532532 
-0.050223924 -0.15331794 0.36849695 
-0.072154865 -0.17930712 0.5459298 
-0.059867255 -0.2122061 0.48470876 
-0.06988591 -0.18228538 0.46336603 
-0.060350813 -0.21913415 0.5450797 
-0.02830749 -0.23011056 0.5086963 
-0.060765855 -0.15566674 0.49487418 
-0.13808408 -0.068431884 0.51631653 
-0.111693665 -0.027516168 0.5432845 
-0.12166944 -0.034039564 0.48920828 
-0.12490006 -0.027949074 0.4259288 
-0.14665943 -0.06699695 0.41449156 
-0.16246107 -0.10754646 0.53660154 
-0.16209099 -0.097103015 0.48319283 
-0.14312486 -0.066763766 0.45910418 
-0.20129584 -0.14291808 0.3181402 
-0.020037178 -0.13026665 0.41945732 
-0.015500592 -0.13312107 0.34883022 
-0.18799022 -0.13781497 0.47443014 
-0.031880617 -0.13200614 0.48767236 
-0.052909076 -0.14264679 0.5376545 
-0.20832446 -0.23087943 0.44396752 
-0.02165442 -0.22433162 0.43237534 
-0.054497648 -0.15313686 0.43692857 
-0.19461176 -0.14040193 0.41985583 
-0.20260774 -0.23749529 0.63064206 
-0.19555238 -0.20690581 0.66061676 
-0.20331398 -0.2051562 0.6116284 
-0.18603998 -0.16502397 0.62422216 
-0.17643979 -0.22633071 0.7111846 
-0.19315252 -0.24321103 0.66983557 
-0.0976423 -0.16909447 0.6928017 
-0.068947464 -0.21118724 0.6153596 
-0.085605785 -0.1625653 0.6186737 
-0.06816195 -0.23701707 0.69160044 
-0.019588266 -0.2442815 0.63525414 
-0.09961696 -0.2690097 0.7730352 
-0.06049163 -0.2778607 0.74548805 
-0.10881607 -0.23116723 0.74610925 
-0.10169473 -0.108353764 0.63898695 
-0.08007763 -0.055700503 0.6783173 
-0.09412926 -0.028804757 0.61190975 
-0.04642208 -0.10791428 0.6367925 
-0.090118095 -0.10427637 0.69999135 
-0.06215601 0.0043019857 0.66053104 
-0.099983566 -0.11276525 0.7535708 
-0.06828072 -0.072608754 0.76931185 
-0.07267569 -0.068132006 0.73390716 
-0.034715887 -0.04385802 0.7551749 
-0.06510323 -0.075271115 0.7695351 
-0.06020611 -0.076234914 0.73606646 
-0.09912923 -0.10480025 0.7766055 
-0.13046458 -0.25515386 0.7654958 
-0.14793612 -0.22518775 0.751035 
-0.12858492 -0.17428848 0.7539352 
-0.14050744 -0.15308544 0.7652143 
-0.15813601 -0.18241873 0.74349606 
-0.14637196 -0.13156417 0.67070264 
-0.15569581 -0.12033287 0.6024711 
-0.12551251 -0.12892872 0.7705553 
-0.13964479 -0.13883862 0.73606426 
-0.0655199 -0.13642634 0.59113204 
-0.12231095 -0.13612959 0.7732433 
-0.174245 -0.17322853 0.69606566 
-0.043960765 -0.033020154 0.7142776 
-0.025771672 -0.08231886 0.6940584 
-0.07071917 -0.28521875 0.7756984 
-0.026039697 -0.27329886 0.6995057 
-0.074218675 -0.33340955 0.5660093 
-0.20570672 -0.23508808 0.57867134 
-0.035464775 -0.23313637 0.5701866 
-0.12856558 -0.076084614 0.57558393 
-0.014873803 -0.11770426 0.56126326 
-0.13400014 0.07789384 -0.1567626 
-0.13421473 0.10193795 -0.17076845 
-0.12708417 0.07434127 -0.17130472 
-0.137238 0.17762601 -0.14851692 
-0.12516442 0.21844408 -0.17092195 
-0.12942965 0.14963204 -0.17136477 
-0.10063338 0.09516251 -0.17772678 
-0.04654295 0.024390541 -0.1794562 
-0.11247395 0.038748078 -0.16278833 
-0.12782185 0.057625435 -0.07225874 
-0.122267134 0.11214388 -0.0066934815 
-0.12695213 0.13089183 -0.06613961 
-0.07954502 0.244533 -0.1789634 
-0.01736071 0.18760827 -0.1801332 
-0.08763092 0.1689972 -0.1802617 
-0.1208998 0.17708662 -0.022166658 
-0.114776574 0.23887554 -0.06519236 
-0.124736406 0.1789574 -0.06520763 
-0.13380569 0.109288834 -0.12247474 
-0.12897894 0.05044529 -0.13127351 
-0.12893555 0.23127517 -0.12986735 
-0.12991259 0.17674668 -0.10296874 
-0.13972852 0.12126049 -0.15751839 
-0.030944355 0.10802256 -0.18270782 
-0.120543286 0.045067333 0.07481106 
-0.11545864 0.10645984 0.13204235 
-0.118576616 0.107464075 0.06250157 
-0.11472125 0.04376694 0.21383613 
-0.1095988 0.10599947 0.27075616 
-0.11252828 0.10613597 0.20147935 
-0.113969214 0.17193787 0.11344814 
-0.10650644 0.23377389 0.084147036 
-0.11715343 0.17320381 0.044457078 
-0.10794032 0.17124435 0.25212175 
-0.09953663 0.23306182 0.22135201 
-0.11090627 0.17157403 0.18271622 
-0.11762525 0.04412721 0.14441809 
-0.102804594 0.23371696 0.152087 
-0.092950165 0.29520383 -0.16312343 
-0.06841073 0.33177534 -0.12976372 
-0.06172551 0.32790095 -0.16256824 
-0.015576422 0.34293854 -0.15589783 
-0.04570497 0.30078918 -0.17518051 
-0.061300024 0.33664408 -0.037342906 
-0.02537207 0.35235304 -0.001099563 
-0.0304209 0.35676038 -0.059980012 
-0.08670547 0.29853052 -0.0059762984 
-0.08654161 0.31064636 -0.075419836 
-0.057814237 0.3441725 -0.08431704 
-0.12480076 0.26021874 -0.15800169 
-0.115748316 0.26224494 -0.17275071 
-0.10734641 0.2843188 -0.12449751 
-0.019958304 0.35916454 -0.107917316 
-0.052647155 0.32444018 0.1307467 
-0.014215545 0.35111588 0.07286194 
-0.061835058 0.32312983 0.05490392 
-0.08542886 0.2855845 0.11357404 
-0.0923502 0.28088942 0.054831184 
-0.04454083 0.3207963 0.27099222 
-0.0058965245 0.34722632 0.21413058 
-0.048075456 0.3229187 0.20135072 
-0.07729536 0.28385967 0.25212103 
-0.08077503 0.2853853 0.1825794 
-0.009148432 0.3494236 0.14426914 
-0.01983083 0.2550804 -0.18063584 
-0.13535091 0.22706337 -0.15626462 
-0.12382003 0.04772844 0.0042240936 
-0.10933274 0.23638716 0.015757456 
-0.061219014 0.33224738 0.003437567 
-0.10908744 0.043009154 0.34872168 
-0.10384588 0.10440725 0.40948176 
-0.1066983 0.10571006 0.3398042 
-0.1045071 0.023504876 0.4979458 
-0.09314487 0.092208914 0.56381774 
-0.10033156 0.100384966 0.48226345 
-0.10195755 0.17040047 0.39108062 
-0.09341067 0.23123845 0.3603211 
-0.10498747 0.1708886 0.32153213 
-0.094546735 0.16755116 0.5333334 
-0.08545007 0.22944635 0.50202847 
-0.09859499 0.16941488 0.46138793 
0.012820497 0.20164752 0.502493 
0.005076235 0.17172849 0.5368061 
0.007391336 0.17260924 0.47994062 
0.01294552 0.14530084 0.50174177 
-0.10759021 0.0372558 0.41887546 
-0.08994385 0.23035534 0.43034488 
0.018184222 0.1980456 0.45352945 
0.011238796 0.173451 0.44390085 
0.018227775 0.15070483 0.45295548 
-0.06340927 0.07406055 0.67289495 
-0.08394927 0.111387335 0.6416795 
-0.07700029 0.044619597 0.6227324 
0.0005291776 0.09770164 0.63464797 
-0.030847162 0.058551833 0.69056976 
-0.038673934 0.054628283 0.6554715 
-0.064514205 0.121624485 0.7465997 
-0.052669458 0.14129442 0.7633086 
-0.06583165 0.15145817 0.7713864 
-0.040924426 0.102769405 0.73288405 
-0.05353816 0.08118551 0.71821177 
-0.022022294 0.03561016 0.73486274 
-0.080206394 0.17842753 0.68272686 
-0.07658585 0.22649926 0.63654417 
-0.08934651 0.16945437 0.6061716 
-0.0011119283 0.2254903 0.6418406 
-0.016804444 0.18711981 0.68106735 
-0.0028215256 0.16469091 0.61541647 
-0.07334918 0.16525093 0.7480929 
-0.061502136 0.19611764 0.7707602 
-0.05706013 0.21752247 0.7372545 
-0.034075424 0.22837791 0.7681616 
-0.032966666 0.18073618 0.7407083 
-0.021368722 0.25001994 0.7506353 
-0.05367511 0.17752302 0.7754887 
-0.067640774 0.17268905 0.7760764 
-0.020462941 0.12828125 0.68597394 
-0.07537566 0.11867513 0.7041607 
-0.06378907 0.23044088 0.68669367 
-0.025951061 0.24431947 0.7048218 
-0.03681359 0.3172933 0.41085762 
-0.00011739525 0.34283912 0.35371357 
-0.041215364 0.3186918 0.3406161 
-0.07069699 0.28052843 0.3914824 
-0.074110605 0.28212672 0.3216338 
-0.025347719 0.31933784 0.48473537 
0.007360262 0.33632958 0.5157095 
0.011918575 0.34322834 0.47344667 
-0.055186365 0.2794481 0.5451355 
-0.065367654 0.27968913 0.46351165 
0.0039114803 0.34179127 0.4216562 
-0.04990043 0.2621571 0.6586312 
-0.01801459 0.29250455 0.62065274 
-0.061757848 0.2632221 0.60811305 
0.0015125461 0.27739435 0.7642272 
-0.0049267556 0.28014317 0.7282373 
-0.01943425 0.28133726 0.6825993 
-0.0944255 0.02084738 0.56659 
-0.081937015 0.22707452 0.5722314 
0.015263402 0.21938668 0.56403416 
0.01390137 0.13116872 0.5585182 
0.10566875 -0.3268152 -0.13424191 
0.07812099 -0.33314914 -0.15675688 
0.107218266 -0.30239946 -0.16148242 
0.030550186 -0.34374255 -0.15691575 
0.07041841 -0.34826955 -0.122782975 
0.011267193 -0.3643481 -0.113844745 
0.054976277 -0.30104017 -0.17330611 
0.105111554 -0.3276113 -0.077976674 
0.07747015 -0.3436155 -0.017041901 
0.055894837 -0.35578537 -0.06492102 
0.02769629 -0.36040807 0.0097936485 
0.0074297693 -0.36738715 -0.05158015 
0.13887462 -0.2910581 -0.12914325 
0.14469111 -0.28589362 -0.064492196 
0.111364394 -0.3162067 -0.0048092036 
0.11245604 -0.30648434 0.06978965 
0.06944363 -0.33743954 0.11625621 
0.072138354 -0.3408441 0.045974575 
0.02442123 -0.3571334 0.090260096 
0.026035706 -0.35394865 0.16008162 
0.06789516 -0.33261287 0.23927382 
0.030417766 -0.3476408 0.27971143 
0.035336204 -0.3498584 0.21559757 
0.098679 -0.3024454 0.2610109 
0.07144657 -0.32727787 0.28959805 
0.06837462 -0.33517587 0.1807369 
0.13615409 -0.27264792 0.108109385 
0.104436204 -0.30702668 0.14247695 
0.025879208 -0.23472959 -0.17624453 
0.07789399 -0.17639595 -0.17593776 
0.106749535 -0.2459799 -0.1745457 
-0.0057934113 -0.19917968 -0.007137863 
0.009389595 -0.17445375 -0.06179785 
-0.0028686826 -0.19665869 -0.06568454 
0.024487905 -0.048798982 -0.17922692 
0.09778045 -0.105673864 -0.17715561 
0.030951675 -0.12936008 -0.1640581 
0.20287962 -0.1696495 -0.15167141 
0.19798481 -0.20884126 -0.1388722 
0.19052339 -0.20087513 -0.16250363 
0.16401982 -0.23823088 -0.15723683 
0.17470855 -0.2477901 -0.11235869 
0.15684244 -0.17046207 -0.1717079 
0.19820005 -0.20869324 -0.094397046 
0.19512713 -0.20209931 -0.046502493 
0.17626795 -0.22815907 -0.0073229074 
0.17504224 -0.24264473 -0.056350384 
0.20326228 -0.17502412 -0.03820288 
0.19202895 -0.1815784 -0.00095720775 
0.17163424 -0.032644957 -0.15399712 
0.19189316 -0.07865991 -0.13019025 
0.16003972 -0.08973499 -0.1666663 
0.19322407 -0.12678409 -0.15527463 
0.19131446 -0.048890784 -0.0094839055 
0.20093438 -0.10005948 -0.06794763 
0.1922198 -0.039419696 -0.088596836 
0.20460162 -0.14772616 -0.041482486 
0.19511288 -0.12329754 0.0012670743 
0.11415641 -0.022561394 -0.17654857 
0.02470259 -0.17391586 -0.16021608 
0.013777433 -0.15533027 -0.12308508 
0.20831028 -0.13080785 -0.1219203 
0.008271547 -0.15368691 0.0035976025 
0.0022194767 -0.15156771 -0.06593904 
0.20779033 -0.17404905 -0.07054675 
0.21056437 -0.14365995 -0.08381995 
-0.00028427385 -0.18729082 -0.097947255 
0.005366936 -0.17485031 -0.12606272 
0.18734537 -0.036110967 -0.12809838 
0.2106696 -0.17294405 -0.11478727 
0.00024038187 -0.20264608 0.13842514 
0.017626975 -0.1824008 0.088026874 
-0.0011602829 -0.20205328 0.06783655 
0.013440439 -0.20222318 0.29555982 
0.026201192 -0.17350131 0.23508519 
0.0031767706 -0.20246065 0.21364403 
0.17435613 -0.17439151 0.12480317 
0.16522107 -0.22845697 0.06217566 
0.18565123 -0.16416243 0.05319251 
0.16492301 -0.16111276 0.25746238 
0.1533327 -0.21903262 0.2097851 
0.17170523 -0.15273404 0.1914295 
0.18411487 -0.028144866 0.08098204 
0.17705852 -0.09978229 0.14048317 
0.18586177 -0.10636291 0.066239186 
0.15042324 -0.05009742 0.27845484 
0.16600847 -0.09281689 0.21896327 
0.15705536 -0.02983154 0.22178891 
0.1267992 -0.2614475 0.27693272 
0.12412956 -0.27190834 0.22404248 
0.14771944 -0.02128185 0.25241047 
0.14531147 -0.010233656 0.29056776 
0.019348878 -0.17206235 0.15101524 
0.016740106 -0.15740472 0.074245006 
0.032406133 -0.14493944 0.28168973 
0.00983528 -0.14635417 0.19847575 
0.052194934 -0.15166903 0.32435137 
0.039733127 -0.17104948 0.29329884 
0.15457177 -0.234933 0.13587081 
0.17149572 -0.034397863 0.16364762 
0.009631267 -0.1465857 0.12514082 
0.13092539 -0.26954073 0.17028588 
0.13485265 -0.27551773 -0.16232236 
0.1472381 -0.2724966 0.008280339 
0.1408873 -0.27375865 0.063047156 
0.10012499 -0.305678 0.20406292 
0.014460007 -0.17742705 0.024062041 
0.055482224 -0.3302487 0.40909332 
0.019477095 -0.34814063 0.35312 
0.06211816 -0.32983288 0.34183407 
0.09249021 -0.29816902 0.38793597 
0.049664598 -0.32513252 0.5326469 
0.0065596085 -0.34514397 0.4949574 
0.045568462 -0.33349445 0.46777463 
0.083909735 -0.29956394 0.46865362 
0.014229584 -0.34729895 0.42095295 
0.044585302 -0.3152171 0.6254486 
0.010950116 -0.32925755 0.6925463 
0.009633658 -0.3385588 0.63617647 
0.062336765 -0.27879888 0.6812037 
0.018764202 -0.29899377 0.71574545 
0.026036076 -0.3035801 0.7729491 
0.010312201 -0.32143593 0.7519802 
0.02103836 -0.29966938 0.75824255 
0.050425783 -0.2878446 0.7494638 
0.014605004 -0.21147543 0.37612545 
0.046806976 -0.19072632 0.42109877 
0.045588605 -0.1797119 0.35113925 
0.060627762 -0.162258 0.40744746 
0.018541364 -0.22601041 0.55448246 
0.04226984 -0.20370588 0.4854036 
0.0080821905 -0.22498752 0.4808039 
0.06342758 -0.19578935 0.53923273 
0.07451661 -0.15835392 0.48781157 
0.028744925 -0.12913501 0.34162915 
0.055896863 -0.131488 0.41680825 
0.016578205 -0.12241364 0.40182918 
0.12103586 -0.04551641 0.5301894 
0.09867296 -0.100852124 0.50039566 
0.12629291 -0.049035817 0.47716898 
0.056018315 -0.10569586 0.5609038 
0.023692422 -0.1157004 0.4784962 
0.15528934 -0.16414511 0.4022881 
0.14620864 -0.212062 0.36980766 
0.16020763 -0.16382408 0.33094102 
0.14566146 -0.16449496 0.4820247 
0.12839243 -0.20190887 0.52324253 
0.1383895 -0.20674519 0.48308685 
0.14611256 -0.07869361 0.403782 
0.15636593 -0.114468716 0.3674584 
0.14821333 -0.06621181 0.3502372 
0.1209916 -0.25478572 0.41736042 
0.1246087 -0.25769067 0.34570122 
0.118266605 -0.24465549 0.4916758 
0.103033334 -0.2389844 0.5618227 
0.101533815 -0.17820868 0.5724964 
0.138174 -0.038442068 0.4162516 
0.14219776 -0.02363906 0.3465292 
0.13122058 -0.13195285 0.54570276 
0.10519302 -0.1085632 0.56156677 
0.13445395 -0.07895341 0.453358 
0.1371499 -0.11526182 0.4832309 
0.058901828 -0.15155956 0.3673401 
0.054046858 -0.13670367 0.352202 
0.020413173 -0.21580656 0.43514037 
0.1420375 -0.20925942 0.43890923 
0.14999396 -0.11659363 0.4313333 
0.05723851 -0.25729176 0.68582726 
0.039655577 -0.23876186 0.63020957 
0.02116659 -0.26390618 0.68656313 
0.08042322 -0.23221907 0.6209977 
0.0691168 -0.20832403 0.5908003 
0.059021093 -0.27734202 0.7625464 
0.04573016 -0.2759134 0.7372544 
0.046783302 -0.28624806 0.7705023 
0.11312548 -0.042354 0.67142266 
0.10001996 -0.111307316 0.6280818 
0.11891244 -0.04378365 0.5989073 
0.027783528 -0.09971434 0.63950837 
0.09349774 -0.09854424 0.70188004 
0.03157757 -0.08465439 0.70071507 
0.06515397 -0.06365982 0.77108634 
0.016620168 -0.054470517 0.7633064 
0.053225502 -0.07835847 0.7399346 
0.104427055 -0.0447639 0.7397162 
0.10436762 -0.08982472 0.7683958 
0.09899326 -0.09772279 0.751613 
0.080980085 -0.021059114 0.77668494 
0.12560698 -0.1539841 0.6120453 
0.11328271 -0.14043322 0.66782904 
0.10062898 -0.1733703 0.6176404 
0.12983106 -0.13800687 0.75293034 
0.1204624 -0.12813582 0.7673184 
0.11633934 -0.13153943 0.7293726 
0.1214184 -0.11956009 0.6795664 
0.12123889 -0.11942159 0.73773766 
0.12607872 -0.12657246 0.6217662 
0.12889193 -0.13836423 0.69089794 
0.12666081 -0.12848446 0.7697673 
0.0010443564 -0.06371865 0.72859716 
0.13083223 -0.13852945 0.7732276 
0.09694645 -0.29921356 0.32058522 
0.08347558 -0.28766122 0.5502764 
0.0793226 -0.27526054 0.610253 
0.06226103 -0.27147946 0.73133147 
0.05295103 -0.2868868 0.77376854 
0.01341672 -0.340267 0.5750962 
0.13309631 -0.16761592 0.5483067 
0.045204815 0.04815515 -0.18272498 
0.10251938 0.10931565 -0.17986071 
0.12117578 0.050409272 -0.17985046 
0.07101964 0.15170544 -0.0003898376 
0.063234106 0.15503618 -0.05549942 
0.05397905 0.15804419 -0.011101866 
0.06542673 0.20100307 -0.12865865 
0.04491699 0.18126479 -0.16258462 
0.04131125 0.23623097 -0.17167975 
0.08477837 0.16924945 -0.15896896 
0.08757553 0.19730777 -0.114818126 
0.100857764 0.21902832 -0.16396898 
0.065202326 0.17291108 -0.12358878 
0.06740223 0.20494227 0.0032880967 
0.057248868 0.17847796 -0.06093871 
0.077229634 0.20550622 -0.06343509 
0.10225986 0.21448666 0.0010553492 
0.23399678 0.11254807 -0.15488985 
0.21507561 0.060563706 -0.1182735 
0.20397067 0.07240721 -0.16027875 
0.17199612 0.031123651 -0.16199793 
0.18961668 0.0011880249 -0.12424356 
0.17490011 0.10023837 -0.17582768 
0.24151826 0.096076705 -0.060716856 
0.22122413 0.07088782 -0.013135761 
0.21375655 0.054997474 -0.053615212 
0.19913548 0.025439944 0.006305945 
0.19786653 0.012085219 -0.066876575 
0.17032707 0.23793842 -0.17935994 
0.22092968 0.17226398 -0.17505506 
0.14624797 0.16863951 -0.17756885 
0.12375666 0.19654338 0.001493633 
0.11919437 0.2074287 -0.01843338 
0.11448659 0.1942454 -0.031998683 
0.10298224 0.17183027 0.004857871 
0.09506516 0.18000808 -0.070235625 
0.1020618 0.20467554 -0.05484428 
0.037350103 0.13090225 -0.17842577 
0.07392689 0.16180602 -0.09189453 
0.0614456 0.16148074 -0.09099678 
0.08126303 0.15842944 -0.04743868 
0.082450114 0.17504656 -0.11913958 
0.24987678 0.10833353 -0.11418375 
0.05432945 0.1550343 0.115067504 
0.0779688 0.15215686 0.06621796 
0.053830467 0.15604022 0.047285255 
0.053668868 0.15237242 0.25662225 
0.08136704 0.14735493 0.20737055 
0.054213252 0.15371841 0.18473971 
0.060378563 0.20763803 0.121421576 
0.045465495 0.1789411 0.086196326 
0.056815945 0.2027514 0.060780764 
0.09020691 0.21811871 0.07736781 
0.060098495 0.21159 0.2632392 
0.04367654 0.17979342 0.22433257 
0.060910035 0.21017161 0.19130227 
0.09483057 0.22606775 0.22627418 
0.21261877 0.06877828 0.10013403 
0.18921 0.0284205 0.13657543 
0.19635203 0.033930484 0.07242893 
0.23707719 0.10590865 0.14102158 
0.20900309 0.06821865 0.14381877 
0.21641196 0.06849115 0.040102497 
0.20298815 0.06566915 0.19784176 
0.17814961 0.04432816 0.2689132 
0.17194217 0.014681088 0.20380875 
0.23531565 0.10957212 0.22320108 
0.20977968 0.0816096 0.2635209 
0.12564182 0.19111408 0.11950788 
0.12121752 0.21055114 0.066931754 
0.12421409 0.19215775 0.049800143 
0.12775487 0.19178349 0.20905277 
0.12468544 0.21825217 0.25744545 
0.120020226 0.21972904 0.1977303 
0.15445638 0.0032856083 0.2498951 
0.15485796 0.018545957 0.29722083 
0.107206926 0.16761312 0.088894494 
0.109190896 0.16474736 0.16262192 
0.12061322 0.21366675 0.13792217 
0.09355443 0.22326663 0.15764138 
0.11831653 0.16652834 0.2911932 
0.10784905 0.15923963 0.22665527 
0.09657178 0.22755599 0.29557282 
0.0804363 0.15001564 0.13784222 
0.26073724 0.13517262 0.08511914 
0.23968959 0.10343246 0.06676645 
0.08378798 0.14618678 0.2765574 
0.26007998 0.14880191 0.2540405 
0.26246357 0.1475006 0.18396086 
0.04485309 0.17961869 0.15423483 
0.267205 0.15010332 0.124417014 
0.04867169 0.36841184 -0.12715326 
0.106004655 0.35799035 -0.15346053 
0.050007157 0.34344822 -0.16425925 
0.10488406 0.29897848 -0.17472062 
0.018113665 0.3017832 -0.17602056 
0.10218305 0.37449408 -0.016684283 
0.029495051 0.36983025 -0.056938633 
0.03830081 0.3678965 0.021647168 
0.16927466 0.36612487 -0.12219545 
0.22386476 0.3422632 -0.16049252 
0.16091421 0.34284472 -0.1642131 
0.19238333 0.30270827 -0.17721379 
0.24436718 0.30931553 -0.17455474 
0.23068331 0.35371923 -0.072813064 
0.2607116 0.33078498 -0.027999518 
0.26464513 0.33431 -0.06980762 
0.22079086 0.35398114 -0.0024423786 
0.16794305 0.3700084 -0.048577245 
0.1655556 0.36806822 0.022346094 
0.10633187 0.3743025 -0.12692642 
0.10402987 0.37596908 -0.085392706 
0.26631182 0.3351621 -0.10583301 
0.23649934 0.35262358 -0.12624514 
0.10367254 0.36879897 0.12452344 
0.04225412 0.36543208 0.093461215 
0.044214897 0.3629049 0.16342369 
0.10516243 0.36293736 0.2637811 
0.045946054 0.36033338 0.23318774 
0.048546046 0.3576479 0.30437234 
0.21706998 0.35116577 0.067750305 
0.25379083 0.32317567 0.11068183 
0.2567373 0.32688013 0.03901317 
0.21420622 0.34755385 0.13926703 
0.16413708 0.36498904 0.09249102 
0.16232312 0.36196482 0.16206494 
0.20869932 0.34572053 0.21004817 
0.23684657 0.32334083 0.27603215 
0.25255877 0.31609112 0.19216159 
0.1985519 0.34767663 0.26454964 
0.15991046 0.35953337 0.22886586 
0.16113868 0.35638317 0.29226363 
0.103285864 0.37171885 0.05456648 
0.1037343 0.3659492 0.19385265 
0.29060012 0.2548433 -0.1282177 
0.2735054 0.19904397 -0.15612072 
0.2797643 0.24825409 -0.1622504 
0.28860426 0.22852865 0.012114717 
0.2845357 0.17906123 -0.060474303 
0.29204738 0.24243295 -0.06466822 
0.27166677 0.15005708 -0.12631816 
0.2591268 0.15207937 -0.16081524 
0.26736706 0.1371994 -0.029002164 
0.26710963 0.1330286 -0.080999225 
0.2891155 0.20044073 -0.11315058 
0.2864173 0.2362727 0.09525563 
0.28042147 0.18911184 0.1399219 
0.27990153 0.17862803 0.068217725 
0.28205442 0.23762003 0.23211741 
0.27565938 0.19184193 0.2776985 
0.27812472 0.19069114 0.20840544 
0.28482524 0.23737946 0.16532324 
0.26605964 0.33337992 -0.14711097 
0.2758429 0.2940967 -0.16109833 
0.26152343 0.32812625 -0.1673741 
0.24304768 0.10323879 0.0050106337 
0.24209926 0.2520321 -0.17559841 
0.26524162 0.13851056 0.031215923 
0.28381112 0.30736905 -0.1278284 
0.2826354 0.30194545 -0.07608253 
0.27874085 0.2860762 0.06600985 
0.26974386 0.28293 0.25733194 
0.2768212 0.28375685 0.1379907 
0.28149858 0.28995585 -0.0067260945 
0.27767873 0.27580452 0.19701746 
0.048649486 0.17891781 0.01925696 
0.12452432 0.20779176 0.017517798 
0.28138226 0.17239398 0.0021671932 
0.0800232 0.13814148 0.41035745 
0.051435772 0.15039353 0.34266412 
0.040050186 0.14121719 0.41801253 
0.09394928 0.13022684 0.55433923 
0.04672985 0.127424 0.49194205 
0.045308538 0.109518275 0.5819745 
0.05685612 0.21224594 0.34924483 
0.02709826 0.17643058 0.4013824 
0.03546101 0.17844763 0.3461399 
0.08744939 0.23277909 0.42461136 
0.04230947 0.21571004 0.4213645 
0.09284145 0.24523497 0.5064045 
0.05131131 0.26079065 0.55932057 
0.0434385 0.23057285 0.48808807 
0.19785918 0.07924917 0.41822731 
0.17124632 0.044778094 0.3453607 
0.20302789 0.078888625 0.32682234 
0.23169889 0.11470797 0.36408556 
0.19560823 0.08374155 0.5084567 
0.16886333 0.05660326 0.56689847 
0.16550808 0.045068957 0.48775512 
0.22262183 0.12695694 0.5549716 
0.19500938 0.08767137 0.55789125 
0.13450426 0.19185343 0.34666088 
0.12741606 0.21909258 0.39108288 
0.12782016 0.21886757 0.32418266 
0.13707665 0.19033849 0.488706 
0.12811533 0.23117125 0.5470457 
0.12692928 0.22203006 0.4636488 
0.1486008 0.011601422 0.3480534 
0.1591759 0.032680064 0.41291606 
0.14237736 -0.00021768338 0.4008826 
0.13970321 0.007836265 0.54986405 
0.13966016 -0.0022744255 0.4708832 
0.13517982 0.18993106 0.41675562 
0.11731763 0.16069809 0.37130737 
0.118896775 0.15780102 0.44271755 
0.10270971 0.23032662 0.35701355 
0.1413641 0.1904775 0.55999696 
0.12321993 0.15653664 0.51213634 
0.12994204 0.15882629 0.5727178 
0.09330213 0.26008326 0.5652591 
0.090850055 0.14521037 0.33751267 
0.25644428 0.15379065 0.3945441 
0.2580809 0.15064003 0.32391635 
0.09370236 0.13556272 0.47957236 
0.25281125 0.16034721 0.47781017 
0.22211638 0.1127104 0.47708338 
0.23373634 0.12211813 0.42651922 
0.0075083356 0.07184882 0.66825724 
0.05750706 0.083695084 0.70026034 
0.039957434 0.091543704 0.6403066 
0.08598012 0.113439485 0.638235 
0.033838578 0.051581457 0.74987155 
0.07688474 0.06469117 0.7722515 
0.067197055 0.07568966 0.74784875 
0.1002527 0.09876196 0.7499906 
0.09602286 0.041497305 0.78112745 
0.051889293 0.021155987 0.7799574 
0.18536521 0.094009385 0.6719203 
0.16663697 0.06294623 0.63387775 
0.19239663 0.0912768 0.60550916 
0.21403912 0.13201414 0.642621 
0.17308648 0.099124506 0.74012494 
0.13457435 0.069723085 0.7709131 
0.14153937 0.05379445 0.7391286 
0.18325798 0.13197228 0.76967824 
0.15522863 0.10961988 0.77699745 
0.14596209 0.18568948 0.6277757 
0.15532295 0.22084658 0.69941163 
0.14027596 0.22810814 0.6246042 
0.23195525 0.24392849 0.67590773 
0.24009666 0.18934011 0.61828625 
0.24616025 0.23919031 0.6219396 
0.19146451 0.15855004 0.76587135 
0.17340523 0.18032181 0.7453041 
0.16697252 0.14168926 0.7712029 
0.18320306 0.23434979 0.7529473 
0.19880831 0.26465434 0.76334727 
0.17070329 0.27686405 0.7730042 
0.20303138 0.18839107 0.7491274 
0.13879767 0.017859196 0.6322579 
0.15489715 0.057705935 0.69025755 
0.12671676 0.012902172 0.7078838 
0.11433104 0.02022263 0.7585393 
0.1172464 0.08611898 0.77930367 
0.14812572 0.16946651 0.68877095 
0.12503266 0.14737672 0.6260004 
0.12336695 0.13663289 0.6802476 
0.123236105 0.26263043 0.6909511 
0.1049563 0.2649666 0.6226696 
0.13832957 0.1385659 0.7365613 
0.13721348 0.118046276 0.77200055 
0.14490709 0.26516685 0.7460035 
0.13589108 0.29217952 0.7733033 
0.22141477 0.17866531 0.6995542 
0.20159516 0.14644767 0.74472845 
0.0101770535 0.06034931 0.7087765 
0.20329815 0.12836918 0.70248026 
0.21404466 0.233074 0.7375456 
0.10286473 0.113887504 0.7024642 
0.10431743 0.35644135 0.4215517 
0.04966995 0.355249 0.37631786 
0.04934927 0.3533354 0.4442064 
0.09089145 0.3475294 0.57077575 
0.04635433 0.3490103 0.5062097 
0.03362178 0.3348174 0.55896 
0.16473775 0.34915274 0.40660393 
0.20262247 0.33903176 0.3728779 
0.17078936 0.35173833 0.34590024 
0.2319934 0.3160292 0.4063999 
0.20138463 0.33687842 0.4138076 
0.20350304 0.34242293 0.3161448 
0.23092207 0.32361943 0.34322834 
0.1550642 0.34678033 0.4807009 
0.20351306 0.3210259 0.5401943 
0.2008887 0.33192235 0.45913526 
0.24169025 0.29889286 0.48326898 
0.113821864 0.35888332 0.34252408 
0.15031582 0.3436858 0.5553221 
0.0995827 0.35362175 0.49351025 
0.026171824 0.29778343 0.68094075 
0.052061558 0.3278054 0.6243626 
0.0315852 0.2941429 0.63030875 
0.06507093 0.28731185 0.64390695 
0.062510975 0.33025455 0.69431674 
0.10087425 0.34423247 0.6517717 
0.053992312 0.30644315 0.76937175 
0.07084957 0.33061588 0.74762535 
0.03695512 0.29929322 0.7392194 
0.0969708 0.29170647 0.7481568 
0.08539915 0.3302238 0.77547145 
0.104765125 0.33963552 0.7619197 
0.108161926 0.31598195 0.77995896 
0.14713298 0.34151018 0.6287129 
0.1851016 0.32098475 0.68526304 
0.1918207 0.3223008 0.6183497 
0.21509527 0.29426223 0.6706117 
0.1386308 0.3349668 0.7488394 
0.1535277 0.31049287 0.7749002 
0.17563413 0.3173355 0.74100995 
0.18817216 0.2918834 0.7673988 
0.14531341 0.33891284 0.69593465 
0.103766024 0.3425068 0.7162765 
0.12532844 0.3312963 0.7765256 
0.105742656 0.33400124 0.7807478 
0.0780824 0.28664207 0.6903964 
0.20812291 0.28352976 0.72979593 
0.27539974 0.23870206 0.37410194 
0.27145243 0.19595829 0.41689688 
0.27332497 0.19323516 0.3476208 
0.27315557 0.23764312 0.49218833 
0.266966 0.20829298 0.5174694 
0.27177438 0.20553684 0.4700871 
0.27491468 0.23748773 0.43889785 
0.25195062 0.1817551 0.5497887 
0.2564909 0.23723844 0.56761366 
0.2606599 0.28756678 0.33959967 
0.26277786 0.26426673 0.51835895 
0.24238734 0.28538418 0.54800093 
0.2635123 0.2767722 0.4185133 
0.0653805 0.2806955 0.6000092 
0.26749492 0.26646793 0.47147554 
0.009632783 0.26866698 0.6696746 
0.021787401 0.26386297 0.61029637 
0.23115428 0.28175974 0.6108339 
0.0043601543 0.27534193 0.7640615 
0.004184301 0.27455303 0.7264677 
0.027536254 0.30071598 0.59339577 
0.26951963 0.23808949 0.52743876 
-0.025128772 -0.3544603 0.30623782 
-0.029904898 -0.21548402 0.27797735 
-0.007426062 -0.32568088 0.7677666 
0.0012589426 -0.32077473 0.77501273 
-0.021611001 -0.043738138 0.77597 
-0.0029716473 0.34493724 0.2838648 
0.0030105493 0.002397068 0.77042174 
-0.009439942 0.31500304 0.553669 
-0.09983942 -0.024316415 -0.16687617 
-0.111442715 0.044374783 0.28201193 
-0.12327623 -0.014809521 0.3510791 
0.031681255 -0.026632782 0.78075814 
-0.21396875 -0.1835016 0.2985712 
-0.04808647 -0.15570672 0.29616952 
-0.09647789 0.23216593 0.29079658 
0.047389433 -0.1362902 0.3225839 
0.14983091 -0.2141068 0.29705065 
0.16014355 -0.10828117 0.2979856 
0.041365802 0.17952718 0.29605496 
0.23394293 0.11268109 0.2933889 
0.13462304 0.19772843 0.28576362 
0.27797693 0.23918045 0.30207884 
-0.119936526 -0.0025157297 0.29443374 
3 0 1 2 
3 3 0 2 
3 2 4 3 
3 5 0 6 
3 7 8 9 
3 10 11 12 
3 10 13 14 
3 15 16 17 
3 18 15 17 
3 3 12 6 
3 3 19 10 
3 16 20 7 
3 16 21 17 
3 21 5 6 
3 5 9 22 
3 12 18 17 
3 12 21 6 
3 23 24 25 
3 26 27 28 
3 29 30 31 
3 32 33 29 
3 34 35 36 
3 37 38 34 
3 31 24 39 
3 36 27 40 
3 25 40 26 
3 33 36 30 
3 41 34 33 
3 30 40 24 
3 42 43 44 
3 44 45 42 
3 46 47 48 
3 49 50 51 
3 52 53 54 
3 55 56 57 
3 58 59 60 
3 61 62 63 
3 64 65 66 
3 65 67 68 
3 69 70 71 
3 45 61 63 
3 72 51 50 
3 51 69 49 
3 56 73 57 
3 44 54 53 
3 53 74 44 
3 75 76 71 
3 61 71 76 
3 77 59 47 
3 78 79 64 
3 48 43 80 
3 55 50 52 
3 59 52 54 
3 64 81 82 
3 47 54 43 
3 78 82 75 
3 57 72 50 
3 74 69 61 
3 83 84 85 
3 86 87 88 
3 89 90 91 
3 92 93 94 
3 95 96 97 
3 98 99 100 
3 101 102 103 
3 104 103 102 
3 101 105 106 
3 107 108 109 
3 110 111 108 
3 112 107 109 
3 90 113 91 
3 96 114 97 
3 115 93 84 
3 116 117 118 
3 87 100 99 
3 119 112 120 
3 88 115 83 
3 92 97 90 
3 95 94 99 
3 109 102 106 
3 111 102 108 
3 106 112 109 
3 115 99 94 
3 120 105 116 
3 97 121 90 
3 1 80 42 
3 1 45 4 
3 19 62 13 
3 9 46 48 
3 9 80 22 
3 4 63 19 
3 25 85 23 
3 28 88 26 
3 26 83 25 
3 8 39 23 
3 15 31 122 
3 123 29 15 
3 122 39 20 
3 85 77 46 
3 58 91 56 
3 89 60 93 
3 101 68 67 
3 124 68 103 
3 67 117 101 
3 84 60 77 
3 125 117 79 
3 91 126 56 
3 23 46 8 
3 127 128 129 
3 130 131 132 
3 133 134 135 
3 136 137 133 
3 138 139 140 
3 139 141 142 
3 139 143 140 
3 135 128 144 
3 145 141 131 
3 129 145 130 
3 143 134 137 
3 146 143 137 
3 134 145 128 
3 147 148 149 
3 150 151 152 
3 151 153 154 
3 155 156 157 
3 158 156 159 
3 147 153 160 
3 158 161 162 
3 155 163 150 
3 163 158 153 
3 153 162 160 
3 164 165 166 
3 165 167 166 
3 168 169 170 
3 171 170 169 
3 172 173 174 
3 175 176 177 
3 178 179 176 
3 180 175 177 
3 181 182 183 
3 184 185 182 
3 186 181 183 
3 187 188 189 
3 190 173 191 
3 192 187 193 
3 187 194 193 
3 167 172 174 
3 167 195 166 
3 196 180 197 
3 198 192 193 
3 199 200 186 
3 201 170 165 
3 198 165 170 
3 172 194 191 
3 183 178 175 
3 182 202 178 
3 203 183 175 
3 198 172 204 
3 199 203 196 
3 194 190 191 
3 205 206 207 
3 206 208 207 
3 209 206 210 
3 211 212 213 
3 214 215 212 
3 216 217 218 
3 219 220 221 
3 222 223 219 
3 220 224 221 
3 225 226 227 
3 228 229 230 
3 225 229 231 
3 226 228 227 
3 229 226 231 
3 232 218 233 
3 234 235 236 
3 234 233 218 
3 237 219 238 
3 239 225 240 
3 208 237 238 
3 219 211 213 
3 241 219 213 
3 235 240 236 
3 225 242 234 
3 209 236 243 
3 211 218 214 
3 217 214 218 
3 223 227 220 
3 244 230 245 
3 223 230 225 
3 227 244 220 
3 243 240 237 
3 225 211 223 
3 240 223 237 
3 242 239 235 
3 129 164 127 
3 132 168 130 
3 130 201 129 
3 148 205 149 
3 160 210 148 
3 162 232 233 
3 217 156 157 
3 246 159 156 
3 162 209 160 
3 217 163 247 
3 216 161 159 
3 132 147 149 
3 138 151 248 
3 248 154 141 
3 131 154 147 
3 249 207 169 
3 208 169 207 
3 181 212 184 
3 212 250 184 
3 181 241 213 
3 251 221 188 
3 171 238 192 
3 252 241 200 
3 238 251 192 
3 149 249 132 
3 253 254 255 
3 256 257 258 
3 259 260 261 
3 262 263 264 
3 265 266 267 
3 268 269 270 
3 261 253 255 
3 255 259 261 
3 271 253 272 
3 257 267 258 
3 273 256 274 
3 275 258 254 
3 267 276 259 
3 264 268 270 
3 262 271 272 
3 274 269 273 
3 264 274 271 
3 258 259 254 
3 271 256 275 
3 277 278 279 
3 280 281 282 
3 283 284 285 
3 286 287 288 
3 279 283 285 
3 282 286 288 
3 289 282 278 
3 288 290 283 
3 278 288 283 
3 291 292 293 
3 292 294 293 
3 293 295 291 
3 296 297 298 
3 299 296 300 
3 296 301 300 
3 302 291 303 
3 300 292 304 
3 301 305 292 
3 306 307 308 
3 309 308 310 
3 311 312 313 
3 314 313 315 
3 313 316 306 
3 315 306 309 
3 257 302 303 
3 265 295 317 
3 269 299 300 
3 269 304 273 
3 303 265 257 
3 273 302 318 
3 284 309 310 
3 287 314 315 
3 290 315 309 
3 319 279 263 
3 285 320 268 
3 263 285 268 
3 308 297 321 
3 308 299 310 
3 320 310 299 
3 322 323 324 
3 325 326 327 
3 328 329 330 
3 331 332 333 
3 334 335 336 
3 324 328 330 
3 327 331 333 
3 335 337 336 
3 338 327 323 
3 333 339 328 
3 340 336 341 
3 323 333 328 
3 336 342 341 
3 343 344 345 
3 346 347 348 
3 348 343 345 
3 349 350 351 
3 352 353 354 
3 355 356 357 
3 358 359 360 
3 361 362 363 
3 364 365 366 
3 364 363 362 
3 367 362 368 
3 344 355 357 
3 360 369 346 
3 351 361 349 
3 365 350 352 
3 367 351 350 
3 353 370 343 
3 352 347 369 
3 347 353 343 
3 355 363 371 
3 372 365 359 
3 363 372 371 
3 370 361 355 
3 365 369 359 
3 373 374 375 
3 376 375 377 
3 378 379 380 
3 381 378 382 
3 378 383 373 
3 382 373 376 
3 384 385 386 
3 329 376 377 
3 332 381 382 
3 339 382 376 
3 356 384 386 
3 372 384 371 
3 366 387 388 
3 372 388 389 
3 345 326 390 
3 357 391 331 
3 392 360 335 
3 326 357 331 
3 360 393 335 
3 385 381 386 
3 391 386 381 
3 394 395 396 
3 397 398 399 
3 400 395 397 
3 401 402 403 
3 403 404 405 
3 396 406 394 
3 407 408 401 
3 401 398 394 
3 399 403 405 
3 406 401 394 
3 409 410 411 
3 412 410 413 
3 414 415 416 
3 414 417 418 
3 419 414 416 
3 409 420 421 
3 421 419 410 
3 413 419 416 
3 422 423 424 
3 425 426 427 
3 428 429 430 
3 431 432 433 
3 434 432 435 
3 436 433 434 
3 432 437 435 
3 438 439 440 
3 438 441 442 
3 443 444 445 
3 444 446 445 
3 447 448 449 
3 450 448 451 
3 424 436 434 
3 452 445 429 
3 453 454 430 
3 430 423 453 
3 455 431 446 
3 436 446 431 
3 426 456 457 
3 450 458 459 
3 450 442 441 
3 460 426 461 
3 437 440 435 
3 437 458 438 
3 449 444 462 
3 448 455 444 
3 426 454 461 
3 459 463 455 
3 429 436 423 
3 464 465 466 
3 467 468 469 
3 470 471 472 
3 473 474 475 
3 476 477 478 
3 479 480 481 
3 474 482 483 
3 479 484 485 
3 486 487 465 
3 478 470 472 
3 468 488 489 
3 490 488 491 
3 480 473 475 
3 469 486 464 
3 470 474 492 
3 493 480 477 
3 486 489 494 
3 477 475 470 
3 495 474 483 
3 400 424 396 
3 434 406 496 
3 440 497 407 
3 435 407 406 
3 424 496 396 
3 471 420 498 
3 483 417 499 
3 495 499 421 
3 420 495 421 
3 408 411 402 
3 404 411 412 
3 497 409 408 
3 466 500 425 
3 442 471 439 
3 447 478 451 
3 500 487 456 
3 451 472 442 
3 471 497 439 
3 501 502 503 
3 503 504 501 
3 505 506 507 
3 508 505 507 
3 507 509 501 
3 501 508 507 
3 510 511 512 
3 510 513 514 
3 515 516 517 
3 518 515 517 
3 514 516 511 
3 514 518 517 
3 519 520 521 
3 522 521 520 
3 523 524 525 
3 526 527 524 
3 528 529 530 
3 531 532 533 
3 532 534 535 
3 536 537 538 
3 539 540 541 
3 542 543 544 
3 537 545 546 
3 547 540 548 
3 540 549 548 
3 550 544 551 
3 552 532 553 
3 554 532 555 
3 556 529 557 
3 543 536 538 
3 527 553 532 
3 552 539 555 
3 558 524 520 
3 527 520 524 
3 529 535 530 
3 539 559 536 
3 554 560 542 
3 527 529 522 
3 560 539 536 
3 559 547 545 
3 554 550 533 
3 561 562 563 
3 564 565 562 
3 566 567 568 
3 569 570 571 
3 572 573 574 
3 575 576 577 
3 578 579 580 
3 580 575 577 
3 581 575 579 
3 582 583 584 
3 585 586 587 
3 588 570 573 
3 579 589 580 
3 583 570 584 
3 590 591 582 
3 586 580 587 
3 592 585 589 
3 567 561 563 
3 577 593 574 
3 578 573 569 
3 573 577 574 
3 587 573 583 
3 589 591 588 
3 591 587 583 
3 589 573 580 
3 592 586 594 
3 546 504 595 
3 547 596 508 
3 545 508 504 
3 564 513 597 
3 517 568 567 
3 566 518 598 
3 599 568 515 
3 514 567 563 
3 598 513 561 
3 510 600 505 
3 596 510 505 
3 523 565 526 
3 549 564 548 
3 565 549 526 
3 571 553 531 
3 534 570 572 
3 549 570 553 
3 552 582 601 
3 549 582 584 
3 590 553 570 
3 548 597 596 
3 602 603 604 
3 605 606 607 
3 608 609 610 
3 611 612 613 
3 614 611 609 
3 613 608 610 
3 615 616 617 
3 617 618 615 
3 619 620 621 
3 622 620 623 
3 624 621 622 
3 625 626 627 
3 627 628 629 
3 630 631 632 
3 633 634 635 
3 604 624 622 
3 613 632 611 
3 636 635 637 
3 634 618 638 
3 635 638 637 
3 639 611 603 
3 640 614 641 
3 624 631 619 
3 616 607 606 
3 642 636 637 
3 606 640 641 
3 608 616 614 
3 637 612 643 
3 612 617 608 
3 625 620 644 
3 620 629 623 
3 616 641 614 
3 640 637 643 
3 603 632 624 
3 645 646 647 
3 648 649 650 
3 651 652 653 
3 654 651 653 
3 655 656 657 
3 658 655 657 
3 659 660 661 
3 659 662 663 
3 664 659 661 
3 665 666 667 
3 668 669 665 
3 670 671 672 
3 673 674 675 
3 676 666 677 
3 670 678 679 
3 654 680 681 
3 682 673 683 
3 658 674 684 
3 652 645 647 
3 685 678 646 
3 686 662 687 
3 656 648 650 
3 688 683 649 
3 689 668 690 
3 650 685 645 
3 657 691 651 
3 681 657 651 
3 665 660 663 
3 662 665 663 
3 673 680 670 
3 691 650 645 
3 649 679 685 
3 690 662 692 
3 673 679 683 
3 681 675 658 
3 693 694 695 
3 695 696 697 
3 698 699 700 
3 701 702 703 
3 704 702 705 
3 706 707 708 
3 709 710 711 
3 701 694 712 
3 696 703 704 
3 698 710 713 
3 713 693 699 
3 706 714 715 
3 706 701 710 
3 713 701 712 
3 716 717 718 
3 719 720 721 
3 722 723 724 
3 725 726 727 
3 728 729 730 
3 731 732 733 
3 716 726 734 
3 719 732 735 
3 735 718 720 
3 725 730 723 
3 728 727 732 
3 735 727 716 
3 736 737 738 
3 739 740 741 
3 737 742 743 
3 740 744 745 
3 741 746 736 
3 740 742 746 
3 747 748 749 
3 750 751 752 
3 753 752 748 
3 754 755 756 
3 619 742 644 
3 625 744 757 
3 758 737 631 
3 644 745 625 
3 631 743 619 
3 744 759 757 
3 749 692 686 
3 752 689 690 
3 748 690 692 
3 754 702 715 
3 705 756 755 
3 754 714 760 
3 707 761 708 
3 761 714 708 
3 723 762 724 
3 763 730 729 
3 730 764 723 
3 610 696 613 
3 704 758 630 
3 696 630 613 
3 755 736 738 
3 765 741 761 
3 761 736 760 
3 764 747 762 
3 763 750 766 
3 766 753 764 
3 647 605 607 
3 653 767 615 
3 615 654 653 
3 757 664 626 
3 628 664 661 
3 672 768 633 
3 767 647 607 
3 646 636 605 
3 759 687 757 
3 672 636 678 
3 618 671 654 
3 734 700 717 
3 709 724 707 
3 722 711 726 
3 734 711 698 
3 739 749 769 
3 762 739 765 
3 759 749 686 
3 724 765 707 
3 758 755 738 
3 770 771 772 
3 773 774 775 
3 776 777 778 
3 776 779 780 
3 781 782 783 
3 784 785 786 
3 787 784 786 
3 788 789 790 
3 788 791 792 
3 793 794 795 
3 796 797 798 
3 799 800 801 
3 790 802 803 
3 804 805 806 
3 807 794 779 
3 808 809 810 
3 781 797 811 
3 777 771 778 
3 770 805 812 
3 813 787 814 
3 773 809 815 
3 816 791 817 
3 774 770 772 
3 779 783 780 
3 784 790 800 
3 784 817 788 
3 804 798 794 
3 815 806 770 
3 816 818 813 
3 800 803 801 
3 796 806 809 
3 779 798 781 
3 819 820 821 
3 820 822 821 
3 823 824 825 
3 824 826 825 
3 827 824 828 
3 829 830 831 
3 832 829 831 
3 833 834 835 
3 833 836 837 
3 838 839 840 
3 841 842 843 
3 844 845 846 
3 847 848 849 
3 850 847 845 
3 851 852 853 
3 854 834 827 
3 834 855 827 
3 856 857 858 
3 840 859 860 
3 846 861 862 
3 863 849 864 
3 822 858 857 
3 865 832 842 
3 826 862 861 
3 844 866 850 
3 836 846 837 
3 823 820 867 
3 826 820 825 
3 833 852 829 
3 868 833 829 
3 845 839 856 
3 869 865 841 
3 870 861 858 
3 865 866 868 
3 853 835 854 
3 861 856 858 
3 839 863 859 
3 837 862 855 
3 871 872 873 
3 874 875 876 
3 877 878 879 
3 880 878 881 
3 882 878 883 
3 884 885 886 
3 885 887 886 
3 877 888 871 
3 889 890 874 
3 890 873 875 
3 877 886 881 
3 886 880 881 
3 884 871 890 
3 891 892 893 
3 894 891 893 
3 895 896 892 
3 897 898 899 
3 900 897 899 
3 901 902 898 
3 903 901 897 
3 904 905 906 
3 907 906 905 
3 908 909 910 
3 911 910 909 
3 912 896 913 
3 914 902 915 
3 914 903 909 
3 899 895 891 
3 916 899 891 
3 898 913 895 
3 912 910 905 
3 917 905 910 
3 908 913 902 
3 918 919 920 
3 921 922 923 
3 924 923 919 
3 920 813 814 
3 816 922 925 
3 922 926 925 
3 919 816 813 
3 880 927 883 
3 928 887 929 
3 887 930 880 
3 931 782 811 
3 930 918 927 
3 928 921 932 
3 932 924 930 
3 893 933 934 
3 860 916 894 
3 935 841 843 
3 899 936 937 
3 864 900 863 
3 917 848 869 
3 911 849 848 
3 891 937 933 
3 859 900 916 
3 917 841 907 
3 909 864 849 
3 822 775 821 
3 831 789 792 
3 791 831 792 
3 808 840 797 
3 926 842 925 
3 773 857 810 
3 842 791 925 
3 789 851 802 
3 838 810 857 
3 797 860 811 
3 938 892 876 
3 931 893 938 
3 892 874 876 
3 889 906 885 
3 935 885 906 
3 904 874 896 
3 938 934 782 
3 860 931 811 
3 935 926 929 
3 928 926 939 
3 14 399 11 
3 13 397 14 
3 405 123 18 
3 399 18 11 
3 412 41 32 
3 37 415 940 
3 413 37 41 
3 461 76 82 
3 76 422 62 
3 460 82 81 
3 425 66 65 
3 430 75 71 
3 71 428 430 
3 457 125 78 
3 427 81 66 
3 75 457 78 
3 104 466 124 
3 941 469 111 
3 118 494 116 
3 489 119 120 
3 111 464 104 
3 116 489 120 
3 404 32 123 
3 124 425 65 
3 456 118 125 
3 13 422 400 
3 136 509 146 
3 506 138 140 
3 146 506 140 
3 512 150 152 
3 516 942 155 
3 156 517 157 
3 943 156 942 
3 511 155 150 
3 157 514 163 
3 202 519 179 
3 523 185 250 
3 197 530 196 
3 535 252 199 
3 525 202 185 
3 196 535 199 
3 563 215 247 
3 572 245 222 
3 593 245 574 
3 576 944 228 
3 593 228 244 
3 600 152 138 
3 215 523 250 
3 252 572 222 
3 514 247 163 
3 276 602 260 
3 266 610 609 
3 266 639 276 
3 693 294 305 
3 294 697 295 
3 297 699 298 
3 699 305 298 
3 316 717 307 
3 945 720 312 
3 312 718 316 
3 307 700 297 
3 317 697 610 
3 393 774 337 
3 777 340 341 
3 783 392 334 
3 774 342 337 
3 340 783 334 
3 777 342 772 
3 347 819 348 
3 819 346 348 
3 946 823 354 
3 358 933 372 
3 366 936 364 
3 354 867 347 
3 372 937 366 
3 383 872 374 
3 379 875 380 
3 876 947 938 
3 380 873 383 
3 891 385 389 
3 387 899 388 
3 388 891 389 
3 346 775 393 
3 392 934 358 
3 385 938 947 
3 936 387 364 
3 72 261 948 
3 948 260 70 
3 73 319 262 
3 72 262 272 
3 113 289 277 
3 114 949 280 
3 121 280 289 
3 126 277 319 
3 602 452 428 
3 623 443 622 
3 629 447 449 
3 623 449 462 
3 452 622 443 
3 660 476 661 
3 676 485 484 
3 667 493 660 
3 481 676 484 
3 628 476 447 
3 950 338 322 
3 188 325 189 
3 190 325 338 
3 224 347 348 
3 224 345 221 
3 228 946 354 
3 244 354 347 
3 221 390 188 
3 801 551 799 
3 803 531 533 
3 803 550 801 
3 851 569 571 
3 854 581 578 
3 581 828 951 
3 853 578 569 
3 802 571 531 
3 28 144 127 
3 38 135 35 
3 940 133 38 
3 35 144 27 
3 164 952 86 
3 98 173 96 
3 195 98 100 
3 177 110 107 
3 176 941 110 
3 953 177 107 
3 952 195 100 
3 197 953 119 
3 950 96 173 
3 127 86 28 
3 949 324 281 
3 330 954 286 
3 281 330 286 
3 375 945 311 
3 377 311 314 
3 954 377 314 
3 503 415 418 
3 418 595 503 
3 467 521 491 
3 521 490 491 
3 955 528 488 
3 538 956 473 
3 544 957 479 
3 490 557 955 
3 957 538 473 
3 956 546 482 
3 551 479 485 
3 482 595 417 
3 771 688 648 
3 776 958 655 
3 684 776 655 
3 786 666 669 
3 959 786 669 
3 960 795 674 
3 958 771 648 
3 812 682 688 
3 814 959 689 
3 677 785 799 
3 793 682 805 
3 684 795 807 
3 888 721 872 
3 882 729 731 
3 882 733 879 
3 888 733 719 
3 961 920 751 
3 927 961 763 
3 751 814 689 
3 927 729 883 
3 962 322 949 
3 799 485 677 
3 940 502 136 
3 179 467 941 
3 119 528 197 
3 374 721 945 
3 260 428 70 
3 951 946 944 
3 0 22 1 
3 3 6 0 
3 2 1 4 
3 5 22 0 
3 7 20 8 
3 10 14 11 
3 10 19 13 
3 15 122 16 
3 18 123 15 
3 3 10 12 
3 3 4 19 
3 16 122 20 
3 16 7 21 
3 21 7 5 
3 5 7 9 
3 12 11 18 
3 12 17 21 
3 23 39 24 
3 26 40 27 
3 29 33 30 
3 32 41 33 
3 34 38 35 
3 37 940 38 
3 31 30 24 
3 36 35 27 
3 25 24 40 
3 33 34 36 
3 41 37 34 
3 30 36 40 
3 42 80 43 
3 44 74 45 
3 46 77 47 
3 49 52 50 
3 52 49 53 
3 55 58 56 
3 58 55 59 
3 61 76 62 
3 64 79 65 
3 65 79 67 
3 69 948 70 
3 45 74 61 
3 72 948 51 
3 51 948 69 
3 56 126 73 
3 44 43 54 
3 53 49 74 
3 75 82 76 
3 61 69 71 
3 77 60 59 
3 78 125 79 
3 48 47 43 
3 55 57 50 
3 59 55 52 
3 64 66 81 
3 47 59 54 
3 78 64 82 
3 57 73 72 
3 74 49 69 
3 83 115 84 
3 86 952 87 
3 89 92 90 
3 92 89 93 
3 95 98 96 
3 98 95 99 
3 101 106 102 
3 104 124 103 
3 101 117 105 
3 107 110 108 
3 110 941 111 
3 112 953 107 
3 90 121 113 
3 96 962 114 
3 115 94 93 
3 116 105 117 
3 87 952 100 
3 119 953 112 
3 88 87 115 
3 92 95 97 
3 95 92 94 
3 109 108 102 
3 111 104 102 
3 106 105 112 
3 115 87 99 
3 120 112 105 
3 97 114 121 
3 1 22 80 
3 1 42 45 
3 19 63 62 
3 9 8 46 
3 9 48 80 
3 4 45 63 
3 25 83 85 
3 28 86 88 
3 26 88 83 
3 8 20 39 
3 15 29 31 
3 123 32 29 
3 122 31 39 
3 85 84 77 
3 58 89 91 
3 89 58 60 
3 101 103 68 
3 124 65 68 
3 67 79 117 
3 84 93 60 
3 125 118 117 
3 91 113 126 
3 23 85 46 
3 127 144 128 
3 130 145 131 
3 133 137 134 
3 136 146 137 
3 138 248 139 
3 139 248 141 
3 139 142 143 
3 135 134 128 
3 145 142 141 
3 129 128 145 
3 143 142 134 
3 146 140 143 
3 134 142 145 
3 147 160 148 
3 150 163 151 
3 151 163 153 
3 155 942 156 
3 158 157 156 
3 147 154 153 
3 158 159 161 
3 155 157 163 
3 163 157 158 
3 153 158 162 
3 164 201 165 
3 165 204 167 
3 168 249 169 
3 171 198 170 
3 172 191 173 
3 175 178 176 
3 178 202 179 
3 180 203 175 
3 181 184 182 
3 184 250 185 
3 186 200 181 
3 187 251 188 
3 190 950 173 
3 192 251 187 
3 187 189 194 
3 167 204 172 
3 167 174 195 
3 196 203 180 
3 198 171 192 
3 199 252 200 
3 201 168 170 
3 198 204 165 
3 172 193 194 
3 183 182 178 
3 182 185 202 
3 203 186 183 
3 198 193 172 
3 199 186 203 
3 194 189 190 
3 205 210 206 
3 206 243 208 
3 209 243 206 
3 211 214 212 
3 214 247 215 
3 216 246 217 
3 219 223 220 
3 222 245 223 
3 220 244 224 
3 225 231 226 
3 228 944 229 
3 225 230 229 
3 226 944 228 
3 229 944 226 
3 232 216 218 
3 234 242 235 
3 234 236 233 
3 237 223 219 
3 239 231 225 
3 208 243 237 
3 219 223 211 
3 241 222 219 
3 235 239 240 
3 225 231 242 
3 209 233 236 
3 211 234 218 
3 217 247 214 
3 223 225 227 
3 244 228 230 
3 223 245 230 
3 227 228 244 
3 243 236 240 
3 225 234 211 
3 240 225 223 
3 242 231 239 
3 129 201 164 
3 132 249 168 
3 130 168 201 
3 148 210 205 
3 160 209 210 
3 162 161 232 
3 217 246 156 
3 246 216 159 
3 162 233 209 
3 217 157 163 
3 216 232 161 
3 132 131 147 
3 138 152 151 
3 248 151 154 
3 131 141 154 
3 249 205 207 
3 208 171 169 
3 181 213 212 
3 212 215 250 
3 181 200 241 
3 251 219 221 
3 171 208 238 
3 252 222 241 
3 238 219 251 
3 149 205 249 
3 253 275 254 
3 256 318 257 
3 259 276 260 
3 262 319 263 
3 265 317 266 
3 268 320 269 
3 261 272 253 
3 255 254 259 
3 271 275 253 
3 257 265 267 
3 273 318 256 
3 275 256 258 
3 267 266 276 
3 264 263 268 
3 262 264 271 
3 274 270 269 
3 264 270 274 
3 258 267 259 
3 271 274 256 
3 277 289 278 
3 280 949 281 
3 283 290 284 
3 286 954 287 
3 279 278 283 
3 282 281 286 
3 289 280 282 
3 288 287 290 
3 278 282 288 
3 291 304 292 
3 292 305 294 
3 293 294 295 
3 296 321 297 
3 299 321 296 
3 296 298 301 
3 302 304 291 
3 300 301 292 
3 301 298 305 
3 306 316 307 
3 309 306 308 
3 311 945 312 
3 314 311 313 
3 313 312 316 
3 315 313 306 
3 257 318 302 
3 265 291 295 
3 269 320 299 
3 269 300 304 
3 303 291 265 
3 273 304 302 
3 284 290 309 
3 287 954 314 
3 290 287 315 
3 319 277 279 
3 285 284 320 
3 263 279 285 
3 308 307 297 
3 308 321 299 
3 320 284 310 
3 322 338 323 
3 325 390 326 
3 328 339 329 
3 331 391 332 
3 334 392 335 
3 324 323 328 
3 327 326 331 
3 335 393 337 
3 338 325 327 
3 333 332 339 
3 340 334 336 
3 323 327 333 
3 336 337 342 
3 343 370 344 
3 346 369 347 
3 348 347 343 
3 349 352 350 
3 352 349 353 
3 355 371 356 
3 358 372 359 
3 361 368 362 
3 364 367 365 
3 364 366 363 
3 367 364 362 
3 344 370 355 
3 360 359 369 
3 351 368 361 
3 365 367 350 
3 367 368 351 
3 353 349 370 
3 352 354 347 
3 347 354 353 
3 355 361 363 
3 372 366 365 
3 363 366 372 
3 370 349 361 
3 365 352 369 
3 373 383 374 
3 376 373 375 
3 378 947 379 
3 381 947 378 
3 378 380 383 
3 382 378 373 
3 384 389 385 
3 329 339 376 
3 332 391 381 
3 339 332 382 
3 356 371 384 
3 372 389 384 
3 366 364 387 
3 372 366 388 
3 345 344 326 
3 357 356 391 
3 392 358 360 
3 326 344 357 
3 360 346 393 
3 385 947 381 
3 391 356 386 
3 394 398 395 
3 397 395 398 
3 400 396 395 
3 401 408 402 
3 403 402 404 
3 396 496 406 
3 407 497 408 
3 401 403 398 
3 399 398 403 
3 406 407 401 
3 409 421 410 
3 412 411 410 
3 414 418 415 
3 414 499 417 
3 419 499 414 
3 409 498 420 
3 421 499 419 
3 413 410 419 
3 422 453 423 
3 425 500 426 
3 428 452 429 
3 431 463 432 
3 434 433 432 
3 436 431 433 
3 432 463 437 
3 438 442 439 
3 438 458 441 
3 443 462 444 
3 444 455 446 
3 447 451 448 
3 450 459 448 
3 424 423 436 
3 452 443 445 
3 453 461 454 
3 430 429 423 
3 455 463 431 
3 436 445 446 
3 426 500 456 
3 450 441 458 
3 450 451 442 
3 460 427 426 
3 437 438 440 
3 437 463 458 
3 449 448 444 
3 448 459 455 
3 426 457 454 
3 459 458 463 
3 429 445 436 
3 464 486 465 
3 467 491 468 
3 470 492 471 
3 473 956 474 
3 476 493 477 
3 479 957 480 
3 474 956 482 
3 479 481 484 
3 486 494 487 
3 478 477 470 
3 468 491 488 
3 490 955 488 
3 480 957 473 
3 469 468 486 
3 470 475 474 
3 493 481 480 
3 486 468 489 
3 477 480 475 
3 495 492 474 
3 400 422 424 
3 434 435 406 
3 440 439 497 
3 435 440 407 
3 424 434 496 
3 471 492 420 
3 483 482 417 
3 495 483 499 
3 420 492 495 
3 408 409 411 
3 404 402 411 
3 497 498 409 
3 466 465 500 
3 442 472 471 
3 447 476 478 
3 500 465 487 
3 451 478 472 
3 471 498 497 
3 501 509 502 
3 503 595 504 
3 505 600 506 
3 508 596 505 
3 507 506 509 
3 501 504 508 
3 510 514 511 
3 510 597 513 
3 515 943 516 
3 518 599 515 
3 514 517 516 
3 514 513 518 
3 519 558 520 
3 522 556 521 
3 523 526 524 
3 526 549 527 
3 528 557 529 
3 531 553 532 
3 532 553 534 
3 536 559 537 
3 539 601 540 
3 542 560 543 
3 537 559 545 
3 547 541 540 
3 540 601 549 
3 550 542 544 
3 552 555 532 
3 554 533 532 
3 556 522 529 
3 543 560 536 
3 527 549 553 
3 552 601 539 
3 558 525 524 
3 527 522 520 
3 529 532 535 
3 539 541 559 
3 554 555 560 
3 527 532 529 
3 560 555 539 
3 559 541 547 
3 554 542 550 
3 561 564 562 
3 564 584 565 
3 566 598 567 
3 569 573 570 
3 572 570 573 
3 575 951 576 
3 578 581 579 
3 580 579 575 
3 581 951 575 
3 582 591 583 
3 585 594 586 
3 588 590 570 
3 579 592 589 
3 583 573 570 
3 590 588 591 
3 586 579 580 
3 592 594 585 
3 567 598 561 
3 577 576 593 
3 578 580 573 
3 573 580 577 
3 587 580 573 
3 589 585 591 
3 591 585 587 
3 589 588 573 
3 592 579 586 
3 546 545 504 
3 547 548 596 
3 545 547 508 
3 564 561 513 
3 517 515 568 
3 566 599 518 
3 599 566 568 
3 514 517 567 
3 598 518 513 
3 510 512 600 
3 596 597 510 
3 523 562 565 
3 549 584 564 
3 565 584 549 
3 571 570 553 
3 534 553 570 
3 549 584 570 
3 552 590 582 
3 549 601 582 
3 590 552 553 
3 548 564 597 
3 602 639 603 
3 605 642 606 
3 608 614 609 
3 611 643 612 
3 614 643 611 
3 613 612 608 
3 615 767 616 
3 617 638 618 
3 619 644 620 
3 622 621 620 
3 624 619 621 
3 625 757 626 
3 627 626 628 
3 630 758 631 
3 633 768 634 
3 604 603 624 
3 613 630 632 
3 636 633 635 
3 634 768 618 
3 635 634 638 
3 639 609 611 
3 640 643 614 
3 624 632 631 
3 616 767 607 
3 642 605 636 
3 606 642 640 
3 608 617 616 
3 637 638 612 
3 612 638 617 
3 625 627 620 
3 620 627 629 
3 616 606 641 
3 640 642 637 
3 603 611 632 
3 645 685 646 
3 648 688 649 
3 651 691 652 
3 654 681 651 
3 655 958 656 
3 658 684 655 
3 659 663 660 
3 659 687 662 
3 664 687 659 
3 665 669 666 
3 668 959 669 
3 670 680 671 
3 673 960 674 
3 676 667 666 
3 670 672 678 
3 654 671 680 
3 682 960 673 
3 658 675 674 
3 652 691 645 
3 685 679 678 
3 686 692 662 
3 656 958 648 
3 688 682 683 
3 689 959 668 
3 650 649 685 
3 657 656 691 
3 681 658 657 
3 665 667 660 
3 662 668 665 
3 673 675 680 
3 691 656 650 
3 649 683 679 
3 690 668 662 
3 673 670 679 
3 681 680 675 
3 693 712 694 
3 695 694 696 
3 698 713 699 
3 701 715 702 
3 704 703 702 
3 706 709 707 
3 709 706 710 
3 701 703 694 
3 696 694 703 
3 698 711 710 
3 713 712 693 
3 706 708 714 
3 706 715 701 
3 713 710 701 
3 716 734 717 
3 719 735 720 
3 722 725 723 
3 725 722 726 
3 728 731 729 
3 731 728 732 
3 716 727 726 
3 719 733 732 
3 735 716 718 
3 725 728 730 
3 728 725 727 
3 735 732 727 
3 736 746 737 
3 739 769 740 
3 737 746 742 
3 740 769 744 
3 741 740 746 
3 740 745 742 
3 747 753 748 
3 750 961 751 
3 753 750 752 
3 754 760 755 
3 619 743 742 
3 625 745 744 
3 758 738 737 
3 644 742 745 
3 631 737 743 
3 744 769 759 
3 749 748 692 
3 752 751 689 
3 748 752 690 
3 754 756 702 
3 705 702 756 
3 754 715 714 
3 707 765 761 
3 761 760 714 
3 723 764 762 
3 763 766 730 
3 730 766 764 
3 610 697 696 
3 704 705 758 
3 696 704 630 
3 755 760 736 
3 765 739 741 
3 761 741 736 
3 764 753 747 
3 763 961 750 
3 766 750 753 
3 647 646 605 
3 653 652 767 
3 615 618 654 
3 757 687 664 
3 628 626 664 
3 672 671 768 
3 767 652 647 
3 646 678 636 
3 759 686 687 
3 672 633 636 
3 618 768 671 
3 734 698 700 
3 709 722 724 
3 722 709 711 
3 734 726 711 
3 739 747 749 
3 762 747 739 
3 759 769 749 
3 724 762 765 
3 758 705 755 
3 770 812 771 
3 773 815 774 
3 776 780 777 
3 776 807 779 
3 781 811 782 
3 784 800 785 
3 787 818 784 
3 788 792 789 
3 788 817 791 
3 793 804 794 
3 796 808 797 
3 799 785 800 
3 790 789 802 
3 804 793 805 
3 807 795 794 
3 808 796 809 
3 781 798 797 
3 777 772 771 
3 770 806 805 
3 813 818 787 
3 773 810 809 
3 816 925 791 
3 774 815 770 
3 779 781 783 
3 784 788 790 
3 784 818 817 
3 804 796 798 
3 815 809 806 
3 816 817 818 
3 800 790 803 
3 796 804 806 
3 779 794 798 
3 819 867 820 
3 820 870 822 
3 823 828 824 
3 824 855 826 
3 827 855 824 
3 829 852 830 
3 832 868 829 
3 833 837 834 
3 833 866 836 
3 838 856 839 
3 841 865 842 
3 844 850 845 
3 847 869 848 
3 850 869 847 
3 851 830 852 
3 854 835 834 
3 834 837 855 
3 856 838 857 
3 840 839 859 
3 846 845 861 
3 863 847 849 
3 822 870 858 
3 865 868 832 
3 826 855 862 
3 844 836 866 
3 836 844 846 
3 823 825 820 
3 826 870 820 
3 833 835 852 
3 868 866 833 
3 845 847 839 
3 869 850 865 
3 870 826 861 
3 865 850 866 
3 853 852 835 
3 861 845 856 
3 839 847 863 
3 837 846 862 
3 871 888 872 
3 874 890 875 
3 877 881 878 
3 880 883 878 
3 882 879 878 
3 884 889 885 
3 885 929 887 
3 877 879 888 
3 889 884 890 
3 890 871 873 
3 877 884 886 
3 886 887 880 
3 884 877 871 
3 891 895 892 
3 894 916 891 
3 895 913 896 
3 897 901 898 
3 900 903 897 
3 901 915 902 
3 903 915 901 
3 904 912 905 
3 907 935 906 
3 908 914 909 
3 911 917 910 
3 912 904 896 
3 914 908 902 
3 914 915 903 
3 899 898 895 
3 916 900 899 
3 898 902 913 
3 912 908 910 
3 917 907 905 
3 908 912 913 
3 918 924 919 
3 921 939 922 
3 924 921 923 
3 920 919 813 
3 816 923 922 
3 922 939 926 
3 919 923 816 
3 880 930 927 
3 928 932 887 
3 887 932 930 
3 931 938 782 
3 930 924 918 
3 928 939 921 
3 932 921 924 
3 893 891 933 
3 860 859 916 
3 935 907 841 
3 899 897 936 
3 864 903 900 
3 917 911 848 
3 911 909 849 
3 891 899 937 
3 859 863 900 
3 917 869 841 
3 909 903 864 
3 822 773 775 
3 831 830 789 
3 791 832 831 
3 808 838 840 
3 926 843 842 
3 773 822 857 
3 842 832 791 
3 789 830 851 
3 838 808 810 
3 797 840 860 
3 938 893 892 
3 931 894 893 
3 892 896 874 
3 889 904 906 
3 935 929 885 
3 904 889 874 
3 938 893 934 
3 860 894 931 
3 935 843 926 
3 928 929 926 
3 14 397 399 
3 13 400 397 
3 405 404 123 
3 399 405 18 
3 412 413 41 
3 37 416 415 
3 413 416 37 
3 461 453 76 
3 76 453 422 
3 460 461 82 
3 425 427 66 
3 430 454 75 
3 71 70 428 
3 457 456 125 
3 427 460 81 
3 75 454 457 
3 104 464 466 
3 941 467 469 
3 118 487 494 
3 489 488 119 
3 111 469 464 
3 116 494 489 
3 404 412 32 
3 124 466 425 
3 456 487 118 
3 13 62 422 
3 136 502 509 
3 506 600 138 
3 146 509 506 
3 512 511 150 
3 516 943 942 
3 156 515 517 
3 943 515 156 
3 511 516 155 
3 157 517 514 
3 202 558 519 
3 523 525 185 
3 197 528 530 
3 535 534 252 
3 525 558 202 
3 196 530 535 
3 563 562 215 
3 572 574 245 
3 593 244 245 
3 576 951 944 
3 593 576 228 
3 600 512 152 
3 215 562 523 
3 252 534 572 
3 514 563 247 
3 276 639 602 
3 266 317 610 
3 266 609 639 
3 693 695 294 
3 294 695 697 
3 297 700 699 
3 699 693 305 
3 316 718 717 
3 945 721 720 
3 312 720 718 
3 307 717 700 
3 317 295 697 
3 393 775 774 
3 777 780 340 
3 783 782 392 
3 774 772 342 
3 340 780 783 
3 777 341 342 
3 347 867 819 
3 819 821 346 
3 946 828 823 
3 358 934 933 
3 366 937 936 
3 354 823 867 
3 372 933 937 
3 383 873 872 
3 379 876 875 
3 876 379 947 
3 380 875 873 
3 891 893 385 
3 387 897 899 
3 388 899 891 
3 346 821 775 
3 392 782 934 
3 385 893 938 
3 936 897 387 
3 72 272 261 
3 948 261 260 
3 73 126 319 
3 72 73 262 
3 113 121 289 
3 114 962 949 
3 121 114 280 
3 126 113 277 
3 602 604 452 
3 623 462 443 
3 629 628 447 
3 623 629 449 
3 452 604 622 
3 660 493 476 
3 676 677 485 
3 667 481 493 
3 481 667 676 
3 628 661 476 
3 950 190 338 
3 188 390 325 
3 190 189 325 
3 224 244 347 
3 224 348 345 
3 228 944 946 
3 244 228 354 
3 221 345 390 
3 801 550 551 
3 803 802 531 
3 803 533 550 
3 851 853 569 
3 854 827 581 
3 581 827 828 
3 853 854 578 
3 802 851 571 
3 28 27 144 
3 38 133 135 
3 940 136 133 
3 35 135 144 
3 164 166 952 
3 98 174 173 
3 195 174 98 
3 177 176 110 
3 176 179 941 
3 953 180 177 
3 952 166 195 
3 197 180 953 
3 950 962 96 
3 127 164 86 
3 949 322 324 
3 330 329 954 
3 281 324 330 
3 375 374 945 
3 377 375 311 
3 954 329 377 
3 503 502 415 
3 418 417 595 
3 467 519 521 
3 521 556 490 
3 955 557 528 
3 538 537 956 
3 544 543 957 
3 490 556 557 
3 957 543 538 
3 956 537 546 
3 551 544 479 
3 482 546 595 
3 771 812 688 
3 776 778 958 
3 684 807 776 
3 786 785 666 
3 959 787 786 
3 960 793 795 
3 958 778 771 
3 812 805 682 
3 814 787 959 
3 677 666 785 
3 793 960 682 
3 684 674 795 
3 888 719 721 
3 882 883 729 
3 882 731 733 
3 888 879 733 
3 961 918 920 
3 927 918 961 
3 751 920 814 
3 927 763 729 
3 962 950 322 
3 799 551 485 
3 940 415 502 
3 179 519 467 
3 119 488 528 
3 374 872 721 
3 260 602 428 
3 951 828 946 
